<svg width="554" height="320" viewBox="0 0 554 320" fill="none" xmlns="http://www.w3.org/2000/svg">
<g clip-path="url(#clip0)">
<path d="M276.87 295.155C354.118 295.155 416.74 232.533 416.74 155.285C416.74 78.0371 354.118 15.4153 276.87 15.4153C199.622 15.4153 137 78.0371 137 155.285C137 232.533 199.622 295.155 276.87 295.155Z" fill="#F5F5F5"/>
<path d="M469.709 53.8419C469.745 54.7574 470.112 55.6288 470.742 56.2939C471.372 56.9591 472.222 57.3727 473.135 57.4578C474.047 57.5429 474.959 57.2937 475.701 56.7565C476.443 56.2194 476.965 55.431 477.17 54.5378C477.374 53.6447 477.247 52.7078 476.812 51.9013C476.377 51.0948 475.664 50.4738 474.806 50.1537C473.947 49.8336 473.002 49.8363 472.145 50.1612C471.289 50.4861 470.579 51.1112 470.149 51.9201L468.118 51.4526C468.538 48.6933 468.06 45.8723 466.755 43.4051L471.422 40.4777C472.101 41.1096 472.986 41.473 473.913 41.5003C474.84 41.5277 475.745 41.2169 476.46 40.6261C477.175 40.0352 477.651 39.2046 477.798 38.289C477.946 37.3735 477.756 36.4354 477.263 35.6498C476.77 34.8641 476.008 34.2845 475.12 34.019C474.231 33.7534 473.276 33.8201 472.433 34.2065C471.59 34.5929 470.916 35.2727 470.538 36.1192C470.159 36.9657 470.101 37.921 470.374 38.8072L465.707 41.7347C464.055 39.4863 461.724 37.8281 459.058 37.0045L459.524 34.9739C460.439 34.9384 461.311 34.5715 461.976 33.9415C462.642 33.3114 463.056 32.4611 463.141 31.5488C463.226 30.6364 462.977 29.7241 462.44 28.9816C461.903 28.2391 461.115 27.7169 460.221 27.5123C459.328 27.3076 458.391 27.4344 457.584 27.8691C456.778 28.3037 456.156 29.0166 455.836 29.8751C455.516 30.7337 455.518 31.6793 455.843 32.5362C456.167 33.3931 456.792 34.1029 457.601 34.5335L457.136 36.5647C454.45 36.1538 451.704 36.5931 449.281 37.821L446.463 33.3291C446.94 32.8114 447.262 32.1707 447.394 31.4793C447.526 30.7879 447.461 30.0735 447.208 29.4167C446.955 28.7599 446.524 28.187 445.962 27.7627C445.401 27.3384 444.732 27.0797 444.031 27.0156C443.33 26.9516 442.625 27.0849 441.996 27.4005C441.367 27.7161 440.838 28.2013 440.471 28.8014C440.103 29.4014 439.91 30.0924 439.915 30.7962C439.919 31.5 440.12 32.1886 440.495 32.7841C440.933 33.4886 441.593 34.0275 442.371 34.3159C443.149 34.6043 444.001 34.6257 444.792 34.3769L447.598 38.8502C445.26 40.5075 443.534 42.8897 442.688 45.6275L440.658 45.1628C440.622 44.2469 440.256 43.375 439.626 42.7094C438.996 42.0437 438.145 41.6296 437.233 41.5442C436.32 41.4587 435.407 41.7076 434.665 42.2447C433.922 42.7818 433.4 43.5704 433.195 44.4638C432.99 45.3572 433.117 46.2945 433.552 47.1014C433.986 47.9084 434.699 48.5299 435.558 48.8504C436.417 49.1709 437.363 49.1685 438.22 48.8437C439.077 48.5189 439.787 47.8937 440.217 47.0846L442.248 47.55C441.829 50.3091 442.307 53.1299 443.612 55.5968L439.318 58.2923C438.8 57.8172 438.16 57.4962 437.47 57.3655C436.78 57.2348 436.067 57.2997 435.411 57.5528C434.756 57.8058 434.184 58.237 433.761 58.7977C433.338 59.3584 433.08 60.0262 433.016 60.7259C432.952 61.4255 433.085 62.129 433.399 62.7571C433.714 63.3852 434.198 63.9128 434.797 64.2804C435.396 64.648 436.085 64.8409 436.788 64.8375C437.49 64.834 438.178 64.6342 438.773 64.2607C439.473 63.8182 440.008 63.1579 440.296 62.3814C440.583 61.6049 440.608 60.7552 440.366 59.9634L444.659 57.268C446.312 59.5163 448.642 61.1745 451.308 61.9981L450.843 64.0294C449.927 64.0647 449.055 64.4315 448.389 65.0616C447.723 65.6917 447.309 66.5421 447.224 67.4547C447.138 68.3672 447.387 69.2798 447.924 70.0225C448.461 70.7653 449.25 71.2876 450.143 71.4924C451.037 71.6971 451.974 71.5704 452.781 71.1356C453.588 70.7009 454.21 69.9879 454.53 69.1292C454.851 68.2705 454.848 67.3246 454.523 66.4675C454.199 65.6104 453.573 64.9005 452.764 64.4699L453.23 62.4386C456.064 62.8689 458.961 62.3518 461.471 60.9676L464.277 65.4408C463.646 66.1194 463.283 67.0042 463.257 67.9304C463.23 68.8565 463.541 69.7607 464.132 70.4745C464.722 71.1883 465.552 71.6629 466.467 71.81C467.382 71.957 468.319 71.7664 469.104 71.2737C469.888 70.781 470.467 70.0198 470.732 69.132C470.997 68.2442 470.93 67.2903 470.543 66.4482C470.157 65.6061 469.478 64.9332 468.632 64.5549C467.786 64.1767 466.832 64.1189 465.946 64.3923L463.128 59.9018C465.288 58.2543 466.879 55.9728 467.678 53.3765L469.709 53.8419ZM452.399 42.4688C452.506 42.0042 452.748 41.5816 453.094 41.2545C453.441 40.9274 453.877 40.7104 454.347 40.631C454.817 40.5516 455.3 40.6134 455.735 40.8085C456.17 41.0036 456.537 41.3232 456.79 41.727C457.044 42.1308 457.171 42.6007 457.158 43.0771C457.144 43.5536 456.989 44.0152 456.713 44.4037C456.437 44.7922 456.052 45.0901 455.606 45.2598C455.161 45.4294 454.675 45.4631 454.21 45.3567C453.902 45.2861 453.61 45.1554 453.352 44.972C453.094 44.7887 452.875 44.5562 452.706 44.288C452.538 44.0198 452.425 43.7211 452.372 43.409C452.319 43.0968 452.329 42.7773 452.399 42.4688ZM454.799 50.6832C454.476 50.6088 454.183 50.4405 453.956 50.1995C453.729 49.9585 453.579 49.6556 453.524 49.3291C453.469 49.0026 453.512 48.6671 453.648 48.3651C453.783 48.0631 454.005 47.808 454.286 47.6322C454.567 47.4565 454.893 47.3678 455.224 47.3774C455.555 47.3871 455.875 47.4946 456.145 47.6864C456.415 47.8783 456.622 48.1458 456.74 48.4552C456.858 48.7646 456.881 49.102 456.807 49.4248C456.758 49.6394 456.667 49.8422 456.54 50.0216C456.412 50.201 456.251 50.3535 456.064 50.4704C455.878 50.5873 455.67 50.6662 455.453 50.7027C455.236 50.7392 455.014 50.7326 454.799 50.6832ZM460.201 49.6443C459.835 49.5603 459.502 49.3697 459.244 49.0965C458.987 48.8233 458.816 48.4798 458.753 48.1095C458.691 47.7391 458.739 47.3586 458.893 47.016C459.047 46.6733 459.299 46.384 459.617 46.1845C459.935 45.985 460.306 45.8844 460.681 45.8953C461.056 45.9062 461.42 46.0281 461.726 46.2458C462.032 46.4634 462.267 46.7669 462.401 47.1179C462.534 47.4689 462.561 47.8516 462.477 48.2177C462.421 48.4608 462.318 48.6905 462.174 48.8938C462.029 49.0971 461.846 49.2699 461.635 49.4024C461.424 49.5349 461.188 49.6244 460.942 49.6659C460.696 49.7074 460.445 49.7001 460.202 49.6443H460.201Z" fill="#FFEBEE"/>
<path d="M77.826 46.9842C78.313 47.7601 79.0652 48.3326 79.9428 48.5953C80.8203 48.858 81.7634 48.793 82.5965 48.4123C83.4297 48.0317 84.0963 47.3614 84.4722 46.5261C84.8481 45.6907 84.9077 44.7473 84.6401 43.8713C84.3724 42.9953 83.7956 42.2463 83.0171 41.7637C82.2385 41.2812 81.3111 41.0978 80.4075 41.2479C79.5038 41.3979 78.6855 41.8711 78.1046 42.5794C77.5238 43.2877 77.22 44.1829 77.2498 45.0984L75.2574 45.7065C74.246 43.1043 72.4251 40.8961 70.0632 39.4077L72.652 34.5439C73.5553 34.7538 74.5042 34.628 75.3217 34.1901C76.1392 33.7521 76.7695 33.0318 77.0951 32.1634C77.4208 31.2951 77.4196 30.3379 77.0917 29.4704C76.7638 28.6029 76.1316 27.8842 75.313 27.4483C74.4943 27.0125 73.5452 26.8892 72.6424 27.1014C71.7396 27.3137 70.9447 27.847 70.4061 28.602C69.8674 29.3569 69.6217 30.282 69.7147 31.2047C69.8077 32.1275 70.2331 32.9849 70.9116 33.6172L68.3235 38.481C65.7701 37.3544 62.9222 37.0781 60.1998 37.6929L59.5973 35.6997C60.3731 35.2128 60.9456 34.4606 61.2084 33.5831C61.4711 32.7056 61.4061 31.7626 61.0255 30.9294C60.645 30.0962 59.9747 29.4297 59.1394 29.0537C58.3042 28.6777 57.3608 28.618 56.4848 28.8856C55.6087 29.1531 54.8597 29.7298 54.3771 30.5083C53.8944 31.2868 53.711 32.2141 53.8609 33.1177C54.0108 34.0213 54.4838 34.8398 55.192 35.4207C55.9002 36.0016 56.7953 36.3056 57.7108 36.2759L58.3195 38.2684C55.7862 39.2497 53.6232 40.9988 52.1336 43.2707L47.4527 40.7775C47.6083 40.0912 47.5689 39.3749 47.3388 38.7097C47.1087 38.0446 46.6972 37.457 46.1507 37.0135C45.6042 36.57 44.9446 36.2881 44.2463 36.1998C43.548 36.1116 42.839 36.2204 42.1993 36.5139C41.5596 36.8075 41.0148 37.2741 40.6264 37.8611C40.2381 38.4481 40.0216 39.132 40.0015 39.8355C39.9815 40.5391 40.1586 41.2342 40.5129 41.8423C40.8672 42.4505 41.3845 42.9474 42.0064 43.277C42.7375 43.6694 43.5784 43.8075 44.3966 43.6696C45.2148 43.5317 45.9639 43.1256 46.526 42.5152L51.1876 44.9966C49.9859 47.5981 49.676 50.5235 50.306 53.319L48.3135 53.9271C47.8267 53.1507 47.0744 52.5776 46.1966 52.3144C45.3189 52.0512 44.3754 52.1159 43.5417 52.4964C42.708 52.8768 42.0409 53.5472 41.6646 54.3827C41.2882 55.2182 41.2282 56.162 41.4957 57.0385C41.7631 57.915 42.3399 58.6644 43.1187 59.1474C43.8974 59.6304 44.8251 59.8141 45.7292 59.6642C46.6332 59.5144 47.452 59.0412 48.0333 58.3328C48.6145 57.6243 48.9186 56.7288 48.889 55.8129L50.8815 55.2049C51.892 57.8063 53.7117 60.0141 56.0722 61.503L53.6891 65.981C53.0037 65.8267 52.2888 65.8671 51.6251 66.0976C50.9614 66.3281 50.3754 66.7395 49.9331 67.2854C49.4908 67.8313 49.2099 68.4899 49.1221 69.187C49.0344 69.884 49.1432 70.5918 49.4363 71.2303C49.7294 71.8688 50.1951 72.4126 50.7809 72.8005C51.3668 73.1883 52.0493 73.4047 52.7516 73.4252C53.4539 73.4457 54.1479 73.2695 54.7553 72.9164C55.3627 72.5634 55.8594 72.0476 56.1892 71.4273C56.5756 70.6947 56.7104 69.8553 56.5727 69.0386C56.435 68.2219 56.0326 67.4731 55.4274 66.9077L57.8105 62.4296C60.3639 63.5564 63.2117 63.833 65.9342 63.2184L66.5429 65.2116C65.7666 65.6984 65.1935 66.4507 64.9303 67.3285C64.6671 68.2062 64.7317 69.1497 65.1122 69.9834C65.4926 70.8171 66.163 71.4841 66.9985 71.8605C67.834 72.2369 68.7778 72.2969 69.6543 72.0294C70.5308 71.7619 71.2803 71.1852 71.7633 70.4064C72.2463 69.6277 72.4299 68.7 72.2801 67.7959C72.1302 66.8919 71.657 66.073 70.9486 65.4918C70.2401 64.9105 69.3447 64.6064 68.4288 64.6361L67.8207 62.6429C70.4914 61.604 72.7451 59.7133 74.2324 57.2638L78.8926 59.7446C78.6823 60.6486 78.808 61.5982 79.2462 62.4164C79.6844 63.2346 80.4052 63.8655 81.2742 64.1915C82.1432 64.5175 83.1012 64.5164 83.9694 64.1883C84.8376 63.8601 85.5569 63.2275 85.9931 62.4082C86.4293 61.5889 86.5527 60.639 86.3402 59.7355C86.1277 58.832 85.5939 58.0366 84.8383 57.4976C84.0827 56.9586 83.1569 56.7127 82.2334 56.806C81.3099 56.8992 80.4519 57.325 79.8192 58.0042L75.1389 55.511C76.1909 53.0063 76.4331 50.2353 75.8315 47.5861L77.826 46.9842ZM57.1512 45.7439C57.0119 45.2878 57.0111 44.8007 57.1487 44.3442C57.2863 43.8876 57.5562 43.4821 57.9243 43.179C58.2923 42.8758 58.742 42.6887 59.2165 42.6411C59.6909 42.5935 60.1688 42.6878 60.5897 42.9118C61.0106 43.1359 61.3557 43.4797 61.5811 43.8999C61.8066 44.32 61.9024 44.7976 61.8565 45.2722C61.8105 45.7469 61.6248 46.1972 61.3229 46.5663C61.021 46.9353 60.6164 47.2066 60.1603 47.3457C59.5489 47.5323 58.8884 47.4683 58.3241 47.1679C57.7598 46.8675 57.3379 46.3553 57.1512 45.7439ZM63.3239 51.6714C63.0071 51.7681 62.6688 51.7687 62.3517 51.6731C62.0346 51.5775 61.7529 51.39 61.5424 51.1343C61.3318 50.8786 61.2018 50.5662 61.1688 50.2366C61.1358 49.907 61.2013 49.5751 61.357 49.2827C61.5127 48.9904 61.7515 48.7507 62.0434 48.5942C62.3353 48.4376 62.667 48.371 62.9967 48.403C63.3264 48.435 63.6392 48.564 63.8955 48.7737C64.1519 48.9834 64.3403 49.2645 64.4369 49.5813C64.5664 50.0061 64.5219 50.4649 64.3132 50.8568C64.1045 51.2488 63.7487 51.5418 63.3239 51.6714ZM67.4917 48.0798C67.1325 48.1895 66.7489 48.1901 66.3893 48.0817C66.0298 47.9733 65.7104 47.7607 65.4717 47.4708C65.2329 47.1809 65.0855 46.8268 65.048 46.4531C65.0105 46.0794 65.0847 45.703 65.2611 45.3715C65.4375 45.0399 65.7083 44.7682 66.0391 44.5905C66.37 44.4128 66.7461 44.3373 67.1199 44.3733C67.4937 44.4094 67.8485 44.5555 68.1392 44.7932C68.43 45.0308 68.6438 45.3494 68.7536 45.7085C68.9006 46.1902 68.8504 46.7106 68.6139 47.1553C68.3774 47.6 67.974 47.9325 67.4924 48.0798H67.4917Z" fill="#FFEBEE"/>
<path d="M499.482 256.682C499.618 257.161 499.924 257.574 500.342 257.845C500.76 258.116 501.263 258.226 501.756 258.154C502.249 258.082 502.699 257.833 503.022 257.454C503.345 257.075 503.52 256.592 503.514 256.094C503.507 255.596 503.32 255.117 502.987 254.746C502.654 254.376 502.198 254.139 501.703 254.08C501.208 254.021 500.709 254.144 500.298 254.425C499.887 254.707 499.592 255.128 499.469 255.61L498.336 255.625C498.204 254.114 497.59 252.686 496.584 251.551L498.673 249.404C499.112 249.651 499.627 249.73 500.12 249.626C500.614 249.521 501.052 249.241 501.354 248.837C501.656 248.434 501.801 247.934 501.762 247.431C501.722 246.928 501.502 246.457 501.14 246.105C500.779 245.753 500.303 245.544 499.799 245.518C499.296 245.492 498.8 245.649 498.404 245.962C498.008 246.274 497.739 246.719 497.647 247.215C497.556 247.711 497.647 248.223 497.905 248.656L495.817 250.803C494.656 249.828 493.212 249.251 491.698 249.159L491.684 248.027C492.162 247.89 492.575 247.585 492.845 247.167C493.115 246.749 493.224 246.247 493.152 245.755C493.08 245.263 492.831 244.813 492.452 244.49C492.074 244.168 491.591 243.993 491.093 244C490.596 244.007 490.117 244.194 489.748 244.527C489.378 244.86 489.141 245.316 489.083 245.81C489.024 246.304 489.146 246.803 489.428 247.213C489.709 247.624 490.13 247.918 490.612 248.041L490.627 249.173C489.156 249.301 487.763 249.885 486.641 250.844L484.577 248.836C484.763 248.501 484.851 248.122 484.832 247.74C484.812 247.358 484.687 246.989 484.469 246.674C484.251 246.36 483.95 246.113 483.599 245.961C483.248 245.809 482.862 245.758 482.483 245.814C482.105 245.871 481.75 246.031 481.458 246.279C481.167 246.526 480.95 246.85 480.833 247.214C480.716 247.578 480.703 247.968 480.795 248.339C480.888 248.71 481.082 249.047 481.357 249.314C481.678 249.629 482.096 249.829 482.544 249.881C482.991 249.934 483.443 249.836 483.829 249.603L485.885 251.605C484.863 252.78 484.257 254.259 484.162 255.813L483.03 255.828C482.894 255.349 482.588 254.936 482.17 254.665C481.752 254.394 481.25 254.285 480.758 254.357C480.265 254.428 479.815 254.677 479.492 255.056C479.168 255.434 478.994 255.918 479 256.416C479.007 256.914 479.194 257.392 479.527 257.763C479.86 258.133 480.316 258.37 480.81 258.429C481.305 258.488 481.804 258.365 482.215 258.084C482.626 257.803 482.92 257.382 483.044 256.899L484.176 256.884C484.308 258.395 484.922 259.823 485.928 260.958L484.008 262.931C483.674 262.746 483.295 262.658 482.913 262.678C482.532 262.697 482.164 262.823 481.85 263.04C481.536 263.258 481.29 263.559 481.138 263.909C480.986 264.26 480.936 264.645 480.992 265.023C481.047 265.401 481.208 265.755 481.455 266.047C481.701 266.338 482.025 266.555 482.388 266.672C482.751 266.789 483.14 266.803 483.511 266.71C483.881 266.618 484.219 266.425 484.485 266.151C484.798 265.828 484.996 265.41 485.048 264.964C485.101 264.517 485.005 264.065 484.775 263.678L486.698 261.704C487.859 262.679 489.303 263.255 490.816 263.348L490.831 264.481C490.352 264.617 489.94 264.923 489.67 265.34C489.399 265.758 489.29 266.26 489.363 266.753C489.435 267.245 489.683 267.694 490.062 268.017C490.441 268.34 490.924 268.514 491.421 268.507C491.919 268.501 492.397 268.313 492.767 267.98C493.137 267.647 493.373 267.191 493.432 266.697C493.491 266.203 493.368 265.705 493.087 265.294C492.805 264.884 492.384 264.589 491.902 264.466L491.888 263.334C493.439 263.197 494.901 262.553 496.049 261.501L498.104 263.503C497.858 263.942 497.78 264.455 497.885 264.948C497.989 265.44 498.27 265.877 498.673 266.178C499.076 266.479 499.575 266.623 500.077 266.584C500.579 266.544 501.049 266.323 501.4 265.962C501.751 265.602 501.959 265.126 501.985 264.623C502.011 264.12 501.853 263.625 501.541 263.23C501.229 262.835 500.784 262.567 500.289 262.476C499.794 262.385 499.283 262.477 498.851 262.735L496.788 260.726C497.717 259.58 498.264 258.171 498.353 256.698L499.482 256.682ZM488.886 252.897C488.883 252.638 488.956 252.384 489.097 252.167C489.238 251.949 489.441 251.779 489.679 251.676C489.917 251.574 490.18 251.545 490.434 251.592C490.689 251.639 490.924 251.761 491.11 251.942C491.295 252.122 491.423 252.354 491.477 252.607C491.531 252.861 491.508 253.124 491.412 253.365C491.316 253.605 491.151 253.812 490.938 253.959C490.724 254.106 490.472 254.186 490.213 254.189C490.041 254.192 489.87 254.16 489.71 254.096C489.551 254.033 489.405 253.938 489.281 253.818C489.158 253.698 489.06 253.555 488.992 253.397C488.923 253.239 488.887 253.069 488.885 252.897H488.886ZM491.207 256.926C491.027 256.928 490.851 256.877 490.7 256.778C490.549 256.68 490.431 256.539 490.361 256.374C490.29 256.208 490.27 256.026 490.303 255.849C490.336 255.672 490.421 255.509 490.546 255.38C490.672 255.252 490.833 255.163 491.009 255.126C491.185 255.089 491.368 255.104 491.535 255.171C491.702 255.238 491.846 255.353 491.948 255.501C492.049 255.649 492.105 255.825 492.107 256.004C492.109 256.124 492.087 256.243 492.042 256.354C491.998 256.466 491.932 256.567 491.848 256.653C491.764 256.738 491.664 256.806 491.554 256.853C491.444 256.9 491.325 256.925 491.206 256.926H491.207ZM493.926 255.684C493.722 255.687 493.522 255.629 493.35 255.518C493.179 255.407 493.045 255.248 492.964 255.06C492.884 254.873 492.86 254.665 492.898 254.465C492.935 254.264 493.031 254.079 493.173 253.933C493.316 253.786 493.498 253.686 493.698 253.643C493.897 253.601 494.105 253.619 494.295 253.694C494.484 253.77 494.647 253.9 494.763 254.068C494.878 254.237 494.941 254.435 494.944 254.639C494.946 254.775 494.921 254.91 494.871 255.035C494.82 255.161 494.746 255.276 494.651 255.373C494.556 255.47 494.443 255.548 494.319 255.601C494.194 255.654 494.06 255.683 493.925 255.684H493.926Z" fill="#EF5350"/>
<path d="M52.4817 263.683C52.6178 264.162 52.9233 264.576 53.3415 264.847C53.7596 265.117 54.2619 265.227 54.7549 265.155C55.2478 265.083 55.6979 264.835 56.0213 264.456C56.3447 264.077 56.5194 263.593 56.513 263.095C56.5066 262.597 56.3194 262.118 55.9863 261.748C55.6532 261.377 55.1969 261.141 54.7022 261.082C54.2076 261.022 53.7083 261.145 53.2973 261.426C52.8863 261.708 52.5915 262.129 52.4678 262.612L51.3362 262.626C51.2036 261.116 50.5894 259.688 49.584 258.553L51.6728 256.406C52.1124 256.653 52.6269 256.731 53.1202 256.627C53.6135 256.523 54.052 256.243 54.354 255.839C54.6561 255.435 54.8009 254.935 54.7616 254.432C54.7223 253.93 54.5016 253.458 54.1405 253.106C53.7794 252.755 53.3027 252.546 52.7991 252.519C52.2956 252.493 51.7996 252.651 51.4037 252.963C51.0078 253.275 50.7389 253.721 50.6472 254.217C50.5556 254.712 50.6473 255.225 50.9054 255.658L48.8167 257.805C47.6555 256.829 46.2117 256.253 44.6981 256.16L44.6835 255.028C45.1623 254.892 45.5752 254.586 45.8454 254.168C46.1157 253.75 46.2248 253.248 46.1526 252.756C46.0804 252.263 45.8318 251.814 45.4529 251.491C45.0741 251.168 44.5908 250.993 44.0931 251C43.5953 251.007 43.117 251.194 42.747 251.527C42.377 251.86 42.1407 252.317 42.0819 252.811C42.0231 253.305 42.1458 253.804 42.4273 254.215C42.7088 254.625 43.1299 254.919 43.6121 255.043L43.6267 256.174C42.1561 256.302 40.7623 256.886 39.6403 257.846L37.5765 255.837C37.7619 255.503 37.85 255.123 37.8308 254.741C37.8117 254.359 37.6861 253.99 37.4683 253.676C37.2505 253.362 36.9491 253.114 36.5982 252.962C36.2472 252.811 35.8608 252.76 35.4825 252.816C35.1043 252.872 34.7493 253.033 34.4576 253.28C34.1659 253.527 33.9493 253.851 33.8321 254.215C33.7149 254.579 33.7019 254.969 33.7945 255.34C33.8871 255.711 34.0817 256.049 34.3561 256.315C34.678 256.631 35.0955 256.83 35.5432 256.883C35.9909 256.935 36.4432 256.837 36.8292 256.605L38.8841 258.607C37.8628 259.781 37.2574 261.26 37.1617 262.814L36.03 262.829C35.894 262.35 35.5885 261.937 35.1705 261.666C34.7525 261.396 34.2504 261.286 33.7576 261.358C33.2648 261.43 32.8149 261.678 32.4917 262.057C32.1684 262.436 31.9937 262.919 32.0002 263.417C32.0066 263.915 32.1937 264.394 32.5267 264.764C32.8596 265.134 33.3158 265.371 33.8102 265.43C34.3047 265.489 34.8038 265.367 35.2147 265.085C35.6256 264.804 35.9202 264.383 36.0439 263.901L37.1755 263.885C37.308 265.396 37.9222 266.824 38.9277 267.959L37.0045 269.933C36.6703 269.749 36.2911 269.661 35.9098 269.681C35.5285 269.7 35.1603 269.826 34.8466 270.044C34.533 270.261 34.2864 270.562 34.1348 270.913C33.9832 271.263 33.9325 271.649 33.9886 272.027C34.0446 272.404 34.2051 272.759 34.4519 273.05C34.6988 273.341 35.0221 273.558 35.3855 273.675C35.7488 273.792 36.1377 273.806 36.5082 273.713C36.8787 273.621 37.2161 273.428 37.4823 273.154C37.7953 272.831 37.9933 272.413 38.0456 271.966C38.0979 271.519 38.0017 271.068 37.7718 270.681L39.695 268.707C40.8561 269.682 42.2996 270.258 43.813 270.351L43.8282 271.483C43.3492 271.619 42.9359 271.924 42.6653 272.342C42.3946 272.76 42.2851 273.262 42.3569 273.755C42.4288 274.248 42.6773 274.698 43.0561 275.021C43.4348 275.344 43.9182 275.519 44.4161 275.513C44.914 275.506 45.3927 275.319 45.763 274.986C46.1333 274.653 46.37 274.197 46.4291 273.702C46.4883 273.208 46.3657 272.709 46.0844 272.298C45.803 271.887 45.382 271.592 44.8996 271.469L44.8844 270.332C46.4354 270.195 47.8981 269.551 49.0459 268.499L51.1007 270.501C50.8549 270.94 50.777 271.453 50.8818 271.946C50.9866 272.438 51.2667 272.875 51.6701 273.176C52.0735 273.477 52.5726 273.621 53.0743 273.582C53.5761 273.542 54.0462 273.321 54.3972 272.96C54.7482 272.6 54.956 272.124 54.982 271.621C55.008 271.118 54.8503 270.623 54.5383 270.228C54.2264 269.833 53.7815 269.565 53.2865 269.474C52.7915 269.383 52.2803 269.475 51.848 269.733L49.7849 267.724C50.7141 266.578 51.2614 265.169 51.3501 263.696L52.4817 263.683ZM41.8856 259.898C41.8822 259.639 41.9557 259.385 42.0968 259.168C42.2379 258.951 42.4402 258.78 42.6782 258.678C42.9162 258.576 43.1792 258.546 43.4339 258.593C43.6886 258.641 43.9235 258.762 44.1091 258.943C44.2946 259.124 44.4224 259.356 44.4762 259.609C44.53 259.862 44.5074 260.126 44.4114 260.367C44.3153 260.607 44.1501 260.814 43.9366 260.961C43.7231 261.107 43.4709 261.187 43.2118 261.191C42.8646 261.195 42.5297 261.061 42.2809 260.819C42.0321 260.577 41.8897 260.246 41.8849 259.898H41.8856ZM44.2064 263.928C44.0265 263.93 43.8501 263.878 43.6994 263.78C43.5488 263.681 43.4306 263.541 43.3599 263.375C43.2892 263.21 43.2691 263.027 43.3022 262.85C43.3353 262.674 43.42 262.51 43.5457 262.382C43.6714 262.253 43.8324 262.165 44.0084 262.127C44.1844 262.09 44.3675 262.106 44.5345 262.173C44.7016 262.239 44.8451 262.354 44.9469 262.503C45.0487 262.651 45.1043 262.826 45.1067 263.006C45.1082 263.126 45.0861 263.244 45.0417 263.356C44.9972 263.467 44.9312 263.568 44.8475 263.654C44.7638 263.739 44.664 263.808 44.5539 263.855C44.4437 263.902 44.3254 263.926 44.2057 263.928H44.2064ZM46.9253 262.686C46.7212 262.689 46.5209 262.631 46.3497 262.52C46.1785 262.408 46.0441 262.249 45.9635 262.062C45.8829 261.874 45.8597 261.667 45.8969 261.466C45.9341 261.265 46.03 261.08 46.1724 260.934C46.3148 260.788 46.4974 260.687 46.6971 260.645C46.8967 260.602 47.1045 260.62 47.2941 260.696C47.4836 260.771 47.6465 260.901 47.7621 261.07C47.8777 261.238 47.9408 261.437 47.9434 261.641C47.9452 261.776 47.9203 261.911 47.8701 262.037C47.8199 262.163 47.7453 262.277 47.6507 262.375C47.5561 262.472 47.4432 262.549 47.3187 262.602C47.1941 262.656 47.0602 262.684 46.9246 262.686H46.9253Z" fill="#EF5350"/>
<path d="M266.979 19.3973C267.144 19.9786 267.515 20.4801 268.023 20.8083C268.53 21.1366 269.14 21.2694 269.738 21.1819C270.336 21.0944 270.882 20.7926 271.274 20.3327C271.666 19.8728 271.878 19.2861 271.87 18.6817C271.862 18.0774 271.634 17.4965 271.23 17.0472C270.826 16.5979 270.272 16.3108 269.672 16.2393C269.072 16.1677 268.466 16.3166 267.967 16.6583C267.469 17 267.111 17.5111 266.961 18.0966L265.587 18.1147C265.427 16.2805 264.681 14.5465 263.46 13.1684L265.993 10.5658C266.527 10.866 267.152 10.9617 267.751 10.835C268.351 10.7083 268.884 10.368 269.251 9.87737C269.618 9.38677 269.794 8.77944 269.746 8.1686C269.698 7.55777 269.43 6.98513 268.991 6.55747C268.553 6.12981 267.973 5.87632 267.361 5.84426C266.75 5.8122 266.147 6.00377 265.666 6.38324C265.185 6.76271 264.858 7.30418 264.747 7.90668C264.636 8.50919 264.747 9.1316 265.061 9.65787L262.525 12.2619C261.115 11.0776 259.362 10.3777 257.524 10.2652L257.506 8.89121C258.087 8.72579 258.589 8.35482 258.917 7.84732C259.245 7.33982 259.378 6.73035 259.291 6.13229C259.203 5.53424 258.901 4.98834 258.441 4.59614C257.982 4.20395 257.395 3.99218 256.79 4.00022C256.186 4.00827 255.605 4.23558 255.156 4.63988C254.707 5.04418 254.42 5.59792 254.348 6.19809C254.276 6.79826 254.425 7.40398 254.767 7.90256C255.109 8.40115 255.62 8.75864 256.205 8.90852L256.223 10.2826C254.438 10.4373 252.745 11.1468 251.383 12.3117L248.881 9.87325C249.106 9.46714 249.213 9.00617 249.19 8.54242C249.167 8.07867 249.014 7.63065 248.75 7.24898C248.486 6.86731 248.12 6.56721 247.694 6.38262C247.268 6.19802 246.798 6.13628 246.339 6.20437C245.88 6.27246 245.449 6.46767 245.094 6.76793C244.74 7.06819 244.477 7.46154 244.335 7.90351C244.192 8.34548 244.177 8.81846 244.289 9.26897C244.401 9.71949 244.638 10.1296 244.971 10.4529C245.361 10.8361 245.868 11.0787 246.412 11.1423C246.955 11.206 247.504 11.0873 247.973 10.8047L250.466 13.2349C249.226 14.6616 248.49 16.4576 248.374 18.3446L247 18.3626C246.835 17.7812 246.464 17.2795 245.957 16.951C245.449 16.6224 244.84 16.4894 244.242 16.5765C243.644 16.6637 243.098 16.9652 242.705 17.4249C242.313 17.8845 242.101 18.4711 242.109 19.0755C242.116 19.6799 242.343 20.2609 242.747 20.7104C243.151 21.1599 243.705 21.4473 244.305 21.5192C244.905 21.591 245.511 21.4424 246.01 21.101C246.509 20.7596 246.866 20.2487 247.017 19.6632L248.391 19.6452C248.552 21.4793 249.297 23.2133 250.518 24.5914L248.184 26.9884C247.778 26.7643 247.317 26.6582 246.855 26.6819C246.392 26.7056 245.945 26.8582 245.564 27.1225C245.183 27.3868 244.884 27.7523 244.7 28.1777C244.516 28.6031 244.454 29.0714 244.522 29.5299C244.59 29.9884 244.785 30.4187 245.085 30.7723C245.385 31.1259 245.777 31.3887 246.218 31.531C246.659 31.6734 247.131 31.6896 247.581 31.5778C248.031 31.466 248.441 31.2308 248.764 30.8985C249.143 30.5057 249.383 29.999 249.447 29.4565C249.511 28.914 249.394 28.3656 249.116 27.8956L251.45 25.4987C252.86 26.683 254.613 27.383 256.451 27.4953L256.469 28.87C255.887 29.0355 255.386 29.4064 255.058 29.9139C254.729 30.4214 254.596 31.0309 254.684 31.629C254.771 32.227 255.073 32.7729 255.533 33.1651C255.993 33.5573 256.58 33.7691 257.184 33.761C257.788 33.753 258.369 33.5257 258.819 33.1214C259.268 32.7171 259.555 32.1633 259.627 31.5632C259.698 30.963 259.549 30.3573 259.208 29.8587C258.866 29.3601 258.355 29.0026 257.769 28.8527L257.751 27.478C259.636 27.3131 261.413 26.5306 262.807 25.2521L265.3 27.683C265.001 28.2165 264.906 28.8406 265.033 29.4388C265.16 30.037 265.501 30.5687 265.991 30.9346C266.481 31.3004 267.087 31.4756 267.697 31.4275C268.307 31.3793 268.878 31.1111 269.305 30.6728C269.731 30.2346 269.984 29.6561 270.015 29.0454C270.047 28.4346 269.855 27.8331 269.476 27.3532C269.097 26.8732 268.557 26.5474 267.955 26.4366C267.354 26.3258 266.733 26.4375 266.207 26.7508L263.702 24.3103C264.831 22.918 265.495 21.2076 265.603 19.4187L266.979 19.3973ZM254.112 14.8022C254.107 14.4869 254.196 14.1773 254.367 13.9126C254.539 13.6479 254.785 13.44 255.074 13.3152C255.364 13.1904 255.684 13.1544 255.994 13.2116C256.304 13.2689 256.59 13.4169 256.816 13.6368C257.042 13.8568 257.197 14.1389 257.263 14.4473C257.328 14.7557 257.301 15.0766 257.184 15.3694C257.067 15.6621 256.865 15.9136 256.605 16.0918C256.345 16.2701 256.038 16.3672 255.723 16.3708C255.301 16.3756 254.895 16.2132 254.593 15.9192C254.291 15.6252 254.118 15.2235 254.112 14.8022ZM256.929 19.6937C256.71 19.6972 256.494 19.6356 256.31 19.5165C256.126 19.3974 255.981 19.2263 255.894 19.0248C255.807 18.8233 255.782 18.6005 255.821 18.3847C255.861 18.1689 255.964 17.9698 256.117 17.8126C256.271 17.6554 256.467 17.5472 256.682 17.5017C256.896 17.4562 257.12 17.4755 257.323 17.5571C257.527 17.6387 257.702 17.779 257.826 17.9601C257.95 18.1412 258.017 18.3551 258.019 18.5745C258.021 18.7196 257.994 18.8636 257.941 18.9984C257.887 19.1331 257.807 19.256 257.706 19.3599C257.605 19.4638 257.484 19.5468 257.351 19.6041C257.217 19.6613 257.074 19.6918 256.929 19.6937ZM260.231 18.1839C259.983 18.187 259.74 18.1166 259.532 17.9816C259.324 17.8466 259.161 17.6531 259.063 17.4254C258.966 17.1977 258.938 16.9462 258.983 16.7026C259.028 16.459 259.144 16.2343 259.317 16.0569C259.49 15.8794 259.712 15.7572 259.954 15.7057C260.197 15.6542 260.449 15.6757 260.679 15.7675C260.909 15.8593 261.107 16.0172 261.247 16.2214C261.387 16.4255 261.464 16.6667 261.467 16.9145C261.47 17.079 261.439 17.2424 261.378 17.3953C261.317 17.5482 261.227 17.6876 261.112 17.8055C260.997 17.9234 260.86 18.0175 260.709 18.0824C260.558 18.1473 260.395 18.1818 260.231 18.1839Z" fill="#EF5350"/>
<path d="M401.836 249.564L406.743 321.281H355.944V310.507L352.896 321.282H285.246L298.782 249.564L401.836 249.564Z" fill="#424242"/>
<path d="M296.085 263.843L298.78 249.564H401.837L402.391 251.727C394.585 252.821 323.549 264.438 296.085 263.843Z" fill="#212121"/>
<path d="M355.944 310.507L359.003 292.825L374.239 289.875" stroke="#212121" stroke-width="1.5" stroke-linecap="round" stroke-linejoin="round"/>
<path d="M304.812 260.009L294.229 321.282" stroke="#212121" stroke-width="1.5" stroke-linecap="round" stroke-linejoin="round"/>
<path d="M313.917 260.009C313.917 260.009 311.132 284.537 300.426 285.426" stroke="#212121" stroke-width="1.5" stroke-linecap="round" stroke-linejoin="round"/>
<path d="M366.042 279.497V249.564H373.452V272.089C373.451 274.054 372.67 275.938 371.281 277.327C369.891 278.716 368.007 279.497 366.042 279.497V279.497Z" stroke="#212121" stroke-width="1.5" stroke-linecap="round" stroke-linejoin="round"/>
<path d="M366.042 279.497V291.461" stroke="#212121" stroke-width="1.5" stroke-linecap="round" stroke-linejoin="round"/>
<path d="M523.018 133.125L491.587 137.106C490.389 137.255 489.18 136.923 488.225 136.183C487.27 135.444 486.647 134.356 486.492 133.158C486.343 131.96 486.675 130.751 487.414 129.796C488.154 128.841 489.241 128.218 490.439 128.062L521.87 124.082C523.068 123.934 524.277 124.265 525.232 125.005C526.187 125.745 526.81 126.832 526.965 128.03C527.114 129.228 526.782 130.437 526.042 131.392C525.303 132.346 524.215 132.969 523.018 133.125Z" fill="#F4A386"/>
<path d="M486.456 134.022C483.325 141.15 476.323 158.275 473.522 174.775C473.316 175.972 473.374 177.199 473.692 178.37C474.01 179.542 474.58 180.63 475.362 181.558C476.144 182.487 477.119 183.233 478.219 183.746C479.32 184.259 480.519 184.525 481.732 184.526H511.357C513.434 184.527 515.437 183.751 516.972 182.351C518.507 180.952 519.463 179.029 519.654 176.96C520.735 166.289 517.846 155.594 511.538 146.919C509.194 143.589 507.746 139.712 507.333 135.66C507.168 134.263 506.497 132.976 505.445 132.042C504.394 131.109 503.036 130.594 501.63 130.595H491.714C490.6 130.594 489.509 130.917 488.575 131.526C487.641 132.134 486.905 133.002 486.456 134.022Z" fill="#FFC800"/>
<path d="M480.723 174.777C483.525 158.277 490.527 141.152 493.658 134.023C494.106 133.002 494.842 132.134 495.776 131.525C496.71 130.916 497.801 130.592 498.916 130.592H491.714C490.599 130.592 489.508 130.915 488.574 131.524C487.64 132.134 486.904 133.001 486.456 134.022C483.325 141.15 476.323 158.275 473.522 174.775C473.316 175.972 473.374 177.199 473.692 178.37C474.01 179.542 474.58 180.63 475.362 181.558C476.144 182.487 477.119 183.233 478.219 183.746C479.32 184.259 480.519 184.525 481.732 184.526H488.935C487.721 184.525 486.522 184.259 485.422 183.746C484.322 183.234 483.346 182.487 482.564 181.559C481.782 180.631 481.213 179.543 480.895 178.371C480.577 177.2 480.518 175.973 480.723 174.777Z" fill="#FFA600"/>
<path d="M503.136 124.831H490.533V130.592H503.136V124.831Z" fill="#E6F6EC"/>
<path d="M518.739 111.748L484.891 109.348V117.389L491.853 120.631V124.832H501.815V121.471L505.942 120.681L513.768 135.394L516.943 134.656L513.373 119.257L518.741 118.23L518.739 111.748Z" fill="#16A75C"/>
<path d="M491.853 120.63L501.815 121.47V124.831H491.853V120.63Z" fill="#006430"/>
<path d="M505.943 120.68L513.371 119.257" stroke="#006430" stroke-width="1.5" stroke-linecap="round" stroke-linejoin="round"/>
<path d="M518.739 112.408L520.36 113.128V116.954L518.739 117.359V112.408Z" fill="#FFB900"/>
<path d="M515.312 147.09C515.924 146.469 516.277 145.639 516.299 144.768C516.299 142.907 514.587 141.315 512.162 140.652C512.528 140.333 512.825 139.942 513.033 139.503C513.241 139.063 513.356 138.586 513.371 138.1C513.371 135.645 510.398 133.655 506.73 133.655C503.061 133.655 500.089 135.645 500.089 138.1C500.089 139.961 501.799 141.553 504.225 142.216C503.858 142.535 503.562 142.926 503.354 143.366C503.146 143.805 503.031 144.282 503.015 144.768C503.015 146.681 504.825 148.307 507.358 148.933C506.961 149.443 506.74 150.069 506.73 150.715C506.73 152.931 509.418 154.732 512.735 154.732C516.051 154.732 518.739 152.931 518.739 150.715C518.739 149.114 517.337 147.735 515.312 147.09Z" fill="#F4A386"/>
<path d="M495.671 124.748C493.057 124.532 490.453 125.258 487.811 125.182C485.217 125.108 482.791 124.864 480.221 124.96C473.628 125.204 471.451 129.685 467.854 133.686C465.457 136.213 463.285 138.944 461.362 141.848C460.492 143.272 428.197 190.261 428.197 190.261L424.419 184.298L380.603 211.285L399.019 240.496C408.862 252.244 426.214 251.255 426.214 251.255C467.538 249.431 480.926 167.659 481.545 163.744C482.576 162.143 483.397 160.416 483.987 158.605C484.742 156.207 485.177 153.72 485.28 151.208C485.384 149.109 484.69 147.052 485.338 145.069C486.603 141.204 488.905 137.203 488.697 133.036C491.547 132.684 496.607 132.081 498.798 130.364C501.787 128.019 499.102 125.032 495.671 124.748Z" fill="#F4A386"/>
<path d="M330.435 93.6495C330.065 88.0875 328.377 82.6939 329.241 76.9928C329.828 73.1145 330.957 67.6551 335.65 67.7493C335.735 63.6431 342.437 62.8114 345.359 62.6936C348.399 62.571 351.442 62.9215 354.45 62.6839C356.775 62.5004 358.093 61.501 360.198 60.8632C363.44 59.8818 363.578 62.0509 364.862 63.9028C366.569 66.3669 372.278 63.6493 374.963 64.4472C376.82 64.9371 378.424 66.1093 379.455 67.7299C380.485 69.3505 380.867 71.3003 380.524 73.19C380.123 76.0883 378.218 77.8149 377.277 80.2984C379.714 80.3635 380.671 82.5942 379.966 84.7674C379.087 87.4816 376.05 89.5004 373.581 90.6334C371.827 91.4374 369.962 91.7608 368.122 92.3142C365.477 93.1093 362.991 94.3995 360.27 94.9279C354.472 95.9636 348.588 96.4393 342.698 96.3483C339.296 96.3512 335.91 95.8704 332.643 94.9203C332.119 94.7657 331.611 94.5588 331.127 94.3025C330.539 93.9923 330.584 93.7222 330.435 93.6495Z" fill="#212121"/>
<path d="M424.417 184.297L380.601 211.285L396.661 236.759C402.509 210.528 424.417 184.297 424.417 184.297Z" fill="#F07F57"/>
<path d="M350.729 124.257C346.348 123.626 341.897 123.649 337.522 124.326C324.516 126.335 290.897 132.825 286.588 152.207C281.749 173.977 279.317 256.726 279.317 256.726H405.681L402.188 201.127L425.78 183.263L402.191 150.287C402.191 150.287 390.133 129.936 350.729 124.257Z" fill="#F5F5F5"/>
<path d="M355.73 146.937C373.206 145.984 375.57 136.175 375.528 130.775C367.559 127.598 359.231 125.408 350.729 124.253C346.348 123.622 341.897 123.646 337.522 124.323C333.877 124.886 328.613 125.801 322.83 127.253C322.83 127.253 324.448 148.645 355.73 146.937Z" fill="#424242"/>
<path d="M355.201 140.817C365.307 140.817 368.432 138.393 370 128.731C363.724 126.665 357.274 125.167 350.729 124.253C346.348 123.622 341.896 123.646 337.522 124.323C335.26 124.669 332.563 125.161 329.636 125.826C329.836 136.876 344.104 140.817 355.201 140.817Z" fill="#F4A386"/>
<path d="M359.395 100.306H337.186V131.444H359.395V100.306Z" fill="#F4A386"/>
<path d="M337.187 100.306V109.154C337.187 109.154 348.667 122.964 359.395 123.797V100.306H337.187Z" fill="#F07F57"/>
<path d="M428.194 190.257C428.194 190.257 421.559 195.724 419.337 201.121" stroke="#F07F57" stroke-width="1.5" stroke-linecap="round" stroke-linejoin="round"/>
<path d="M325.673 321.497H279.317L281.519 205.57H325.673V321.497Z" fill="#F4A386"/>
<path d="M281.519 205.568H325.673L281.118 213.009L281.519 205.568Z" fill="#F07F57"/>
<path d="M325.673 205.568L326.943 176.878" stroke="#376F92" stroke-width="1.5" stroke-linecap="round" stroke-linejoin="round"/>
<path d="M402.191 201.124L399.492 176.359" stroke="#424242" stroke-width="1.5" stroke-linecap="round" stroke-linejoin="round"/>
<path d="M348.291 81.5845C346.937 90.1569 334.563 92.5386 334.563 92.5386L332.567 86.494C332 86.1592 331.366 85.951 330.711 85.8834C330.055 85.8159 329.393 85.8907 328.769 86.1027C326.114 87.0723 324.948 90.5593 326.166 93.8877C327.291 96.9634 330.059 98.8236 332.568 98.3201C334.323 109.231 343.108 117.529 353.691 117.529C365.534 117.529 375.138 107.136 375.138 94.3143C375.144 91.1676 374.55 88.0487 373.388 85.1241C364.689 87.661 348.291 81.5845 348.291 81.5845Z" fill="#F4A386"/>
<path d="M334.14 91.2498C334.14 91.2498 325.685 116.251 357.108 120.076C357.108 120.076 370.241 122.264 373.539 114.843C376.7 107.727 374.311 100.715 374.311 100.715C364.751 101.856 355.058 101.018 345.836 98.2515C345.836 98.2515 341.232 93.806 341.074 88.7261L334.14 91.2498Z" fill="#212121"/>
<path d="M488.695 133.036L482.52 134.131" stroke="#F07F57" stroke-width="1.5" stroke-linecap="round" stroke-linejoin="round"/>
<path d="M484.891 145.879C483.462 148.81 480.966 151.082 477.914 152.229" stroke="#F07F57" stroke-width="1.5" stroke-linecap="round" stroke-linejoin="round"/>
<path d="M504.225 142.215C504.225 142.215 508.626 140.109 512.162 140.652" stroke="#F07F57" stroke-width="1.5" stroke-linecap="round" stroke-linejoin="round"/>
<path d="M507.358 148.933C509.823 147.688 512.551 147.055 515.312 147.09" stroke="#F07F57" stroke-width="1.5" stroke-linecap="round" stroke-linejoin="round"/>
<path d="M379.97 84.7674L341.239 84.4945V76.9928L379.97 77.2657V84.7674Z" fill="#16A75C"/>
<path d="M344.445 75.0093L344.535 94.6024C344.613 95.6862 344.97 96.7315 345.571 97.6363C346.173 98.541 346.999 99.2743 347.969 99.7647L350.047 100.817C351.025 101.311 351.856 102.053 352.459 102.968C353.062 103.884 353.415 104.941 353.484 106.034L353.98 113.973C354.062 115.284 354.634 116.517 355.582 117.426C356.53 118.336 357.785 118.856 359.099 118.883L379.862 119.298L380.08 75.0093H344.445Z" stroke="white" stroke-width="1.5" stroke-miterlimit="10"/>
<path d="M341.239 78.9915H328.318V82.1661H341.239V78.9915Z" fill="white"/>
<path opacity="0.5" d="M364.193 75.0093H358.27V118.984H364.193V75.0093Z" fill="white"/>
<path opacity="0.5" d="M369.487 75.0093H366.525V118.984H369.487V75.0093Z" fill="white"/>
<path d="M100.163 244.374L81.7104 321.63H142.833L146.056 310.023L149.103 321.63H209.057L200.045 244.374H100.163Z" fill="#1E88E5"/>
<path d="M201.796 257.279L200.303 244.484H100.421L99.8672 246.815C107.674 247.994 174.331 257.92 201.796 257.279Z" fill="#0D47A1"/>
<path d="M146.314 310.135L143.259 291.084L128.018 287.908" stroke="#0D47A1" stroke-width="1.5" stroke-linecap="round" stroke-linejoin="round"/>
<path d="M188.401 246.853L200.409 321.742" stroke="#0D47A1" stroke-width="1.5" stroke-linecap="round" stroke-linejoin="round"/>
<path d="M179.65 246.853C179.65 246.853 183.508 282.159 194.215 283.113" stroke="#0D47A1" stroke-width="1.5" stroke-linecap="round" stroke-linejoin="round"/>
<path d="M64.9403 179.746C64.9403 179.746 39.7513 227.387 66.8455 246.854C66.8455 246.854 77.4104 251.079 87.368 245.788C97.3255 240.498 108.756 214.1 108.756 214.1L90.1264 195.199L86.048 199.978L87.3638 179.748L64.9403 179.746Z" fill="#F4A386"/>
<path d="M54.4667 214.912C64.5282 205.439 86.8742 187.322 86.8742 187.322L87.368 179.742H64.9403C64.9403 179.742 55.8449 196.956 54.4667 214.912Z" fill="#F07F57"/>
<path d="M90.1292 195.198L86.0507 199.977C86.0507 199.977 98.1247 221.805 98.4094 233.593C102.313 227.347 105.77 220.833 108.756 214.099L90.1292 195.198Z" fill="#F07F57"/>
<path d="M66.3178 172.836C66.3178 172.836 59.5847 163.481 49.3127 168.477C41.3795 172.335 34.6998 168.875 33.5557 172.226C32.4116 175.577 41.0159 178.15 46.9608 177.755C46.9608 177.755 34.2684 188.911 31.9684 197.128C29.6684 205.345 38.8759 198.162 38.8759 198.162C38.8759 198.162 33.2849 204.179 34.9048 206.159C36.8952 208.591 40.8684 207.016 42.8692 204.967C42.8692 204.967 42.2861 208.977 45.9566 208.371C48.2421 207.993 52.9625 204.131 52.9625 204.131C52.9625 204.131 49.3862 208.72 52.0767 209.336C54.7673 209.952 59.0148 208.026 65.6508 200.887C72.2869 193.748 87.8853 179.592 66.3178 172.836Z" fill="#F4A386"/>
<path d="M46.9608 177.755C46.9608 177.755 54.8213 181.72 59.4164 179.62" stroke="#F07F57" stroke-width="1.5" stroke-linecap="round" stroke-linejoin="round"/>
<path d="M38.8759 198.162L48.9305 187.471" stroke="#F07F57" stroke-width="1.5" stroke-linecap="round" stroke-linejoin="round"/>
<path d="M42.8713 204.967C42.9502 204.545 56.3325 190.924 56.3325 190.924" stroke="#F07F57" stroke-width="1.5" stroke-linecap="round" stroke-linejoin="round"/>
<path d="M52.9646 204.131L62.0433 194.24" stroke="#F07F57" stroke-width="1.5" stroke-linecap="round" stroke-linejoin="round"/>
<path d="M47.5031 186.285L65.5178 196.052" stroke="#F07F57" stroke-width="1.5" stroke-linecap="round" stroke-linejoin="round"/>
<path d="M210.79 128.21C206.778 105.317 178.607 109.269 177.019 104.802C175.432 100.334 181.147 93.1301 177.019 78.9659C173.92 68.3318 161.874 67.3525 156.061 67.5249C155.943 66.4043 155.768 65.2906 155.535 64.1882C155.407 63.1494 154.76 57.1982 152.649 58.2897C150.788 59.2517 152.328 62.9575 152.365 64.4604C151.918 62.7033 148.422 54.6302 145.793 57.075C144.888 57.9178 145.047 59.2821 145.555 60.643C139.253 56.1933 130.566 53.4404 122.938 60.1901C114.835 67.3649 116.601 77.4659 118.371 82.8366C118.71 83.8491 118.786 84.931 118.592 85.9809C118.398 87.0308 117.941 88.0143 117.263 88.839C113.984 92.7921 111.61 99.4953 111.61 99.4953C92.56 98.9461 81.1294 120.467 88.1145 141.109C95.0996 161.751 119.868 164.148 119.868 164.148C137.014 181.148 167.812 169.798 167.812 169.798C205.277 174.991 214.802 151.102 210.79 128.21Z" fill="#212121"/>
<path d="M142.2 125.965C142.2 125.965 106.004 128.112 95.421 139.608C84.838 151.104 67.6994 191.065 67.6994 191.065L85.4724 204.302C85.4724 204.302 89.9172 212.345 97.1143 217.637L96.4792 246.7H203.955L200.477 207.697C200.329 204.536 200.383 201.369 200.639 198.216C201.775 184.331 217.87 141.344 167.227 132.435L142.2 125.965Z" fill="#FFB900"/>
<path d="M97.1143 217.635C97.1143 217.635 132.6 207.022 165.128 217.635" stroke="#FF9500" stroke-width="1.5" stroke-linecap="round" stroke-linejoin="round"/>
<path d="M142.729 154.911C157.212 154.911 169.633 144.119 170.077 133.029C169.145 132.806 168.2 132.601 167.229 132.435L142.2 125.965C133.666 126.569 125.191 127.833 116.852 129.744C116.705 130.616 116.63 131.498 116.627 132.382C116.629 143.772 127.966 154.911 142.729 154.911Z" fill="white"/>
<path d="M166.036 132.127L156.756 129.728L158.036 107.281H136.273L132.018 127.002C128.833 127.417 125.153 127.991 121.342 128.758C120.893 130.133 120.664 131.57 120.663 133.017C120.663 142.689 130.826 150.53 143.364 150.53C155.902 150.53 166.065 142.689 166.065 133.017C166.065 132.717 166.055 132.421 166.036 132.127Z" fill="#F4A386"/>
<path d="M132.606 124.289C149.846 123.472 157.954 108.8 157.954 108.8L158.04 107.281H136.273L132.606 124.289Z" fill="#F07F57"/>
<path d="M163.498 93.8455C162.894 93.6546 162.256 93.5924 161.626 93.6629C160.997 93.7334 160.388 93.935 159.841 94.2547C159.835 94.2672 157.997 98.1518 158.036 100.688C158.036 100.688 156.276 96.0311 154.157 95.6073C152.47 95.27 148.115 95.5741 143.646 93.8981C142.441 93.5158 141.304 92.9463 140.276 92.2103L140.26 92.2013C140.164 92.1375 140.072 92.0681 139.983 91.9936C134.997 88.2773 132.602 81.5311 132.602 81.5311L126.467 86.5868C125.421 87.4478 124.569 88.5197 123.966 89.7325C123.363 90.9454 123.023 92.2719 122.967 93.6252C122.94 94.2963 122.936 95.0339 122.936 95.8996C122.936 108.279 131.56 118.315 142.198 118.315C149.713 118.315 156.219 113.306 159.392 106C162.07 106.905 165.161 104.916 166.294 101.558C167.427 98.2009 166.177 94.7499 163.498 93.8455Z" fill="#F4A386"/>
<path d="M154.159 95.6073C152.471 95.27 148.116 95.5741 143.647 93.8981C142.442 93.5158 141.305 92.9463 140.277 92.2103L140.262 92.2013C140.166 92.1375 140.073 92.0681 139.985 91.9935C134.998 88.2773 132.604 81.5311 132.604 81.5311L128.994 84.5091C131.21 87.9636 136.252 94.7658 141.618 94.921C146.484 95.0595 151.591 95.4473 154.387 95.6828C154.312 95.6527 154.236 95.6275 154.159 95.6073Z" fill="#F07F57"/>
<path d="M166.715 172.245C157.666 184.68 149.366 196.075 149.366 196.075L187.658 225.256" stroke="#063D51" stroke-width="1.5" stroke-linecap="round" stroke-linejoin="round"/>
<path d="M65.058 172.651V172.645C65.058 171.723 64.7438 170.828 64.1672 170.108C63.5907 169.388 62.7861 168.886 61.8861 168.684C60.986 168.483 60.0441 168.594 59.2155 168.999C58.387 169.404 57.7211 170.08 57.3277 170.914C56.9025 170.792 56.4647 170.72 56.0229 170.7V170.686C56.0229 169.711 55.6355 168.776 54.946 168.086C54.2565 167.397 53.3213 167.009 52.3461 167.009C51.371 167.009 50.4358 167.397 49.7463 168.086C49.0567 168.776 48.6694 169.711 48.6694 170.686C48.6694 170.737 48.6825 170.784 48.6846 170.835C48.1305 170.673 47.547 170.637 46.9774 170.732C46.4078 170.826 45.8668 171.047 45.3945 171.379C44.9222 171.711 44.5308 172.146 44.2494 172.65C43.9679 173.154 43.8037 173.715 43.7689 174.291C43.734 174.867 43.8295 175.444 44.0481 175.978C44.2668 176.513 44.603 176.991 45.0318 177.378C45.4607 177.764 45.9711 178.049 46.5252 178.211C47.0793 178.373 47.6628 178.409 48.2324 178.314C47.9249 178.844 47.7311 179.431 47.6633 180.04C47.5955 180.648 47.6551 181.264 47.8385 181.848C48.0219 182.432 48.3249 182.971 48.7283 183.432C49.1316 183.892 49.6265 184.264 50.1813 184.522C50.7362 184.781 51.3388 184.921 51.9508 184.934C52.5628 184.946 53.1707 184.832 53.7359 184.596C54.3011 184.361 54.811 184.011 55.2333 183.568C55.6555 183.125 55.9808 182.598 56.1884 182.022C56.2528 182.018 56.3179 182.014 56.3823 182.007C56.8978 182.947 57.6936 183.704 58.659 184.171C59.6244 184.638 60.7113 184.792 61.7685 184.613C62.8257 184.433 63.8006 183.928 64.5577 183.169C65.3147 182.409 65.8161 181.433 65.9922 180.375C66.8986 180.122 67.6844 179.553 68.2073 178.771C68.7302 177.989 68.9555 177.045 68.8423 176.111C68.7292 175.177 68.2851 174.315 67.5905 173.68C66.896 173.046 65.997 172.681 65.0566 172.652L65.058 172.651Z" fill="#BBDEFB"/>
<path d="M57.6553 161.437C58.1298 161.437 58.5936 161.296 58.9881 161.033C59.3826 160.769 59.6901 160.394 59.8717 159.956C60.0532 159.518 60.1008 159.035 60.0082 158.57C59.9156 158.104 59.6871 157.677 59.3516 157.341C59.0161 157.006 58.5887 156.777 58.1233 156.685C57.6579 156.592 57.1756 156.64 56.7372 156.821C56.2988 157.003 55.9242 157.31 55.6606 157.705C55.397 158.099 55.2563 158.563 55.2563 159.038C55.2563 159.674 55.509 160.284 55.9589 160.734C56.4088 161.184 57.019 161.437 57.6553 161.437Z" fill="#BBDEFB"/>
<path d="M48.3916 162.866C48.6742 162.866 48.9505 162.782 49.1854 162.625C49.4204 162.468 49.6035 162.245 49.7116 161.984C49.8198 161.722 49.8481 161.435 49.7929 161.158C49.7378 160.881 49.6017 160.626 49.4019 160.427C49.2021 160.227 48.9475 160.091 48.6704 160.036C48.3932 159.98 48.106 160.009 47.8449 160.117C47.5838 160.225 47.3607 160.408 47.2037 160.643C47.0467 160.878 46.9629 161.154 46.9629 161.437C46.9629 161.816 47.1134 162.179 47.3814 162.447C47.6493 162.715 48.0127 162.866 48.3916 162.866Z" fill="#BBDEFB"/>
<path d="M42.2646 187.471C42.3419 187.125 42.3502 186.767 42.2891 186.417C42.228 186.068 42.0986 185.733 41.9083 185.434C41.7181 185.134 41.4707 184.875 41.1802 184.671C40.8898 184.467 40.5621 184.322 40.2157 184.245C39.8693 184.168 39.5111 184.159 39.1615 184.221C38.8119 184.282 38.4778 184.411 38.1782 184.601C37.8786 184.792 37.6194 185.039 37.4155 185.329C37.2115 185.62 37.0667 185.948 36.9894 186.294C36.97 186.294 36.9513 186.288 36.9319 186.288C36.4019 186.284 35.879 186.41 35.4084 186.654C34.9378 186.898 34.5337 187.253 34.2309 187.688C33.9281 188.123 33.7357 188.625 33.6704 189.151C33.6051 189.677 33.6687 190.211 33.8559 190.707C34.0431 191.203 34.3482 191.646 34.7449 191.998C35.1415 192.349 35.6177 192.599 36.1325 192.726C36.6473 192.852 37.1851 192.851 37.6995 192.723C38.2139 192.596 38.6894 192.344 39.0851 191.992C39.2937 192.574 39.6583 193.089 40.1393 193.478C40.6202 193.868 41.199 194.118 41.8124 194.201C42.4257 194.285 43.0502 194.198 43.6176 193.95C44.1849 193.703 44.6734 193.304 45.0297 192.798C45.3859 192.292 45.5963 191.697 45.6378 191.08C45.6794 190.462 45.5504 189.845 45.2651 189.296C44.9798 188.746 44.5491 188.286 44.0199 187.965C43.4908 187.643 42.8836 187.474 42.2646 187.474V187.471Z" fill="#BBDEFB"/>
<path d="M44.7502 183.504C45.7879 183.504 46.6291 182.662 46.6291 181.625C46.6291 180.587 45.7879 179.746 44.7502 179.746C43.7125 179.746 42.8713 180.587 42.8713 181.625C42.8713 182.662 43.7125 183.504 44.7502 183.504Z" fill="#BBDEFB"/>
<path d="M68.8103 165.723C68.5912 165.723 68.3771 165.788 68.195 165.91C68.0128 166.031 67.8708 166.204 67.7868 166.406C67.7029 166.609 67.6807 166.831 67.7232 167.046C67.7657 167.261 67.8709 167.458 68.0255 167.613C68.1801 167.769 68.3772 167.874 68.592 167.917C68.8067 167.961 69.0294 167.939 69.2319 167.856C69.4344 167.773 69.6077 167.631 69.7299 167.449C69.8521 167.267 69.9177 167.054 69.9183 166.835C69.9188 166.689 69.8905 166.544 69.835 166.409C69.7795 166.275 69.698 166.152 69.595 166.049C69.4921 165.946 69.3698 165.864 69.2351 165.808C69.1004 165.752 68.9561 165.723 68.8103 165.723Z" fill="#BBDEFB"/>
<path d="M50.6854 193.822C50.3382 193.822 49.9988 193.925 49.7101 194.118C49.4214 194.31 49.1964 194.584 49.0635 194.905C48.9306 195.226 48.8958 195.579 48.9635 195.919C49.0311 196.26 49.1983 196.572 49.4438 196.818C49.6893 197.063 50.002 197.231 50.3425 197.298C50.683 197.366 51.0359 197.331 51.3566 197.198C51.6773 197.065 51.9514 196.84 52.1442 196.552C52.337 196.263 52.4398 195.923 52.4396 195.576C52.4395 195.111 52.2546 194.665 51.9256 194.336C51.5967 194.007 51.1506 193.822 50.6854 193.822Z" fill="#BBDEFB"/>
<path d="M28.9648 192.12C28.5761 192.12 28.1961 192.236 27.873 192.452C27.5499 192.668 27.2981 192.975 27.1494 193.334C27.0008 193.693 26.9619 194.088 27.0379 194.47C27.1138 194.851 27.301 195.201 27.5759 195.476C27.8508 195.751 28.201 195.938 28.5823 196.014C28.9635 196.089 29.3587 196.05 29.7178 195.902C30.0769 195.753 30.3838 195.501 30.5998 195.178C30.8157 194.854 30.9309 194.475 30.9309 194.086C30.9309 193.828 30.8801 193.572 30.7813 193.334C30.6824 193.095 30.5376 192.878 30.355 192.696C30.1724 192.513 29.9557 192.368 29.7171 192.27C29.4786 192.171 29.2229 192.12 28.9648 192.12Z" fill="#BBDEFB"/>
<path d="M38.2852 197.331C38.0175 197.331 37.7559 197.411 37.5334 197.559C37.3108 197.708 37.1374 197.919 37.0349 198.167C36.9325 198.414 36.9057 198.686 36.9579 198.949C37.0102 199.211 37.139 199.452 37.3283 199.641C37.5175 199.831 37.7587 199.96 38.0212 200.012C38.2837 200.064 38.5558 200.037 38.8031 199.935C39.0503 199.832 39.2617 199.659 39.4104 199.436C39.5591 199.214 39.6384 198.952 39.6384 198.685C39.6384 198.326 39.4959 197.981 39.2421 197.728C38.9883 197.474 38.6441 197.331 38.2852 197.331Z" fill="#BBDEFB"/>
<path d="M148.845 204.3L104.946 178.688C104.946 178.688 97.9606 165.723 91.7691 163.977C85.5777 162.231 76.5295 159.532 74.4657 157.627C74.4657 157.627 70.338 156.515 70.4966 161.754C70.6552 166.992 79.2277 167.945 79.8627 170.644C79.8627 170.644 52.0816 171.597 51.7637 174.613C51.4458 177.629 53.2873 179.82 62.5592 180.916C62.5592 180.916 49.3827 180.33 48.589 183.346C47.7954 186.362 53.3517 188.743 58.273 188.585C58.273 188.585 53.3517 188.585 53.5103 191.286C53.6689 193.987 63.5115 194.619 63.5115 194.619C63.5115 194.619 64.6196 198.428 72.2432 198.905C79.8669 199.383 92.4042 200.335 94.3094 201.287C94.3094 201.287 123.837 241.769 143.364 246.531C143.364 246.531 159.874 248.278 168.129 243.674C176.383 239.069 187.659 225.258 187.659 225.258L153.686 199.223L148.845 204.3Z" fill="#F4A386"/>
<path d="M175.437 238.161C179.789 234.133 183.871 229.821 187.655 225.255L153.683 199.22C153.683 199.22 177.813 223.35 175.437 238.161Z" fill="#F07F57"/>
<path d="M62.5592 180.914L74.0688 181.678" stroke="#F07F57" stroke-width="1.5" stroke-linecap="round" stroke-linejoin="round"/>
<path d="M57.5043 188.586H73.4337" stroke="#F07F57" stroke-width="1.5" stroke-linecap="round" stroke-linejoin="round"/>
<path d="M63.5115 194.616L74.0688 195.197" stroke="#F07F57" stroke-width="1.5" stroke-linecap="round" stroke-linejoin="round"/>
<path d="M79.8627 170.644C79.8627 170.644 84.2258 171.041 84.07 169.215" stroke="#F07F57" stroke-width="1.5" stroke-linecap="round" stroke-linejoin="round"/>
<path d="M94.3081 201.284C94.3081 201.284 99.309 201.522 100.42 200.41" stroke="#F07F57" stroke-width="1.5" stroke-linecap="round" stroke-linejoin="round"/>
<path d="M80.2928 173.079C80.1534 173.082 80.0144 173.096 79.8773 173.121C79.9744 172.685 79.9786 172.233 79.8898 171.795C79.8009 171.357 79.6209 170.943 79.3615 170.579C79.1021 170.215 78.7691 169.91 78.3841 169.683C77.999 169.457 77.5706 169.314 77.1267 169.263C76.6827 169.213 76.2331 169.256 75.8071 169.391C75.3811 169.526 74.9881 169.749 74.6539 170.045C74.3196 170.342 74.0514 170.705 73.8667 171.112C73.682 171.519 73.585 171.96 73.582 172.407C73.582 172.487 73.5993 172.562 73.6055 172.641C72.9668 172.859 72.3941 173.236 71.9419 173.737C71.4897 174.237 71.1728 174.845 71.0213 175.503C70.8697 176.161 70.8886 176.846 71.076 177.494C71.2634 178.143 71.6133 178.732 72.0923 179.207C72.5714 179.683 73.1639 180.028 73.8136 180.21C74.4634 180.392 75.1489 180.406 75.8052 180.249C76.4616 180.092 77.0671 179.77 77.5643 179.314C78.0615 178.858 78.4341 178.282 78.6466 177.642C78.9652 177.908 79.3431 178.093 79.7484 178.181C80.1536 178.27 80.5743 178.26 80.9747 178.151C81.3751 178.043 81.7435 177.839 82.0486 177.558C82.3538 177.277 82.5867 176.927 82.7276 176.537C82.8686 176.146 82.9134 175.728 82.8583 175.317C82.8032 174.906 82.6498 174.514 82.4111 174.175C82.1724 173.835 81.8554 173.559 81.487 173.368C81.1187 173.177 80.7097 173.078 80.2949 173.079H80.2928Z" fill="#BBDEFB"/>
<path d="M42.3027 151.179C42.3027 153.902 40.3975 156.109 37.6744 156.109C34.9512 156.109 33.046 153.902 33.046 151.179C33.046 148.455 37.6744 143.029 37.6744 143.029C37.6744 143.029 42.3027 148.455 42.3027 151.179Z" fill="#1E88E5"/>
<path d="M56.453 159.008C56.482 159.475 56.4151 159.942 56.2564 160.382C56.0977 160.822 55.8506 161.225 55.5304 161.566C55.2102 161.906 54.8235 162.178 54.3943 162.364C53.9652 162.549 53.5025 162.645 53.0349 162.645C52.5673 162.645 52.1046 162.549 51.6754 162.364C51.2463 162.178 50.8596 161.906 50.5394 161.566C50.2191 161.225 49.9721 160.822 49.8134 160.382C49.6547 159.942 49.5878 159.475 49.6168 159.008C49.6168 157 53.0352 152.989 53.0352 152.989C53.0352 152.989 56.453 156.997 56.453 159.008Z" fill="#1E88E5"/>
<path d="M53.6862 137.703C53.7152 138.17 53.6483 138.637 53.4896 139.077C53.3309 139.517 53.0839 139.92 52.7636 140.26C52.4434 140.601 52.0568 140.873 51.6276 141.058C51.1984 141.244 50.7357 141.34 50.2681 141.34C49.8005 141.34 49.3379 141.244 48.9087 141.058C48.4795 140.873 48.0929 140.601 47.7726 140.26C47.4524 139.92 47.2053 139.517 47.0466 139.077C46.888 138.637 46.8211 138.17 46.85 137.703C46.85 135.694 50.2678 131.684 50.2678 131.684C50.2678 131.684 53.6862 135.692 53.6862 137.703Z" fill="#1E88E5"/>
<path d="M132.606 81.5318C132.606 81.5318 131.143 71.7418 126.697 70.4717" stroke="#440A10" stroke-width="1.5" stroke-linecap="round" stroke-linejoin="round"/>
<path d="M99.1005 169.934L100.421 161.437" stroke="#FF9500" stroke-width="1.5" stroke-linecap="round" stroke-linejoin="round"/>
<path d="M323.376 321.741H199.452L203.677 287.742H320.56L323.376 321.741Z" fill="#376F92"/>
<path d="M320.56 287.742H203.678L201.289 306.961C205.846 302.798 320.56 298.541 320.56 298.541L321.398 297.87L320.56 287.742Z" fill="#063D51"/>
<path d="M265.224 298.54H255.831V321.282H265.224V298.54Z" stroke="#063D51" stroke-width="1.5" stroke-linecap="round" stroke-linejoin="round"/>
<path d="M348.289 188.996C345.968 185.996 343.833 182.858 341.893 179.6C333.652 165.854 316.026 155.764 300.71 152.999C283.812 149.947 266.907 145.683 266.907 145.683H257.987C257.987 145.683 241.089 149.947 224.184 152.999C208.868 155.764 191.24 165.854 183.001 179.6C181.062 182.859 178.926 185.996 176.605 188.996C168.648 199.212 153.001 222.714 164.324 237.272C164.324 237.272 178.878 252.061 200.944 242.202V298.54H323.95V242.199C346.017 252.058 360.571 237.269 360.571 237.269C371.893 222.714 356.246 199.212 348.289 188.996Z" fill="#16A75C"/>
<path d="M174.535 239.736C189.12 239.736 200.944 227.913 200.944 213.328C200.944 198.743 189.12 186.919 174.535 186.919C159.95 186.919 148.127 198.743 148.127 213.328C148.127 227.913 159.95 239.736 174.535 239.736Z" fill="#16A75C"/>
<path d="M295.448 152.011C280.471 149.102 266.907 145.683 266.907 145.683H257.987C257.987 145.683 246.111 148.678 232.315 151.445C234.302 158.242 238.423 164.219 244.07 168.492C249.718 172.764 256.59 175.105 263.671 175.169C270.752 175.232 277.666 173.015 283.388 168.844C289.111 164.673 293.339 158.771 295.448 152.011Z" fill="white"/>
<path d="M288.159 150.539C276.341 148.063 266.907 145.683 266.907 145.683H257.987C257.987 145.683 250.124 147.666 239.764 149.895C241.264 155.113 244.403 159.709 248.718 163.004C253.033 166.298 258.294 168.116 263.723 168.188C269.151 168.261 274.459 166.583 278.86 163.404C283.261 160.226 286.521 155.715 288.159 150.539Z" fill="#F4A386"/>
<path d="M278.999 154.387H249.113L250.522 115.968H277.591L278.999 154.387Z" fill="#F4A386"/>
<path d="M250.522 115.968L250.229 123.949C250.229 123.949 258.222 135.177 278.295 135.177L277.591 115.968H250.522Z" fill="#F07F57"/>
<path d="M241.789 110.422C244.925 110.422 247.467 107.236 247.467 103.306C247.467 99.3764 244.925 96.1904 241.789 96.1904C238.653 96.1904 236.112 99.3764 236.112 103.306C236.112 107.236 238.653 110.422 241.789 110.422Z" fill="#F4A386"/>
<path d="M283.691 110.422C286.827 110.422 289.369 107.236 289.369 103.306C289.369 99.3764 286.827 96.1904 283.691 96.1904C280.556 96.1904 278.014 99.3764 278.014 103.306C278.014 107.236 280.556 110.422 283.691 110.422Z" fill="#F4A386"/>
<path d="M288.592 78.0891C288.113 76.3363 287.362 74.6697 286.365 73.1505C285.494 71.9468 284.01 71.0638 283.211 70.034C283.668 69.589 283.984 69.018 284.116 68.3936C284.249 67.7692 284.193 67.1195 283.955 66.5269C282.821 63.0198 279.495 62.9256 276.245 62.7629C274.983 62.7023 273.718 62.7537 272.465 62.9166C272.322 62.0502 271.657 61.4553 270.117 61.438C267.135 61.4048 264.792 62.6888 262.582 64.3613C263.221 61.9373 262.562 59.2066 259.62 61.4525C258.105 62.6771 256.85 64.192 255.928 65.9084C255.006 67.6248 254.437 69.508 254.253 71.4475C252.411 70.5992 250.386 70.2277 248.363 70.3671C245.951 70.4689 243.389 72.638 241.878 74.4733C239.128 77.8156 239.033 82.1835 238.831 86.3063C238.61 90.792 239.05 95.038 240.939 99.1463C241.956 101.362 243.37 103.54 244.491 105.579L280.833 106.591C283.703 104.966 284.333 103.95 285.631 101.882C287.04 99.6331 286.982 96.3802 287.104 93.7416C287.178 92.1134 286.861 91.4984 287.636 90.1936C289.656 86.7897 289.742 81.8033 288.592 78.0891Z" fill="#212121"/>
<path d="M266.438 92.317C255.45 94.2216 252.804 85.2751 252.804 85.2751C244.137 90.6771 242.729 96.1905 241.824 100.204C241.803 100.702 241.79 101.203 241.79 101.707C241.79 117.2 251.459 129.759 263.386 129.759C275.314 129.759 284.982 117.2 284.982 101.707C284.984 99.4711 284.775 97.2396 284.359 95.0422C284.152 93.9504 283.586 92.9587 282.752 92.2243C281.918 91.4899 280.863 91.0546 279.754 90.9873C276.634 90.8121 272.232 91.3128 266.438 92.317Z" fill="#F4A386"/>
<path d="M284.61 96.5546C284.536 96.0456 284.453 95.54 284.359 95.0414C284.152 93.9495 283.586 92.9579 282.752 92.2235C281.918 91.489 280.863 91.0537 279.754 90.9865C276.637 90.8113 272.232 91.312 266.438 92.3162C255.45 94.2207 252.804 85.2743 252.804 85.2743C252.768 85.2965 252.735 85.3186 252.699 85.3436C253.091 87.2709 253.892 89.0919 255.047 90.6838C257.17 93.6213 260.33 95.6421 263.888 96.3372C268.488 97.1835 273.118 95.8219 277.749 95.8371C280.055 95.8302 282.355 96.0707 284.61 96.5546Z" fill="#F07F57"/>
<path d="M232.762 110.436C234.909 108.266 232.591 106.109 232.591 106.109C229.554 103.996 230.346 95.1932 224.36 93.4348C220.699 92.3586 215.331 97.0077 211.709 100.784L210.216 100.067C209.2 99.4168 208.019 99.0715 206.813 99.0715C205.606 99.0715 204.425 99.4168 203.409 100.067C196.953 96.311 192.728 99.5972 192.728 99.5972H189.793C182.282 100.301 184.629 106.874 180.873 112.038C177.118 117.203 176.765 120.372 174.888 134.457C173.01 148.542 141.319 188.684 149.066 212.157C156.813 235.631 176.296 232.58 176.296 232.58C203.174 227.416 202.118 196.547 203.526 181.406C204.934 166.265 209.513 141.968 209.513 141.968C219.019 143.377 225.827 132.579 227.001 126.828C228.175 121.077 232.165 117.32 233.808 115.678C235.234 114.249 235.418 111.942 232.762 110.436ZM223.01 114.735C222.188 117.318 217.377 118.139 217.377 118.139L218.709 108.851C218.678 109.003 218.667 108.891 218.737 107.931L221.314 105.19L223.303 108.221C223.757 109.374 224.518 110.38 225.504 111.13C224.369 112.09 223.509 113.334 223.01 114.735Z" fill="#F4A386"/>
<path d="M192.728 99.5944C192.728 99.5944 199.007 101.179 198.831 106.109C198.655 111.038 199.247 126.515 191.341 124.594C185.187 123.098 186.419 116.848 186.77 112.975" stroke="#F07F57" stroke-width="1.5" stroke-linecap="round" stroke-linejoin="round"/>
<path d="M197.499 119.838C197.499 119.838 199.092 123.362 204.112 123.098C209.132 122.834 210.01 116.76 209.834 113.151C209.658 109.542 209.657 102.646 203.408 100.062" stroke="#F07F57" stroke-width="1.5" stroke-linecap="round" stroke-linejoin="round"/>
<path d="M208.909 119.409C208.909 119.409 209.571 121.955 212.916 122.131C216.261 122.308 217.377 118.14 217.377 118.14" stroke="#F07F57" stroke-width="1.5" stroke-linecap="round" stroke-linejoin="round"/>
<path d="M211.709 100.779C211.709 100.779 218.835 103.502 218.737 107.929" stroke="#F07F57" stroke-width="1.5" stroke-linecap="round" stroke-linejoin="round"/>
<path d="M209.513 141.966C209.513 141.966 205.433 140.442 204.377 139.031C204.377 139.031 195.574 141.496 192.141 139.911" stroke="#F07F57" stroke-width="1.5" stroke-linecap="round" stroke-linejoin="round"/>
<path d="M206.354 122.482C206.354 122.482 208.154 126.971 206.354 131.109" stroke="#F07F57" stroke-width="1.5" stroke-linecap="round" stroke-linejoin="round"/>
<path d="M225.504 111.13C225.504 111.13 229.016 108.688 232.762 110.437" stroke="#F07F57" stroke-width="1.5" stroke-linecap="round" stroke-linejoin="round"/>
<path d="M221.314 105.19C220.836 103.893 220.499 102.548 220.31 101.179" stroke="#F07F57" stroke-width="1.5" stroke-linecap="round" stroke-linejoin="round"/>
<path d="M200.944 242.199C203.671 238.366 205.973 234.249 207.81 229.919" stroke="#006430" stroke-width="1.5" stroke-linecap="round" stroke-linejoin="round"/>
<path d="M165.128 238.006C165.128 238.006 196.484 244.784 204.583 210.276" stroke="#006430" stroke-width="1.5" stroke-linecap="round" stroke-linejoin="round"/>
<path d="M350.401 239.736C364.986 239.736 376.81 227.913 376.81 213.328C376.81 198.743 364.986 186.919 350.401 186.919C335.816 186.919 323.993 198.743 323.993 213.328C323.993 227.913 335.816 239.736 350.401 239.736Z" fill="#16A75C"/>
<path d="M291.128 115.674C292.772 117.318 296.762 121.076 297.936 126.824C299.11 132.572 305.917 143.376 315.424 141.965C315.424 141.965 320.002 166.261 321.41 181.402C322.818 196.544 321.763 227.412 348.641 232.577C348.641 232.577 368.124 235.628 375.871 212.154C383.618 188.68 351.927 148.538 350.049 134.453C348.172 120.369 347.819 117.2 344.063 112.035C340.306 106.87 342.655 100.298 335.143 99.5937H332.208C332.208 99.5937 327.984 96.3075 321.528 100.063C320.511 99.4134 319.33 99.068 318.124 99.068C316.917 99.068 315.736 99.4134 314.72 100.063L313.225 100.779C309.603 97.0028 304.235 92.3537 300.574 93.4299C294.588 95.1911 295.38 103.993 292.344 106.104C292.344 106.104 290.022 108.261 292.172 110.431C289.519 111.942 289.703 114.249 291.128 115.674ZM299.432 111.13C300.418 110.38 301.179 109.374 301.633 108.221L303.622 105.19L306.2 107.931C306.269 108.891 306.259 109.003 306.228 108.851L307.56 118.139C307.56 118.139 302.748 117.318 301.926 114.735C301.428 113.334 300.567 112.09 299.432 111.13Z" fill="#F4A386"/>
<path d="M332.208 99.5944C332.208 99.5944 325.929 101.179 326.105 106.109C326.281 111.038 325.689 126.515 333.596 124.594C339.75 123.098 338.518 116.848 338.166 112.975" stroke="#F07F57" stroke-width="1.5" stroke-linecap="round" stroke-linejoin="round"/>
<path d="M327.437 119.838C327.437 119.838 325.844 123.362 320.823 123.098C315.803 122.834 314.926 116.76 315.102 113.151C315.277 109.542 315.277 102.646 321.528 100.062" stroke="#F07F57" stroke-width="1.5" stroke-linecap="round" stroke-linejoin="round"/>
<path d="M316.027 119.409C316.027 119.409 315.365 121.955 312.02 122.132C308.675 122.308 307.56 118.14 307.56 118.14" stroke="#F07F57" stroke-width="1.5" stroke-linecap="round" stroke-linejoin="round"/>
<path d="M313.225 100.779C313.225 100.779 306.098 103.502 306.197 107.929" stroke="#F07F57" stroke-width="1.5" stroke-linecap="round" stroke-linejoin="round"/>
<path d="M315.424 141.966C315.424 141.966 319.503 140.442 320.56 139.031C320.56 139.031 329.362 141.496 332.796 139.911" stroke="#F07F57" stroke-width="1.5" stroke-linecap="round" stroke-linejoin="round"/>
<path d="M318.583 122.482C318.583 122.482 316.782 126.971 318.583 131.109" stroke="#F07F57" stroke-width="1.5" stroke-linecap="round" stroke-linejoin="round"/>
<path d="M299.432 111.13C299.432 111.13 295.921 108.688 292.175 110.437" stroke="#F07F57" stroke-width="1.5" stroke-linecap="round" stroke-linejoin="round"/>
<path d="M303.622 105.19C304.101 103.893 304.437 102.548 304.626 101.179" stroke="#F07F57" stroke-width="1.5" stroke-linecap="round" stroke-linejoin="round"/>
<path d="M323.993 242.199C321.266 238.366 318.964 234.249 317.126 229.919" stroke="#006430" stroke-width="1.5" stroke-linecap="round" stroke-linejoin="round"/>
<path d="M359.809 238.006C359.809 238.006 328.453 244.784 320.354 210.276" stroke="#006430" stroke-width="1.5" stroke-linecap="round" stroke-linejoin="round"/>
<path d="M249.113 147.808L248.708 151.098" stroke="#F07F57" stroke-width="1.5" stroke-linecap="round" stroke-linejoin="round"/>
<path d="M278.68 145.682L278.902 151.097" stroke="#F07F57" stroke-width="1.5" stroke-linecap="round" stroke-linejoin="round"/>
<path d="M323.95 244.938H200.944V272.566H323.95V244.938Z" fill="white"/>
<path d="M243.11 108.837L232.762 110.435L247.467 120.662" stroke="#2A878E" stroke-width="1.5" stroke-linecap="round" stroke-linejoin="round"/>
<path d="M282.371 108.837L292.72 110.435L278.014 120.663" stroke="#2A878E" stroke-width="1.5" stroke-linecap="round" stroke-linejoin="round"/>
<path d="M241.79 108.251C244.954 119.776 250.016 129.759 263.386 129.759C277.001 129.759 281.818 119.776 284.982 108.251L263.386 106.589L241.79 108.251Z" fill="#89C4C0"/>
<path d="M280.704 107.922C277.712 118.824 273.288 128.668 261.291 129.669C261.967 129.725 262.662 129.761 263.386 129.761C277.001 129.761 281.818 119.778 284.982 108.253L280.704 107.922Z" fill="#2A878E"/>
<path d="M249.113 114.735H279.818" stroke="#2A878E" stroke-width="1.5" stroke-linecap="round" stroke-linejoin="round"/>
<path d="M252.699 121.661H277.748" stroke="#2A878E" stroke-width="1.5" stroke-linecap="round" stroke-linejoin="round"/>
</g>
<defs>
<clipPath id="clip0">
<rect width="554" height="320" fill="white"/>
</clipPath>
</defs>
</svg>
