<svg width="554" height="320" viewBox="0 0 554 320" fill="none" xmlns="http://www.w3.org/2000/svg">
<g opacity="0.81">
<path opacity="0.58" d="M554 277.42H0V290.002H554V277.42Z" fill="#96AFCE"/>
<g opacity="0.65">
<path opacity="0.65" d="M501.412 46.3247H318.077C311.111 46.3247 305.463 52.0331 305.463 59.0748V165.025C305.463 172.066 311.111 177.775 318.077 177.775H501.412C508.378 177.775 514.026 172.066 514.026 165.025V59.0748C514.026 52.0331 508.378 46.3247 501.412 46.3247Z" fill="#7896B9"/>
<path opacity="0.65" d="M316.801 46.3247H489.969V177.775H318.826C315.282 177.775 311.884 176.352 309.378 173.819C306.872 171.286 305.464 167.85 305.463 164.268V57.7853C305.463 54.7457 306.658 51.8307 308.784 49.6814C310.911 47.5322 313.794 46.3247 316.801 46.3247Z" fill="#96AFCE"/>
<g opacity="0.65">
<path opacity="0.65" d="M516.479 113.29H304.646V116.597H516.479V113.29Z" fill="#F2F7FF"/>
<path opacity="0.65" d="M375.62 116.804H373.143V178.188H375.62V116.804Z" fill="#C5D2E4"/>
<path opacity="0.65" d="M461.499 46.1184H459.022V113.704H461.499V46.1184Z" fill="#F2F7FF"/>
<path opacity="0.65" d="M384.185 133.545V156.487" stroke="#C5D2E4" stroke-width="0.831" stroke-miterlimit="10" stroke-linecap="round"/>
<path opacity="0.65" d="M365.783 133.545V156.487" stroke="#C5D2E4" stroke-width="0.831" stroke-miterlimit="10" stroke-linecap="round"/>
<path opacity="0.65" d="M467.61 71.54V94.4821" stroke="#C5D2E4" stroke-width="0.831" stroke-miterlimit="10" stroke-linecap="round"/>
<path opacity="0.65" d="M452.274 71.54V94.4821" stroke="#C5D2E4" stroke-width="0.831" stroke-miterlimit="10" stroke-linecap="round"/>
</g>
<g opacity="0.65">
<g opacity="0.46">
<path opacity="0.46" d="M360.994 176.524H315.912C315.912 176.235 315.968 175.948 316.078 175.68C316.188 175.413 316.348 175.17 316.551 174.965C316.753 174.76 316.994 174.598 317.258 174.487C317.523 174.376 317.807 174.319 318.093 174.319H358.813C359.1 174.319 359.383 174.376 359.648 174.487C359.913 174.598 360.153 174.76 360.356 174.965C360.558 175.17 360.719 175.413 360.828 175.68C360.938 175.948 360.994 176.235 360.994 176.524Z" fill="#C5D2E4"/>
<g opacity="0.46">
<path opacity="0.46" d="M321.73 154.012H326.411V168.996C326.411 169.624 326.165 170.225 325.726 170.669C325.287 171.112 324.692 171.362 324.071 171.362C323.764 171.362 323.459 171.301 323.175 171.182C322.891 171.063 322.633 170.889 322.416 170.669C322.198 170.45 322.026 170.189 321.908 169.902C321.79 169.615 321.73 169.307 321.73 168.996V154.012Z" fill="#C5D2E4"/>
<path opacity="0.46" d="M326.408 153.582H321.658C321.423 153.582 321.232 153.775 321.232 154.013V154.728C321.232 154.966 321.423 155.159 321.658 155.159H326.408C326.644 155.159 326.835 154.966 326.835 154.728V154.013C326.835 153.775 326.644 153.582 326.408 153.582Z" fill="#C5D2E4"/>
</g>
<g opacity="0.46">
<path opacity="0.46" d="M331.749 154.012H336.43V168.996C336.43 169.624 336.184 170.225 335.745 170.669C335.306 171.112 334.711 171.362 334.09 171.362C333.783 171.362 333.479 171.301 333.194 171.182C332.91 171.063 332.652 170.889 332.435 170.669C332.217 170.45 332.045 170.189 331.927 169.902C331.809 169.615 331.749 169.307 331.749 168.996V154.012Z" fill="#C5D2E4"/>
<path opacity="0.46" d="M336.426 153.582H331.677C331.441 153.582 331.25 153.775 331.25 154.013V154.728C331.25 154.966 331.441 155.159 331.677 155.159H336.426C336.662 155.159 336.853 154.966 336.853 154.728V154.013C336.853 153.775 336.662 153.582 336.426 153.582Z" fill="#C5D2E4"/>
</g>
<g opacity="0.46">
<path opacity="0.46" d="M340.746 154.012H345.427V168.996C345.427 169.624 345.181 170.225 344.742 170.669C344.303 171.112 343.708 171.362 343.087 171.362C342.78 171.362 342.475 171.301 342.191 171.182C341.907 171.063 341.649 170.889 341.432 170.669C341.214 170.45 341.042 170.189 340.924 169.902C340.806 169.615 340.746 169.307 340.746 168.996V154.012Z" fill="#C5D2E4"/>
<path opacity="0.46" d="M345.424 153.582H340.674C340.438 153.582 340.247 153.775 340.247 154.013V154.728C340.247 154.966 340.438 155.159 340.674 155.159H345.424C345.66 155.159 345.851 154.966 345.851 154.728V154.013C345.851 153.775 345.66 153.582 345.424 153.582Z" fill="#C5D2E4"/>
</g>
<g opacity="0.46">
<path opacity="0.46" d="M350.356 154.012H355.038V168.996C355.038 169.624 354.791 170.225 354.352 170.669C353.913 171.112 353.318 171.362 352.698 171.362C352.39 171.362 352.086 171.301 351.802 171.182C351.518 171.063 351.26 170.889 351.042 170.669C350.825 170.45 350.652 170.189 350.535 169.902C350.417 169.615 350.356 169.307 350.356 168.996V154.012Z" fill="#C5D2E4"/>
<path opacity="0.46" d="M355.034 153.582H350.284C350.049 153.582 349.857 153.775 349.857 154.013V154.728C349.857 154.966 350.049 155.159 350.284 155.159H355.034C355.269 155.159 355.46 154.966 355.46 154.728V154.013C355.46 153.775 355.269 153.582 355.034 153.582Z" fill="#C5D2E4"/>
</g>
<path opacity="0.46" d="M320.032 157.883H356.903C357.469 157.883 358.012 158.11 358.412 158.515C358.812 158.919 359.036 159.467 359.036 160.039V174.373H317.899V160.039C317.899 159.467 318.124 158.919 318.524 158.515C318.923 158.11 319.466 157.883 320.032 157.883V157.883Z" stroke="#C5D2E4" stroke-width="1.154" stroke-miterlimit="10"/>
</g>
<g opacity="0.46">
<path opacity="0.46" d="M386.192 177.861H410.396V146.305H386.192V177.861Z" fill="#85A0C2"/>
<path opacity="0.46" d="M430.972 177.861H455.176V146.305H430.972V177.861Z" fill="#85A0C2"/>
<g opacity="0.46">
<g opacity="0.46">
<path opacity="0.46" d="M420.634 177.684H404.614V158.771C404.614 158.25 404.716 157.734 404.913 157.252C405.111 156.771 405.4 156.333 405.764 155.965C406.129 155.596 406.562 155.304 407.038 155.104C407.515 154.905 408.026 154.802 408.541 154.802H416.707C417.749 154.802 418.748 155.22 419.484 155.965C420.221 156.709 420.634 157.719 420.634 158.771V177.684Z" fill="#C5D2E4"/>
<path opacity="0.46" d="M408.445 154.803H416.804V150.578H408.445V154.803Z" fill="#C5D2E4"/>
</g>
</g>
<g opacity="0.46">
<g opacity="0.46">
<path opacity="0.46" d="M442.717 177.684H426.697V158.771C426.697 158.25 426.799 157.734 426.996 157.252C427.194 156.771 427.483 156.333 427.848 155.965C428.212 155.596 428.645 155.304 429.122 155.104C429.598 154.905 430.109 154.802 430.624 154.802H438.79C439.832 154.802 440.831 155.22 441.567 155.965C442.304 156.709 442.717 157.719 442.717 158.771V177.684Z" fill="#C5D2E4"/>
<path opacity="0.46" d="M430.528 154.803H438.887V150.578H430.528V154.803Z" fill="#C5D2E4"/>
</g>
</g>
<g opacity="0.46">
<g opacity="0.46">
<path opacity="0.46" d="M464.187 177.684H448.167V158.771C448.167 158.25 448.269 157.734 448.466 157.252C448.663 156.771 448.953 156.333 449.317 155.965C449.682 155.596 450.115 155.304 450.591 155.104C451.068 154.905 451.578 154.802 452.094 154.802H460.26C461.302 154.802 462.301 155.22 463.037 155.965C463.774 156.709 464.187 157.719 464.187 158.771V177.684Z" fill="#C5D2E4"/>
<path opacity="0.46" d="M451.998 154.803H460.357V150.578H451.998V154.803Z" fill="#C5D2E4"/>
</g>
</g>
<g opacity="0.46">
<g opacity="0.46">
<path opacity="0.46" d="M485.656 177.684H469.636V158.771C469.636 158.25 469.738 157.734 469.935 157.252C470.132 156.771 470.422 156.333 470.786 155.965C471.151 155.596 471.584 155.304 472.06 155.104C472.537 154.905 473.047 154.802 473.563 154.802H481.729C482.771 154.802 483.77 155.22 484.506 155.965C485.242 156.709 485.656 157.719 485.656 158.771V177.684Z" fill="#C5D2E4"/>
<path opacity="0.46" d="M473.467 154.803H481.825V150.578H473.467V154.803Z" fill="#C5D2E4"/>
</g>
</g>
</g>
</g>
<g opacity="0.65">
<path opacity="0.65" d="M351.062 72.1599H321.617V113.083H351.062V72.1599Z" fill="#85A0C2"/>
<path opacity="0.65" d="M429.578 72.1599H400.134V113.083H429.578V72.1599Z" fill="#85A0C2"/>
<path opacity="0.65" d="M362.548 72.1599H352.901V113.083H362.548V72.1599Z" fill="#85A0C2"/>
<g opacity="0.65">
<g opacity="0.68">
<g opacity="0.68">
<g opacity="0.68">
<path opacity="0.68" d="M377.269 112.949H361.249V94.0364C361.249 93.5151 361.35 92.999 361.548 92.5174C361.745 92.0358 362.034 91.5982 362.399 91.2296C362.764 90.861 363.197 90.5686 363.673 90.3691C364.15 90.1696 364.66 90.067 365.176 90.067H373.342C374.383 90.067 375.382 90.4852 376.119 91.2296C376.855 91.974 377.269 92.9836 377.269 94.0364V112.949Z" fill="#C5D2E4"/>
<path opacity="0.68" d="M365.08 90.0679H373.438V85.8435H365.08V90.0679Z" fill="#C5D2E4"/>
</g>
</g>
<path opacity="0.49" d="M377.234 97.7886H361.285V107.089H377.234V97.7886Z" fill="#FBFBFB" stroke="#FBFBFB" stroke-width="0.369" stroke-miterlimit="10"/>
</g>
<g opacity="0.68">
<g opacity="0.68">
<g opacity="0.68">
<path opacity="0.68" d="M389.911 112.949H381.696V103.252C381.695 102.985 381.747 102.72 381.848 102.472C381.949 102.225 382.097 102 382.284 101.811C382.471 101.621 382.694 101.471 382.938 101.368C383.183 101.266 383.445 101.213 383.71 101.213H387.897C388.162 101.213 388.424 101.266 388.669 101.368C388.913 101.471 389.135 101.621 389.322 101.811C389.509 102 389.658 102.225 389.759 102.472C389.86 102.72 389.911 102.985 389.911 103.252V112.949Z" fill="#C5D2E4"/>
<path opacity="0.68" d="M383.661 101.217H387.946V99.0502H383.661V101.217Z" fill="#C5D2E4"/>
</g>
</g>
<path opacity="0.49" d="M389.893 105.176H381.715V109.945H389.893V105.176Z" fill="#FBFBFB" stroke="#FBFBFB" stroke-width="0.189" stroke-miterlimit="10"/>
</g>
<g opacity="0.68">
<g opacity="0.68">
<g opacity="0.68">
<path opacity="0.68" d="M400.952 112.949H392.737V103.252C392.737 102.985 392.788 102.72 392.889 102.472C392.99 102.225 393.139 102 393.326 101.811C393.513 101.621 393.735 101.471 393.98 101.368C394.224 101.266 394.486 101.213 394.751 101.213H398.938C399.203 101.213 399.465 101.266 399.71 101.368C399.954 101.471 400.177 101.621 400.364 101.811C400.551 102 400.699 102.225 400.8 102.472C400.901 102.72 400.953 102.985 400.952 103.252V112.949Z" fill="#C5D2E4"/>
<path opacity="0.68" d="M394.702 101.217H398.988V99.0502H394.702V101.217Z" fill="#C5D2E4"/>
</g>
</g>
<path opacity="0.49" d="M400.934 105.176H392.756V109.945H400.934V105.176Z" fill="#FBFBFB" stroke="#FBFBFB" stroke-width="0.189" stroke-miterlimit="10"/>
</g>
<g opacity="0.68">
<g opacity="0.68">
<g opacity="0.68">
<path opacity="0.68" d="M411.994 112.949H403.779V103.252C403.778 102.985 403.83 102.72 403.931 102.472C404.032 102.225 404.18 102 404.367 101.811C404.554 101.621 404.777 101.471 405.021 101.368C405.266 101.266 405.528 101.213 405.793 101.213H409.98C410.245 101.213 410.507 101.266 410.752 101.368C410.996 101.471 411.218 101.621 411.405 101.811C411.592 102 411.741 102.225 411.842 102.472C411.943 102.72 411.994 102.985 411.994 103.252V112.949Z" fill="#C5D2E4"/>
<path opacity="0.68" d="M405.744 101.217H410.029V99.0502H405.744V101.217Z" fill="#C5D2E4"/>
</g>
</g>
<path opacity="0.49" d="M411.976 105.176H403.798V109.945H411.976V105.176Z" fill="#FBFBFB" stroke="#FBFBFB" stroke-width="0.189" stroke-miterlimit="10"/>
</g>
<path opacity="0.67" d="M425.174 95.1018H422.123C420.255 95.1018 418.741 96.6323 418.741 98.5203V109.458C418.741 111.346 420.255 112.877 422.123 112.877H425.174C427.042 112.877 428.556 111.346 428.556 109.458V98.5203C428.556 96.6323 427.042 95.1018 425.174 95.1018Z" fill="#C5D2E4"/>
<path opacity="0.67" d="M437.851 95.1018H434.801C432.933 95.1018 431.419 96.6323 431.419 98.5203V109.458C431.419 111.346 432.933 112.877 434.801 112.877H437.851C439.719 112.877 441.233 111.346 441.233 109.458V98.5203C441.233 96.6323 439.719 95.1018 437.851 95.1018Z" fill="#C5D2E4"/>
</g>
</g>
<g opacity="0.75">
<path opacity="0.26" d="M308.735 113.688H355.879C362.979 103.533 370.213 93.4764 377.582 83.5172C386.854 70.9794 396.307 58.5819 405.943 46.3247H358.453C356.027 49.3562 353.614 52.3987 351.215 55.4522C336.398 74.3635 322.238 93.7754 308.735 113.688Z" fill="#FBFBFB" stroke="#FBFBFB" stroke-width="0.378" stroke-miterlimit="10"/>
<path opacity="0.26" d="M396.366 177.361H438.89C445.295 168.202 451.82 159.13 458.467 150.146C466.83 138.836 475.357 127.653 484.049 116.597H441.214C439.025 119.331 436.848 122.076 434.685 124.831C421.319 141.889 408.546 159.399 396.366 177.361Z" fill="#FBFBFB" stroke="#FBFBFB" stroke-width="0.341" stroke-miterlimit="10"/>
<path opacity="0.26" d="M448.166 177.684C450.23 176.535 492.761 116.597 492.761 116.597H500.122L457.183 177.775L448.166 177.684Z" fill="#FBFBFB" stroke="#FBFBFB" stroke-width="0.341" stroke-miterlimit="10"/>
</g>
</g>
<g style="mix-blend-mode:multiply" opacity="0.81">
<g style="mix-blend-mode:multiply" opacity="0.5">
<path d="M265.513 20H168.852C163.252 20 158.712 24.5892 158.712 30.2503V278.502C158.712 284.163 163.252 288.752 168.852 288.752H265.513C271.113 288.752 275.653 284.163 275.653 278.502V30.2503C275.653 24.5892 271.113 20 265.513 20Z" fill="#DEE8F4"/>
</g>
<g style="mix-blend-mode:multiply" opacity="0.81">
<path d="M251.981 31.717H180.967C176.504 31.717 172.886 35.3738 172.886 39.8847V167.812C172.886 172.322 176.504 175.979 180.967 175.979H251.981C256.444 175.979 260.061 172.322 260.061 167.812V39.8847C260.061 35.3738 256.444 31.717 251.981 31.717Z" fill="#C8D5E4"/>
</g>
<g style="mix-blend-mode:multiply" opacity="0.19">
<path d="M172.914 150.803C183.68 136.152 194.286 121.378 204.731 106.482C215.142 91.706 225.491 76.883 235.778 62.0134C242.542 52.2834 249.317 42.5614 256.104 32.8473C254.886 32.1068 253.491 31.7161 252.069 31.717H218.386C216.586 34.1834 214.793 36.6553 213.006 39.1327C199.115 58.4192 185.741 78.0905 172.886 98.1466V150.841L172.914 150.803Z" fill="#FBFBFB"/>
<path d="M172.914 150.803C183.68 136.152 194.286 121.378 204.731 106.482C215.142 91.706 225.491 76.883 235.778 62.0134C242.542 52.2834 249.317 42.5614 256.104 32.8473C254.886 32.1068 253.491 31.7161 252.069 31.717H218.386C216.586 34.1834 214.793 36.6553 213.006 39.1327C199.115 58.4192 185.741 78.0905 172.886 98.1466V150.841L172.914 150.803Z" stroke="#FBFBFB" stroke-width="0.373" stroke-miterlimit="10"/>
</g>
<g style="mix-blend-mode:multiply" opacity="0.19">
<path d="M260.651 74.5385V51.103C255.34 58.5485 185.256 157.469 176.162 174.064C177.611 175.405 179.504 176.149 181.469 176.15H184.717C194.279 162.14 245.739 95.069 260.651 74.5385Z" fill="#FBFBFB"/>
<path d="M260.651 74.5385V51.103C255.34 58.5485 185.256 157.469 176.162 174.064C177.611 175.405 179.504 176.149 181.469 176.15H184.717C194.279 162.14 245.739 95.069 260.651 74.5385Z" stroke="#FBFBFB" stroke-width="0.373" stroke-miterlimit="10"/>
</g>
<g style="mix-blend-mode:multiply" opacity="0.62">
<path d="M158.712 197.216H275.653" stroke="#C1D3E8" stroke-width="1.169" stroke-miterlimit="10"/>
</g>
<g style="mix-blend-mode:multiply" opacity="0.62">
<path d="M158.712 220.649H275.653" stroke="#C1D3E8" stroke-width="1.169" stroke-miterlimit="10"/>
</g>
<g style="mix-blend-mode:multiply" opacity="0.62">
<path d="M158.712 244.082H275.653" stroke="#C1D3E8" stroke-width="1.169" stroke-miterlimit="10"/>
</g>
<g style="mix-blend-mode:multiply" opacity="0.5">
<path d="M48.2037 288.752H144.567C150.25 288.752 154.856 284.096 154.856 278.352L154.856 30.4006C154.856 24.6565 150.25 20 144.567 20H48.2037C42.5211 20 37.9144 24.6565 37.9144 30.4006L37.9144 278.352C37.9144 284.096 42.5211 288.752 48.2037 288.752Z" fill="#DEE8F4"/>
</g>
<g style="mix-blend-mode:multiply" opacity="0.81">
<path d="M61.5867 175.979H132.601C137.064 175.979 140.681 172.322 140.681 167.811L140.681 39.8845C140.681 35.3737 137.064 31.7169 132.601 31.7169H61.5867C57.124 31.7169 53.5064 35.3737 53.5064 39.8845L53.5064 167.811C53.5064 172.322 57.124 175.979 61.5867 175.979Z" fill="#C8D5E4"/>
</g>
<g style="mix-blend-mode:multiply" opacity="0.19">
<path d="M140.654 150.803C129.888 136.152 119.283 121.378 108.837 106.482C98.4256 91.706 88.0766 76.883 77.79 62.0134C71.0261 52.2834 64.2506 42.5614 57.4636 32.8473C58.6822 32.1068 60.0774 31.716 61.4993 31.717H95.1812C96.9813 34.1834 98.7747 36.6553 100.561 39.1327C114.453 58.4192 127.826 78.0905 140.681 98.1466V150.841L140.654 150.803Z" fill="#FBFBFB"/>
<path d="M140.654 150.803C129.888 136.152 119.283 121.378 108.837 106.482C98.4256 91.706 88.0766 76.883 77.79 62.0134C71.0261 52.2834 64.2506 42.5614 57.4636 32.8473C58.6822 32.1068 60.0774 31.716 61.4993 31.717H95.1812C96.9813 34.1834 98.7747 36.6553 100.561 39.1327C114.453 58.4192 127.826 78.0905 140.681 98.1466V150.841L140.654 150.803Z" stroke="#FBFBFB" stroke-width="0.373" stroke-miterlimit="10"/>
</g>
<g style="mix-blend-mode:multiply" opacity="0.19">
<path d="M53.507 74.3673V50.9326C58.8185 58.3781 128.903 157.298 137.996 173.894C136.547 175.235 134.654 175.979 132.689 175.979H129.442C119.88 161.969 68.4223 94.8985 53.507 74.3673Z" fill="#FBFBFB"/>
<path d="M53.507 74.3673V50.9326C58.8185 58.3781 128.903 157.298 137.996 173.894C136.547 175.235 134.654 175.979 132.689 175.979H129.442C119.88 161.969 68.4223 94.8985 53.507 74.3673Z" stroke="#FBFBFB" stroke-width="0.373" stroke-miterlimit="10"/>
</g>
<g style="mix-blend-mode:multiply" opacity="0.62">
<path d="M154.856 197.216H37.9144" stroke="#C1D3E8" stroke-width="1.169" stroke-miterlimit="10"/>
</g>
<g style="mix-blend-mode:multiply" opacity="0.62">
<path d="M154.856 220.649H37.9144" stroke="#C1D3E8" stroke-width="1.169" stroke-miterlimit="10"/>
</g>
<g style="mix-blend-mode:multiply" opacity="0.62">
<path d="M154.856 244.082H37.9144" stroke="#C1D3E8" stroke-width="1.169" stroke-miterlimit="10"/>
</g>
</g>
</g>
<path d="M345.126 197.108H231.125V299.108H345.126V197.108Z" fill="#7698C8"/>
<g opacity="0.52">
<g opacity="0.52">
<path opacity="0.67" d="M348.403 205.123H239.876V234.64H348.403V205.123Z" stroke="#B3C6E2" stroke-width="0.809" stroke-miterlimit="10"/>
<path opacity="0.67" d="M348.403 239.123H239.876V293.93H348.403V239.123Z" stroke="#B3C6E2" stroke-width="1.103" stroke-miterlimit="10"/>
<path opacity="0.52" d="M304.183 208.014H279.143C278.615 208.014 278.188 208.446 278.188 208.98V209.293C278.188 209.827 278.615 210.259 279.143 210.259H304.183C304.71 210.259 305.138 209.827 305.138 209.293V208.98C305.138 208.446 304.71 208.014 304.183 208.014Z" fill="#B3C6E2"/>
<path opacity="0.52" d="M304.183 242.335H279.143C278.615 242.335 278.188 242.767 278.188 243.301V243.615C278.188 244.148 278.615 244.58 279.143 244.58H304.183C304.71 244.58 305.138 244.148 305.138 243.615V243.301C305.138 242.767 304.71 242.335 304.183 242.335Z" fill="#B3C6E2"/>
</g>
</g>
<path d="M511.456 196.108H501.181V298.109H511.456V196.108Z" fill="#212121"/>
<path d="M229.658 196.108H219.383V298.109H229.658V196.108Z" fill="#1D3959"/>
<path d="M527.931 186.463H205.378V203.094H527.931V186.463Z" fill="#C5D9F6"/>
<path d="M406.948 137.668L402.722 139.678C401.258 140.375 400.019 141.478 399.152 142.86C398.284 144.241 397.824 145.844 397.824 147.48V168.804C397.824 171.091 398.722 173.284 400.322 174.901C401.922 176.519 404.092 177.427 406.355 177.427H434.628" stroke="#FBFBF6" stroke-width="2.806" stroke-miterlimit="10"/>
<path d="M416.228 163.87L423.709 162.319L422.363 155.686L414.883 157.237L416.228 163.87Z" fill="#FBFBF6" stroke="#FBFBF6" stroke-width="0.152061" stroke-miterlimit="10"/>
<path d="M412.153 159.255L425.731 156.443L425.288 154.255L411.709 157.067L412.153 159.255Z" fill="#1D3959"/>
<path d="M415.683 164.534L424.407 162.728L424.246 161.931L415.521 163.738L415.683 164.534Z" fill="#1D3959"/>
<path d="M408.56 157.718L427.846 153.724L420.65 131.378L406.285 134.353L408.56 157.718Z" fill="#FBFBF6" stroke="#FBFBF6" stroke-width="0.152" stroke-miterlimit="10"/>
<path d="M403.301 138.629C403.168 137.968 403.231 137.282 403.483 136.658C403.736 136.033 404.165 135.499 404.718 135.121C405.271 134.744 405.922 134.54 406.59 134.537C407.257 134.533 407.91 134.73 408.467 135.102C409.023 135.473 409.459 136.004 409.717 136.625C409.976 137.247 410.046 137.932 409.919 138.594C409.793 139.257 409.475 139.866 409.005 140.345C408.536 140.825 407.937 141.153 407.283 141.288C406.849 141.378 406.401 141.38 405.966 141.295C405.531 141.21 405.117 141.039 404.747 140.792C404.377 140.545 404.059 140.227 403.811 139.856C403.563 139.485 403.39 139.068 403.301 138.629Z" fill="#FBFBF6" stroke="#FBFBF6" stroke-width="0.174" stroke-miterlimit="10"/>
<path d="M404.88 138.303C404.809 137.957 404.842 137.599 404.974 137.272C405.105 136.946 405.33 136.666 405.619 136.468C405.908 136.27 406.248 136.164 406.597 136.162C406.946 136.16 407.287 136.262 407.579 136.456C407.87 136.65 408.098 136.928 408.233 137.253C408.368 137.578 408.405 137.936 408.339 138.282C408.273 138.628 408.107 138.947 407.862 139.198C407.617 139.449 407.303 139.62 406.961 139.691C406.503 139.786 406.027 139.693 405.636 139.432C405.246 139.172 404.974 138.766 404.88 138.303Z" fill="#1D3959"/>
<path d="M410.207 133.472L416.045 132.263L415.44 129.279L409.602 130.488L410.207 133.472Z" fill="#1D3959"/>
<path d="M409.334 130.727L415.847 129.382L415.727 126.76L408.424 128.272L409.334 130.727Z" fill="#FBFBF6" stroke="#FBFBF6" stroke-width="0.152" stroke-miterlimit="10"/>
<path d="M416.379 177.505H434.705V174.714H416.379V177.505Z" fill="#FBFBF6"/>
<path d="M409.757 183.405H422.053V178.542H409.757V183.405Z" fill="#1D3959"/>
<path d="M426.014 186.185H406.002C406.002 185.445 406.293 184.736 406.811 184.213C407.328 183.689 408.03 183.396 408.762 183.396H423.254C423.986 183.396 424.688 183.689 425.206 184.213C425.724 184.736 426.014 185.445 426.014 186.185V186.185Z" fill="#1D3959"/>
<path d="M409.351 183.318H422.845V182.491H409.351V183.318Z" fill="#FBFBF6" stroke="#FBFBF6" stroke-width="0.152" stroke-miterlimit="10"/>
<path d="M317.415 186.466H294.523V159.441C294.523 157.937 295.115 156.494 296.167 155.43C297.22 154.366 298.647 153.768 300.136 153.768H311.803C313.292 153.768 314.719 154.366 315.772 155.43C316.824 156.494 317.415 157.937 317.415 159.441V186.466Z" fill="#1976D2"/>
<path d="M299.998 153.769H311.942V147.732H299.998V153.769Z" fill="#0D47A1"/>
<path d="M294.523 178.921H317.913V163.326H294.523V178.921Z" fill="#FBFBF6" stroke="#FBFBF6" stroke-width="0.395" stroke-miterlimit="10"/>
<path d="M304.771 174.715H307.166V167.029H304.771V174.715Z" fill="#EF5350"/>
<path d="M309.771 172.082V169.662H302.168V172.082H309.771Z" fill="#EF5350"/>
<path d="M204.278 305.32C234.925 305.32 259.769 303.626 259.769 301.536C259.769 299.446 234.925 297.752 204.278 297.752C173.631 297.752 148.787 299.446 148.787 301.536C148.787 303.626 173.631 305.32 204.278 305.32Z" fill="#212121"/>
<path d="M178.914 221.916H256.985C260.049 221.916 262.987 223.146 265.154 225.336C267.321 227.526 268.538 230.496 268.538 233.594V237.7H188.233C185.761 237.7 183.391 236.708 181.644 234.941C179.896 233.175 178.914 230.78 178.914 228.282V221.916Z" fill="white"/>
<path d="M215.74 237.7H164.815C159.67 237.7 157.207 234.447 157.207 229.246C157.089 228.331 157.165 227.401 157.43 226.518C157.696 225.636 158.144 224.821 158.746 224.127C159.348 223.434 160.09 222.878 160.921 222.498C161.752 222.117 162.654 221.92 163.567 221.92H204.187C207.25 221.919 210.188 223.149 212.355 225.338C214.521 227.527 215.739 230.497 215.74 233.593V237.7Z" fill="#212121"/>
<path d="M208.709 233.706H200.075V286.07H208.709V233.706Z" fill="#212121"/>
<path d="M183.348 297.162C183.348 295.682 183.636 294.216 184.196 292.848C184.757 291.48 185.578 290.238 186.614 289.191C187.65 288.144 188.879 287.314 190.232 286.747C191.585 286.181 193.035 285.889 194.5 285.889H213.566C216.523 285.889 219.36 287.077 221.452 289.191C223.543 291.305 224.718 294.173 224.718 297.162V297.162" stroke="#212121" stroke-width="3.291" stroke-miterlimit="10"/>
<path d="M187.842 302.263C190.233 300.146 190.472 296.471 188.376 294.055C186.28 291.639 182.642 291.397 180.251 293.515C177.86 295.633 177.621 299.307 179.717 301.723C181.813 304.139 185.451 304.381 187.842 302.263Z" fill="#212121"/>
<path d="M184.044 300.861C185.668 300.861 186.985 299.53 186.985 297.889C186.985 296.247 185.668 294.917 184.044 294.917C182.42 294.917 181.104 296.247 181.104 297.889C181.104 299.53 182.42 300.861 184.044 300.861Z" fill="#FBFBF6" stroke="#FBFBF6" stroke-width="0.386" stroke-miterlimit="10"/>
<path d="M228.226 302.341C230.659 300.272 230.971 296.603 228.924 294.145C226.877 291.687 223.245 291.371 220.812 293.439C218.379 295.507 218.066 299.176 220.114 301.634C222.161 304.093 225.793 304.409 228.226 302.341Z" fill="#1D3859"/>
<path d="M224.517 300.861C226.141 300.861 227.457 299.53 227.457 297.889C227.457 296.247 226.141 294.917 224.517 294.917C222.893 294.917 221.576 296.247 221.576 297.889C221.576 299.53 222.893 300.861 224.517 300.861Z" fill="#FBFBF6" stroke="#FBFBF6" stroke-width="0.386" stroke-miterlimit="10"/>
<path d="M200.434 243.525H208.708" stroke="#FBFBF6" stroke-width="0.386" stroke-miterlimit="10"/>
<path d="M200.434 249.524H208.708" stroke="#FBFBF6" stroke-width="0.386" stroke-miterlimit="10"/>
<path d="M200.434 255.525H208.708" stroke="#FBFBF6" stroke-width="0.386" stroke-miterlimit="10"/>
<path d="M200.434 261.525H208.708" stroke="#FBFBF6" stroke-width="0.386" stroke-miterlimit="10"/>
<path d="M200.434 267.525H208.708" stroke="#FBFBF6" stroke-width="0.386" stroke-miterlimit="10"/>
<path d="M200.434 273.525H208.708" stroke="#FBFBF6" stroke-width="0.386" stroke-miterlimit="10"/>
<path d="M200.434 279.525H208.708" stroke="#FBFBF6" stroke-width="0.386" stroke-miterlimit="10"/>
<path d="M226.145 281.452L222.827 301.112L245.473 302.799L235.223 293.402L238.799 282.798L226.145 281.452Z" fill="#F4A386"/>
<path d="M231.408 281.596L226.164 300.391L223.303 300.15L225.429 280.854L231.408 281.596Z" fill="#F29270"/>
<path d="M245.334 298.686C245.334 298.686 247.688 303.013 246.969 303.021C246.969 303.021 222.776 303.484 222.707 303.164C222.115 300.393 222.682 298.503 223.422 297.381C223.661 297.019 231.305 296.281 232.74 295.233C240.477 289.594 244.998 298.421 245.334 298.686Z" fill="#FFA600"/>
<path d="M223.983 283.669C226.497 284.964 237.572 284.69 240.474 284.322C241.153 278.495 260.368 240.608 263.587 210.881C265.162 196.323 256.367 190.716 246.259 190.41C236.793 190.122 206.818 188.568 195.082 188.922L188.519 198.614C187.528 201.519 187.256 204.625 187.727 207.661C188.198 210.697 189.398 213.569 191.222 216.028C193.045 218.487 195.437 220.457 198.187 221.765C200.938 223.074 203.964 223.681 207 223.535L230.74 222.482C234.051 222.327 234.165 223.678 234.115 227.031L223.983 283.669Z" fill="#166EBB"/>
<path d="M223.569 286.685L224.468 277.594L243.895 276.685L239.038 288.503L223.569 286.685Z" fill="#E2E3E8"/>
<g style="mix-blend-mode:multiply" opacity="0.57">
<path d="M232.38 190.647L195.427 188.337C195.427 188.337 181.006 202.242 190.904 215.431C216.896 199.394 232.38 190.647 232.38 190.647Z" fill="#121B37"/>
</g>
<path d="M217.324 281.452L214.006 301.112L236.652 302.799L226.402 293.402L229.978 282.798L217.324 281.452Z" fill="#F4A386"/>
<path d="M222.587 281.596L217.343 300.391L214.483 300.15L216.607 280.851L222.587 281.596Z" fill="#F29270"/>
<path d="M236.629 298.03C238.564 299.985 238.497 303.964 238.564 303.964C238.564 303.964 213.955 303.482 213.886 303.162C213.294 300.391 213.862 298.501 214.601 297.379C214.84 297.017 220.102 298.019 221.77 297.413C228.065 288.504 236.33 297.727 236.629 298.03Z" fill="#FFC800"/>
<path d="M215.627 283.097C218.215 284.383 228.131 285.05 231.124 284.684C231.823 278.893 253.112 240.295 256.426 210.747C258.047 196.277 248.988 190.703 238.577 190.399C228.826 190.114 197.951 188.568 185.859 188.92L182.048 194.351C175.771 203.295 178.24 216.006 187.714 221.347C190.815 223.089 194.338 223.915 197.881 223.731L222.184 223.39C225.596 223.237 226.112 223.47 226.06 226.8L215.627 283.097Z" fill="#1E88E5"/>
<g style="mix-blend-mode:multiply" opacity="0.57">
<path d="M222.93 190.647L187.279 188.458C187.279 188.458 171.981 201.993 181.88 215.186C207.873 199.148 222.93 190.647 222.93 190.647Z" fill="#5064B1"/>
</g>
<path d="M198.746 188.32C198.746 189.41 185.075 206.138 199.825 208.683C214.576 211.229 240.758 205.677 244.075 209.775C250.551 217.773 223.569 279.958 223.569 279.958" stroke="white" stroke-width="0.569" stroke-miterlimit="10"/>
<path d="M215.024 286.503L215.924 277.412L234.451 277.049L230.493 289.234L215.024 286.503Z" fill="white"/>
<g style="mix-blend-mode:multiply" opacity="0.57">
<path d="M211.461 140.458C213.641 164.622 216.768 184.584 216.768 184.584C216.768 184.584 208.305 183.039 206.298 179.296L211.461 140.458Z" fill="#DCBD72"/>
</g>
<path d="M212.019 107.023C209.754 102.769 206.436 101.806 202.084 100.482C191.582 97.2846 189.036 99.3284 187.015 105.572C185.986 108.775 186.091 112.24 187.311 115.373C187.635 116.068 187.686 116.861 187.455 117.593C187.224 118.325 186.727 118.941 186.064 119.318C182.152 122.045 179.319 123.273 179.187 128.318C179.054 133.363 183.639 131.864 181.615 136.228C179.592 140.592 174.06 138.545 175.004 144.41L180.131 145.909L184.313 140.182L183.1 147.134C183.1 147.134 212.105 149.18 218.58 145.225C218.58 145.225 219.659 140.18 212.779 135.133C205.899 130.087 211.7 126.27 211.7 123.542C211.7 120.814 212.019 107.023 212.019 107.023Z" fill="#0E1232" stroke="#0E1232" stroke-width="0.666" stroke-miterlimit="10"/>
<path d="M188.687 109.899C189.077 109.077 189.213 108.156 189.077 107.255C188.942 106.354 188.542 105.514 187.929 104.846C186.667 103.529 184.989 102.698 183.186 102.497C182.208 102.316 181.203 102.349 180.239 102.594C179.074 102.959 178.056 103.693 177.335 104.687C176.719 105.507 176.291 106.456 176.082 107.464C175.874 108.472 175.89 109.515 176.13 110.516C176.371 111.517 176.829 112.452 177.471 113.251C178.113 114.051 178.924 114.696 179.844 115.14C181.011 115.674 182.282 115.939 183.563 115.915C184.464 115.952 185.36 115.765 186.171 115.368C187.671 114.551 188.383 112.806 188.982 111.193" fill="#0E1232"/>
<path d="M276.726 186.589C277.215 185.841 272.97 185.081 274.063 184.893C275.156 184.704 280.072 185.267 280.167 184.408C280.247 183.686 274.594 183.697 274.468 183.075C274.342 182.453 280.807 183.273 281.045 182.701C281.718 181.095 274.322 181.524 274.237 180.458C274.133 180.594 280.634 180.77 280.313 179.561C280.165 179.004 275.272 178.729 270.613 178.593C270.541 178.591 270.472 178.566 270.415 178.522C270.358 178.478 270.316 178.417 270.295 178.347C270.274 178.278 270.275 178.203 270.298 178.134C270.321 178.066 270.365 178.006 270.424 177.964C272.035 176.801 273.794 175.507 272.553 175.131C264.011 176.884 262.232 178.462 262.232 178.462L262.227 178.505L231.075 171.8C230.078 171.76 229.552 169.108 229.051 168.199C224.046 159.067 217.061 143.934 216.504 144.508C215.628 145.413 212.097 148.487 213.006 148.943C204.119 162.384 214.211 176.366 217.998 182.152C222.917 189.668 263.117 185.853 263.117 185.853V185.805C265.272 186.449 276.284 187.267 276.726 186.589Z" fill="#F4A386"/>
<path d="M216.802 179.664L213.906 172.632L208.19 138.136C212.426 138.789 216.285 140.973 219.05 144.283C222.285 148.061 226.007 156.076 226.007 156.076L216.014 167.046" fill="#FFA600"/>
<path d="M207.597 107.134C206.324 106.63 200.21 105.44 195.122 115.81C195.101 115.858 195.069 115.901 195.03 115.936C194.991 115.971 194.945 115.997 194.896 116.013C194.846 116.028 194.793 116.033 194.741 116.027C194.69 116.021 194.64 116.003 194.595 115.976C193.813 115.478 191.82 114.526 190.38 116.611C188.926 118.719 190.965 122.337 192.752 121.769C193.14 121.646 193.315 122.375 193.401 122.8C193.668 124.103 193.736 137.358 192.887 137.9L189.975 140.151C190.672 140.614 195.121 146.514 199.145 146.729C200.318 146.903 204.502 148.575 205.486 148.502C207.366 148.548 210.234 145.836 210.071 145.093C210.458 144.94 210.772 144.642 210.948 144.261C211.124 143.881 211.148 143.446 211.015 143.048L206.415 137.73C205.65 134.094 205.214 130.774 204.978 128.769C206.462 128.462 212.049 130.189 212.965 119.724C213.805 110.153 209.106 107.732 207.597 107.134Z" fill="#F4A386"/>
<path d="M205.017 128.647L202.361 128.305L205.787 135.231L205.017 128.647Z" fill="#F29270"/>
<path d="M181.756 145.693C181.756 145.693 189.439 138.426 193.219 136.91C210.217 147.001 206.575 137.319 206.575 137.319C207.26 137.896 208.518 137.334 209.543 139.228C211.921 143.622 219.264 155.29 220.131 159.661C221.303 165.567 216.423 186.82 216.423 189.138L174.737 190.365C174.737 190.365 179.164 153.646 181.756 145.693Z" fill="#FFC800"/>
<g style="mix-blend-mode:multiply" opacity="0.57">
<path d="M194.788 144.682L214.529 189.953L186.716 189.31C186.716 189.31 194.612 152.766 194.788 144.682Z" fill="#FFA600"/>
</g>
<path d="M194.158 118.693C192.401 114.587 190.967 117.885 190.967 117.885L194.158 118.693Z" fill="#F29270"/>
<path d="M203.603 118.488C204.078 118.597 204.511 118.846 204.847 119.204C205.182 119.561 205.405 120.012 205.487 120.497C205.57 120.983 205.508 121.483 205.309 121.933C205.111 122.383 204.785 122.764 204.372 123.027C203.96 123.29 203.479 123.423 202.992 123.41C202.505 123.397 202.032 123.238 201.634 122.953C201.236 122.669 200.93 122.271 200.755 121.811C200.581 121.351 200.545 120.849 200.653 120.368C200.724 120.049 200.857 119.747 201.044 119.48C201.231 119.212 201.468 118.985 201.742 118.81C202.016 118.636 202.322 118.517 202.641 118.462C202.96 118.407 203.287 118.416 203.603 118.488Z" fill="#FFC2C2"/>
<path d="M212.294 123.376C211.777 123.139 211.356 122.729 211.103 122.215C210.851 121.701 210.781 121.114 210.907 120.555C211.11 119.65 212.121 119.087 212.942 118.835C212.942 118.835 213.147 121.689 212.294 123.376Z" fill="#FFC2C2"/>
<path d="M209.898 118.954C209.269 118.863 203.242 120.409 203.242 120.409L196.795 116.364C195.898 115.801 194.852 115.531 193.799 115.591L202.982 121.72L202.213 125.611L192.754 121.769C193.135 122.648 193.837 123.344 194.714 123.713L201.983 126.777C201.983 126.777 205.49 129.505 209.088 128.596C212.686 127.686 212.866 120.231 212.866 120.231C211.911 119.729 210.918 119.302 209.898 118.954Z" fill="white"/>
<path d="M195.329 115.682C195.329 115.682 201.533 114.512 207.92 106.636C207.919 106.636 196.586 97.136 195.329 115.682Z" fill="#0E1232" stroke="#0E1232" stroke-width="0.695" stroke-miterlimit="10"/>
<path d="M187.683 144.682C176.944 145.837 173.716 183.105 181.208 189.138C184.445 194.319 217.07 205.902 219.971 206.319C223.11 208.142 226.582 209.301 230.177 209.729C234.224 210.275 238.918 209.893 238.884 209.262C238.838 208.419 232.986 207.353 233.263 207.153C233.54 206.953 239.706 208.454 239.962 207.833C240.218 207.213 234.367 206.145 234.341 205.724C234.315 205.302 240.494 207.013 240.738 206.182C240.982 205.351 234.822 203.852 235.086 203.441C235.35 203.031 240.971 205.141 241.506 204.321C242.041 203.502 232.859 199.783 232.557 199.562C232.256 199.34 236.888 197.639 237.187 197.456C238.347 196.749 236.004 196.702 236.004 196.702C234.534 195.866 229.984 197.197 226.397 197.183C212.772 192.138 202.518 184.865 191.186 177.955C189.738 177.07 197.666 145.227 187.683 144.682Z" fill="#F4A386"/>
<path d="M193.08 171.41C198.611 152.336 194.429 142.5 189.614 139.739C189.614 139.739 176.62 137.591 173.113 170.319C174.808 171.494 192.18 171.773 193.08 171.41Z" fill="#FFC800"/>
<path d="M358.48 307.031C389.127 307.031 413.971 305.337 413.971 303.247C413.971 301.157 389.127 299.463 358.48 299.463C327.833 299.463 302.989 301.157 302.989 303.247C302.989 305.337 327.833 307.031 358.48 307.031Z" fill="#212121"/>
<path d="M331.287 293.095L332.941 289.791L342.791 290.151L343.013 293.095L338.385 301.211L330.054 294.718L331.287 293.095Z" fill="#F4A386"/>
<path d="M337.296 290.123L337.71 297.792C339.689 296.584 341.548 295.185 343.26 293.614L342.849 289.272L337.296 290.123Z" fill="#F29270"/>
<path d="M330.692 292.981C330.692 292.981 333.585 292.925 336.952 295.506C338.957 297.043 341.986 293.874 342.913 293.054C343.102 292.888 343.357 293.037 343.391 293.333L344.555 304.052H315.242C315.055 304.024 314.886 303.924 314.771 303.772C314.656 303.621 314.603 303.43 314.625 303.24V300.985C314.616 300.829 314.65 300.675 314.725 300.538C314.8 300.402 314.911 300.29 315.046 300.215L330.692 292.981Z" fill="white"/>
<path d="M329.045 293.543L333.764 296.302" stroke="#212121" stroke-width="0.563" stroke-miterlimit="10"/>
<path d="M326.989 294.607L331.708 297.366" stroke="#212121" stroke-width="0.563" stroke-miterlimit="10"/>
<path d="M379.047 293.095L380.7 289.791L389.741 288.42L390.772 293.095L386.144 301.212L377.812 294.718L379.047 293.095Z" fill="#F4A386"/>
<path d="M386.038 289.91L385.217 297.153C387.197 295.945 389.056 294.546 390.768 292.975L389.946 289.272L386.038 289.91Z" fill="#F29270"/>
<path d="M378.452 292.981C378.452 292.981 381.345 292.925 384.712 295.506C386.717 297.043 389.741 293.874 390.673 293.054C390.862 292.888 391.117 293.037 391.15 293.333L392.315 304.052H363.001C362.815 304.024 362.646 303.924 362.531 303.772C362.416 303.621 362.363 303.43 362.385 303.24V300.985C362.376 300.829 362.41 300.675 362.485 300.538C362.56 300.402 362.671 300.29 362.806 300.215L378.452 292.981Z" fill="white"/>
<path d="M376.142 293.756L380.861 296.515" stroke="#212121" stroke-width="0.563" stroke-miterlimit="10"/>
<path d="M374.085 294.82L378.804 297.579" stroke="#212121" stroke-width="0.563" stroke-miterlimit="10"/>
<path d="M333.117 163.354C333.117 163.354 329.345 208.937 328.993 221.53C328.64 234.124 331.137 290.269 331.137 290.269L346.82 290.55C346.82 290.55 357.775 196.36 373.007 165.986L333.117 163.354Z" fill="#212121"/>
<path d="M352.137 165.761C352.137 165.761 341.41 218.418 341.41 226.504C341.41 234.589 339.826 290.149 339.826 290.149" stroke="white" stroke-width="0.563" stroke-miterlimit="10" stroke-dasharray="6 6"/>
<path d="M333.085 163.354C333.085 163.354 341.802 201.351 350.655 228.232C357.809 249.955 373.655 291.554 373.655 291.554L391.24 291.111L375.967 228.878C375.154 225.633 374.64 222.319 374.433 218.978C373.647 206.355 376.214 180.848 377.287 164.504L333.085 163.354Z" fill="#212121"/>
<path d="M363.626 164.062C363.626 164.062 359.509 213.312 363.206 220.976C366.904 228.639 384.961 291.002 384.961 291.002" stroke="white" stroke-width="0.563" stroke-miterlimit="10" stroke-dasharray="6 6"/>
<path d="M267.738 124.469C268.077 123.159 275.908 126.124 276.158 125.749C276.408 125.374 267.994 123.005 268.245 122.086C268.496 121.167 276.286 123.802 276.66 123.511C277.034 123.22 269.166 120.166 269.958 119.25C270.749 118.334 283.597 121.706 284.49 121.312C285.382 120.919 281.075 116.983 280.776 114.867C280.476 112.752 290.242 121.595 290.242 121.595C290.835 121.877 291.445 122.12 292.069 122.322L292.094 122.177L312.645 122.103C312.645 122.103 321.955 75.4178 339.849 84.8959C349.85 90.193 333.578 140.971 328.214 146.804L310.212 141.299C301.406 139.218 287.893 135.105 287.893 135.105C287.893 135.105 269.601 128.707 269.71 127.598C269.819 126.49 274.775 128.09 274.775 128.09C274.08 127.247 267.367 125.904 267.738 124.469Z" fill="#F4A386"/>
<path d="M295.835 122.163L292.096 122.177L292.071 122.323C291.447 122.121 290.837 121.877 290.244 121.594C290.244 121.594 280.477 112.752 280.778 114.867C281.079 116.981 285.385 120.922 284.492 121.312C283.6 121.702 270.752 118.333 269.96 119.249C269.168 120.166 277.038 123.22 276.663 123.51C276.288 123.8 268.501 121.166 268.247 122.086C267.994 123.005 276.409 125.375 276.16 125.748C275.912 126.122 268.079 123.158 267.74 124.468C267.37 125.901 274.082 127.244 274.782 128.085C274.782 128.085 269.827 126.486 269.717 127.594C269.607 128.703 287.9 135.1 287.9 135.1C287.9 135.1 290.32 135.837 293.774 136.843C294.397 131.943 295.072 127.046 295.835 122.163Z" fill="#ABD8FF"/>
<path d="M282.026 121.098L286.411 125.908C286.411 125.908 284.535 121.833 284.765 121.353L282.026 121.098Z" fill="#6B9FCC"/>
<path d="M311.783 120.801C311.783 120.801 321.958 75.4158 339.852 84.8939C349.854 90.1909 339.192 132.842 333.828 138.674L311.783 120.801Z" fill="#006430"/>
<path d="M316.853 125.016L333.828 138.671C339.192 132.84 338.719 92.9321 328.718 87.635L316.853 125.016Z" fill="black" fill-opacity="0.4"/>
<path d="M313.193 115.312L336.797 131.972" stroke="white" stroke-width="0.5" stroke-miterlimit="10"/>
<path d="M371.119 97.1297C366.451 82.1855 353.599 78.8896 353.599 78.8896L346.606 76.9109L346.519 77.0417L337.174 89.3291L334.578 84.7451L334.403 82.9054L331.467 84.5971C330.155 85.0314 325.502 91.6756 324.537 95.4088C323.443 100.032 323.049 104.795 323.369 109.537L332.205 176.836L386.115 169.747C386.115 169.747 376.042 112.893 371.119 97.1297Z" fill="#006430"/>
<path d="M331.716 170.812L384.545 162.889" stroke="white" stroke-width="0.5" stroke-miterlimit="10"/>
<path d="M332.423 84.0791L336.071 97.8997L349.908 77.5112" stroke="white" stroke-width="0.5" stroke-miterlimit="10"/>
<path d="M338.984 63.7901C345.55 64.2214 342.662 44.6306 338.782 43.8823C336.728 43.7866 336.282 41.7144 334.715 41.8385C327.747 36.2895 315.91 42.4418 311.232 46.847C310.612 48.692 317.527 52.7466 319.407 53.2759C319.407 53.2759 319.521 58.4952 322.167 59.9223C324.812 61.3494 335.405 59.4177 335.405 59.4177L336.668 61.2656" fill="#0F1532"/>
<path d="M320.727 53.9927C320.727 53.9927 321.89 71.2684 327.635 76.6641C329.06 77.4662 332.091 76.096 333.604 75.874C333.572 75.181 334.128 78.0979 333.624 83.4241C333.954 84.8048 336.611 93.7133 336.611 93.7133L347.358 77.3257L342.255 63.4633C342.255 63.4633 343.244 63.5537 343.861 61.9876C344.098 61.1908 344.172 60.3531 344.076 59.5265C343.98 58.6998 343.717 57.902 343.303 57.1824C342.294 55.5251 338.934 56.322 338.606 58.0443C338.502 58.5923 338.022 59.2404 337.243 58.602C336.577 58.057 334.407 50.6489 332.248 51.2828C327.58 52.6538 324.943 53.512 322.654 53.8484C322.021 53.9832 321.373 54.0318 320.727 53.9927Z" fill="#F4A386"/>
<path d="M340.354 58.9715C340.319 59.1583 341.908 56.9449 343.033 59.7937L340.354 58.9715Z" fill="#F29270"/>
<path d="M332.469 76.1343L336.337 72.0916L333.772 84.1898L332.469 76.1343Z" fill="#F29270"/>
<path d="M335.757 72.9625C335.757 72.9625 332.449 67.4187 332.461 65.1506L322.655 67.0023C322.655 67.0023 324.454 77.1487 326.614 77.4776C328.773 77.8065 333.612 76.1776 334.391 75.5706C335.171 74.9636 335.757 72.9625 335.757 72.9625Z" fill="white"/>
<path d="M328.643 76.733C329.618 76.27 330.48 75.5954 331.168 74.7572C331.855 73.919 332.352 72.9379 332.622 71.8837C332.799 71.4355 332.932 70.9704 333.018 70.4955C333.205 69.3146 333.144 68.1071 332.84 66.9514C333.642 69.0343 334.618 71.0442 335.757 72.9594C335.757 72.9594 335.172 74.9628 334.391 75.5691C333.611 76.1753 328.771 77.8072 326.614 77.4753C326.318 77.4026 326.057 77.2284 325.874 76.9827C326.799 77.2098 327.772 77.1221 328.643 76.733Z" fill="#E2E3E8"/>
<path d="M332.259 65.2628C332.259 65.2628 337.673 56.8904 339.457 56.8433C339.457 56.8433 333.95 63.9487 332.486 66.0492C332.353 66.038 332.259 65.2628 332.259 65.2628Z" fill="white"/>
<path d="M342.785 63.3655C342.785 63.3655 336.308 72.324 335.76 72.9609L335.304 72.1439L342.262 63.4499L342.785 63.3655Z" fill="white"/>
<path d="M350.93 112.201L353.786 143.362L384.806 162.892C384.806 162.892 379.272 138.355 378.432 125.831L350.93 112.201Z" fill="black" fill-opacity="0.4"/>
<path d="M321.315 150.947C321.006 150.686 312.152 148.995 312.018 148.008C311.817 146.525 321.659 148.589 321.826 148.616C324.362 149.022 312.334 147.011 311.953 146.026C311.573 145.04 317.121 145.577 317.318 145.59C317.318 145.59 322.042 146.331 322.168 145.994C322.295 145.657 311.66 142.897 312.533 142.182C313.407 141.466 320.457 142.182 322.181 142.591C323.906 143.001 325.969 142.646 327.302 142.816C329.14 143.051 321.592 138.194 323.765 136.661C323.765 136.661 330.924 139.938 333.14 141.874C334.306 142.893 356.016 137.486 356.016 137.486C358.284 136.933 358.439 136.488 357.948 134.182L352.828 101.329C352.828 101.329 351.415 86.2865 358.227 87.7285C368.383 89.8777 381.444 107.464 378.869 144.429C378.284 152.817 373.174 157.547 362.039 157.655L352.652 156.751L352.674 156.971C341.445 156.198 330.289 154.592 319.293 152.164C318.02 151.906 314.273 150.724 314.213 150.188C314.082 148.961 321.624 151.207 321.315 150.947Z" fill="#F4A386"/>
<path d="M338.406 141.408C335.596 141.916 333.482 142.172 333.14 141.874C330.921 139.938 323.765 136.66 323.765 136.66C321.592 138.194 329.14 143.05 327.302 142.815C325.971 142.644 323.906 142.997 322.181 142.591C320.457 142.185 313.407 141.463 312.533 142.181C311.66 142.899 320.314 145.411 320.188 145.748C320.063 146.085 317.318 145.591 317.318 145.591C317.121 145.575 311.573 145.04 311.953 146.026C312.334 147.011 324.362 149.023 321.826 148.617C321.658 148.59 311.817 146.523 312.018 148.009C312.152 148.996 321.006 150.687 321.315 150.947C321.623 151.208 314.082 148.962 314.215 150.188C314.274 150.724 318.021 151.907 319.295 152.164C320.894 152.49 327.539 154.086 338.261 155.492C338.362 150.797 338.431 146.103 338.406 141.408Z" fill="#ABD8FF"/>
<path d="M356.804 79.0474C356.804 79.0474 334.805 73.0671 353.927 125.379L382.674 126.246C382.674 126.246 374.174 78.7409 356.804 79.0474Z" fill="#006430"/>
<path d="M352.575 119.484L382.003 120.209" stroke="white" stroke-width="0.5" stroke-miterlimit="10"/>
<path d="M271.409 100.945L268.655 92.8433" stroke="white" stroke-width="1.044" stroke-miterlimit="10"/>
<path d="M268.52 105.228L276.777 102.371C276.92 102.321 277.073 102.3 277.225 102.31C277.376 102.32 277.525 102.359 277.662 102.427C277.799 102.495 277.921 102.589 278.022 102.704C278.123 102.819 278.2 102.953 278.25 103.099L284.235 120.658L273.787 124.273L267.802 106.713C267.702 106.42 267.721 106.098 267.856 105.82C267.991 105.541 268.23 105.328 268.52 105.228V105.228Z" fill="#FFC800"/>
<path d="M269.642 101.563L273.664 100.167C273.858 100.1 274.07 100.113 274.254 100.204C274.438 100.295 274.579 100.456 274.645 100.652L277.727 109.715L272.245 111.618L269.163 102.555C269.096 102.359 269.109 102.145 269.199 101.959C269.289 101.773 269.449 101.63 269.642 101.563V101.563Z" fill="#42A5F5"/>
<path d="M285.414 121.306L273.46 125.455C273.352 125.493 273.237 125.509 273.123 125.502C273.009 125.495 272.897 125.465 272.794 125.414C272.691 125.363 272.599 125.293 272.523 125.206C272.447 125.119 272.388 125.018 272.351 124.908C272.314 124.799 272.298 124.683 272.305 124.567C272.312 124.451 272.341 124.338 272.392 124.234C272.442 124.13 272.512 124.037 272.598 123.96C272.684 123.883 272.784 123.825 272.892 123.787L284.846 119.637C284.954 119.6 285.069 119.584 285.183 119.591C285.298 119.598 285.41 119.628 285.513 119.678C285.616 119.729 285.708 119.8 285.784 119.887C285.86 119.974 285.918 120.075 285.955 120.185C285.993 120.294 286.008 120.41 286.001 120.526C285.994 120.641 285.965 120.755 285.915 120.859C285.864 120.963 285.794 121.056 285.708 121.133C285.622 121.209 285.522 121.268 285.414 121.306Z" fill="#1E88E5"/>
<path d="M285.069 127.664L277.599 130.257C277.532 130.28 277.46 130.29 277.389 130.286C277.317 130.281 277.247 130.263 277.183 130.231C277.119 130.199 277.061 130.155 277.014 130.101C276.967 130.047 276.93 129.984 276.907 129.915C276.884 129.847 276.874 129.775 276.878 129.702C276.883 129.63 276.901 129.56 276.932 129.495C276.964 129.43 277.008 129.371 277.061 129.324C277.115 129.276 277.177 129.239 277.245 129.216L284.714 126.622C284.851 126.574 285.001 126.584 285.131 126.648C285.26 126.712 285.36 126.826 285.407 126.964C285.453 127.102 285.444 127.253 285.381 127.384C285.317 127.516 285.205 127.616 285.069 127.664Z" fill="#1565C0"/>
<path d="M269.789 106.079L276.257 103.835C276.538 103.738 276.847 103.757 277.114 103.889C277.382 104.021 277.586 104.255 277.683 104.54L280.12 111.71C280.17 111.855 280.19 112.009 280.181 112.162C280.171 112.316 280.132 112.466 280.065 112.604C279.999 112.742 279.906 112.865 279.792 112.967C279.678 113.069 279.545 113.147 279.401 113.197L273.001 115.417C272.857 115.467 272.705 115.488 272.553 115.479C272.401 115.469 272.253 115.429 272.116 115.362C271.979 115.294 271.857 115.2 271.757 115.085C271.656 114.97 271.579 114.836 271.529 114.69L269.092 107.521C268.995 107.236 269.014 106.925 269.145 106.654C269.276 106.384 269.507 106.177 269.789 106.079V106.079Z" fill="white"/>
<path d="M280.833 128.689L276.072 114.675" stroke="#1565C0" stroke-width="2" stroke-miterlimit="10"/>
<path d="M270.04 108.25C270.553 108.026 271.463 107.768 271.976 107.544" stroke="#42A5F5" stroke-width="0.5" stroke-miterlimit="10"/>
<path d="M270.273 109.737C270.765 109.52 271.654 109.267 272.146 109.051" stroke="#42A5F5" stroke-width="0.5" stroke-miterlimit="10"/>
<path d="M269.82 102.321L270.426 103.891" stroke="white" stroke-width="1.044" stroke-miterlimit="10"/>
<path d="M271.122 111.437C271.547 111.288 272.369 111.107 272.794 110.959" stroke="#42A5F5" stroke-width="0.5" stroke-miterlimit="10"/>
<path d="M271.646 113.382L273.4 112.747" stroke="#42A5F5" stroke-width="0.5" stroke-miterlimit="10"/>
<g style="mix-blend-mode:multiply">
<g style="mix-blend-mode:multiply">
<g style="mix-blend-mode:multiply">
<g style="mix-blend-mode:multiply">
<g style="mix-blend-mode:multiply">
<path d="M275.76 72.0888C275.709 72.0671 275.663 72.0355 275.625 71.9958C275.586 71.9562 275.556 71.9092 275.536 71.8576C275.515 71.806 275.505 71.7508 275.506 71.6953C275.507 71.6397 275.519 71.5849 275.54 71.5339C275.562 71.483 275.594 71.4369 275.633 71.3983C275.673 71.3598 275.72 71.3295 275.771 71.3093C275.822 71.2891 275.877 71.2794 275.932 71.2806C275.987 71.2819 276.041 71.2941 276.091 71.3166L280.221 73.1249C280.74 73.0241 281.278 73.1031 281.748 73.3492C281.927 73.4856 282.05 73.685 282.091 73.9081C282.132 74.1312 282.089 74.3617 281.97 74.5542C281.41 75.6307 280.441 74.62 279.934 73.9211L275.76 72.0888Z" fill="#BDBDBD"/>
</g>
<g style="mix-blend-mode:multiply">
<path d="M274.127 74.8442C274.211 74.7721 274.32 74.7367 274.43 74.7458C274.54 74.7549 274.642 74.8078 274.713 74.8927L278.392 79.2748C278.806 79.4206 279.297 79.3937 279.568 79.8078C279.684 80.0139 279.723 80.2551 279.679 80.488C279.635 80.721 279.51 80.9304 279.327 81.0786C279.151 81.2441 278.93 81.3526 278.692 81.3904C278.454 81.4282 278.21 81.3936 277.992 81.2909C277.594 80.9874 277.696 80.3027 277.776 79.8392L274.078 75.4347C274.007 75.3497 273.973 75.2399 273.982 75.1293C273.991 75.0187 274.043 74.9162 274.127 74.8442Z" fill="#BDBDBD"/>
</g>
<g style="mix-blend-mode:multiply">
<path d="M272.107 75.9691C272.157 75.9472 272.211 75.9356 272.266 75.9349C272.321 75.9341 272.375 75.9443 272.426 75.9647C272.477 75.9852 272.523 76.0156 272.562 76.0542C272.601 76.0928 272.633 76.1388 272.654 76.1896C272.695 76.2868 273.179 77.7026 273.478 78.578C273.627 78.6219 273.762 78.7061 273.867 78.8215C273.973 78.9369 274.045 79.0791 274.076 79.2329C274.083 79.411 274.034 79.5867 273.935 79.7345C273.836 79.8823 273.694 79.9946 273.528 80.0551C273.379 80.1479 273.201 80.1784 273.031 80.1404C272.847 80.0694 272.695 79.9333 272.604 79.7576C272.515 79.616 272.475 79.4487 272.489 79.2817C272.504 79.1147 272.573 78.9572 272.685 78.8337C272.359 77.8783 271.93 76.6284 271.887 76.5163C271.845 76.4141 271.845 76.2995 271.886 76.1971C271.928 76.0948 272.007 76.0129 272.107 75.9691Z" fill="#BDBDBD"/>
</g>
<g style="mix-blend-mode:multiply">
<path d="M266.212 62.731C266.243 62.7771 266.264 62.8287 266.274 62.8829C266.285 62.9372 266.285 62.9931 266.274 63.0473C266.263 63.1015 266.242 63.153 266.211 63.1989C266.181 63.2449 266.142 63.2843 266.096 63.3149C266.038 63.3538 265.971 63.3774 265.901 63.3836C265.826 63.3899 265.752 63.3759 265.684 63.3431C265.617 63.3102 265.56 63.2597 265.519 63.1967L263.54 60.1827C263.052 60.0401 262.621 59.744 262.31 59.3372C262.2 59.1618 262.157 58.9518 262.188 58.7464C262.22 58.541 262.325 58.3544 262.482 58.2213C262.64 58.0882 262.841 58.0178 263.046 58.0232C263.252 58.0287 263.449 58.1097 263.599 58.251C263.997 58.6009 264.028 59.1608 264.204 59.628C264.212 59.6499 264.218 59.6728 264.22 59.696L266.212 62.731Z" fill="#BDBDBD"/>
</g>
<g style="mix-blend-mode:multiply">
<path d="M278.168 60.1131L274.766 64.3741C274.696 64.461 274.596 64.5166 274.486 64.5285C274.376 64.5404 274.266 64.5077 274.18 64.4376C274.094 64.3676 274.039 64.2658 274.027 64.1548C274.016 64.0437 274.048 63.9325 274.117 63.8456L277.305 59.847C277.33 59.1745 277.517 58.5183 277.848 57.9348C278.234 57.4055 278.906 57.7374 279.282 58.1015C279.476 58.2572 279.605 58.4806 279.644 58.7277C279.683 58.9747 279.629 59.2276 279.493 59.4366C279.15 59.8215 278.678 60.0629 278.168 60.1131Z" fill="#BDBDBD"/>
</g>
<g style="mix-blend-mode:multiply">
<path d="M280.762 66.8486C280.584 66.8937 280.398 66.9008 280.217 66.8694C280.036 66.838 279.863 66.7687 279.71 66.6661C278.711 67.1348 277.679 67.5247 276.621 67.8323C276.583 67.8354 276.546 67.8319 276.51 67.8219C276.414 67.7985 276.33 67.7419 276.272 67.662C276.214 67.5821 276.186 67.484 276.192 67.3851C276.199 67.2862 276.24 67.1928 276.308 67.1213C276.376 67.0498 276.466 67.0048 276.564 66.9943C276.786 66.9308 277.921 66.4845 279.123 65.9964C279.398 65.6353 279.826 65.029 280.292 64.9199C280.79 64.8033 281.118 65.3871 281.23 65.796C281.303 65.9986 281.294 66.2216 281.207 66.418C281.12 66.6144 280.96 66.7688 280.762 66.8486Z" fill="#BDBDBD"/>
</g>
<g style="mix-blend-mode:multiply">
<path d="M273.598 59.3079L272.636 63.4194C272.616 63.5057 272.569 63.5835 272.502 63.6415C272.436 63.6995 272.353 63.7348 272.266 63.7423C272.222 63.7461 272.178 63.7429 272.135 63.7326C272.028 63.707 271.935 63.6393 271.877 63.5444C271.819 63.4495 271.8 63.3352 271.825 63.2265L272.753 59.2496C272.747 58.6904 272.539 58.0902 272.864 57.5796C272.985 57.3897 273.174 57.2535 273.391 57.1987C273.608 57.1439 273.838 57.1745 274.033 57.2843C274.225 57.4005 274.37 57.5818 274.442 57.7958C274.513 58.0099 274.507 58.2427 274.425 58.4527C274.261 58.8298 273.967 59.1337 273.598 59.3079Z" fill="#BDBDBD"/>
</g>
<g style="mix-blend-mode:multiply">
<path d="M268.736 58.1681C268.769 57.9917 268.86 57.8318 268.994 57.7143C269.128 57.5968 269.298 57.5286 269.476 57.5208C269.656 57.5317 269.827 57.6029 269.963 57.7233C270.099 57.8436 270.191 58.0061 270.226 58.1853C270.255 58.3902 270.242 58.5988 270.188 58.7984C270.134 58.998 270.04 59.1842 269.911 59.3455L269.993 61.6995C269.997 61.8076 269.959 61.9129 269.888 61.9937C269.817 62.0745 269.718 62.1247 269.612 62.1338H269.592C269.481 62.1379 269.374 62.0975 269.293 62.0215C269.212 61.9455 269.164 61.8402 269.16 61.7287L269.077 59.3171C268.941 59.1617 268.841 58.9786 268.782 58.7803C268.723 58.582 268.707 58.3732 268.736 58.1681Z" fill="#BDBDBD"/>
</g>
<g style="mix-blend-mode:multiply">
<path d="M265.522 55.9411C265.518 55.6883 265.589 55.4401 265.727 55.2289C265.864 55.0177 266.062 54.8532 266.293 54.757C266.501 54.6795 266.731 54.6851 266.935 54.7725C267.14 54.86 267.303 55.0229 267.393 55.2279C267.548 55.8687 267.482 56.544 267.206 57.1416C267.198 57.1647 267.187 57.1864 267.172 57.2059L268.219 61.7659C268.244 61.875 268.225 61.9895 268.166 62.0844C268.108 62.1793 268.014 62.2468 267.906 62.272C267.798 62.2972 267.685 62.278 267.591 62.2187C267.497 62.1594 267.43 62.0648 267.405 61.9558L266.307 57.1715C266.005 56.732 265.512 56.5697 265.522 55.9411Z" fill="#BDBDBD"/>
</g>
<g style="mix-blend-mode:multiply">
<path d="M256.333 63.5293C256.362 63.316 256.472 63.1226 256.641 62.9907C256.809 62.8587 257.022 62.7988 257.233 62.8236C257.672 62.9414 258.047 63.2297 258.277 63.6257L264.704 66.3169C264.79 66.3531 264.862 66.4175 264.908 66.4997C264.953 66.582 264.97 66.6774 264.956 66.7706C264.942 66.8638 264.897 66.9494 264.828 67.0137C264.76 67.0779 264.672 67.1171 264.579 67.125C264.513 67.1307 264.447 67.1202 264.386 67.0943L258.264 64.5303C257.829 64.6596 257.368 64.6717 256.926 64.5654C256.715 64.5024 256.536 64.3598 256.425 64.167C256.315 63.9742 256.282 63.7459 256.333 63.5293Z" fill="#BDBDBD"/>
</g>
<g style="mix-blend-mode:multiply">
<path d="M259.205 70.7139C259.595 70.5793 260.021 70.5961 260.4 70.761C261.374 70.4089 263.248 69.7331 263.359 69.695C263.41 69.6771 263.465 69.6697 263.52 69.6732C263.574 69.6767 263.628 69.6911 263.677 69.7155C263.726 69.7398 263.77 69.7737 263.806 69.8152C263.842 69.8567 263.87 69.905 263.887 69.9573C263.905 70.0097 263.912 70.065 263.909 70.1202C263.905 70.1754 263.891 70.2293 263.867 70.2789C263.843 70.3286 263.81 70.3729 263.768 70.4094C263.727 70.446 263.68 70.474 263.628 70.4918C263.537 70.5232 262.036 71.0645 260.85 71.4928C260.762 71.7019 260.624 71.8858 260.448 72.0284C260.273 72.171 260.066 72.2679 259.845 72.3106C259.632 72.3467 259.413 72.3078 259.224 72.2003C259.036 72.0928 258.889 71.9233 258.81 71.7201C258.74 71.5327 258.742 71.326 258.815 71.1401C258.888 70.9541 259.027 70.8022 259.205 70.7139Z" fill="#BDBDBD"/>
</g>
<g style="mix-blend-mode:multiply">
<path d="M262.008 78.7471L265.403 74.4727C265.474 74.3948 265.572 74.3471 265.677 74.3391C265.781 74.3311 265.885 74.3635 265.967 74.4297C266.05 74.4959 266.104 74.591 266.12 74.6961C266.135 74.8011 266.111 74.9082 266.052 74.996L262.853 79.0245C262.861 79.058 262.862 79.0927 262.858 79.1269C262.821 79.6353 262.629 80.1198 262.309 80.5136C261.948 80.8701 261.491 80.6339 261.148 80.3812C260.971 80.2822 260.84 80.1179 260.78 79.9228C260.721 79.7277 260.738 79.517 260.829 79.3347C261.138 78.9999 261.557 78.7909 262.008 78.7471Z" fill="#BDBDBD"/>
</g>
<g style="mix-blend-mode:multiply">
<path d="M265.66 79.8175L267.361 75.7135C267.382 75.6625 267.413 75.6162 267.452 75.5773C267.49 75.5383 267.536 75.5075 267.587 75.4865C267.638 75.4656 267.692 75.4549 267.747 75.4551C267.801 75.4553 267.855 75.4664 267.906 75.4877C267.956 75.5091 268.002 75.5403 268.041 75.5795C268.079 75.6188 268.11 75.6653 268.13 75.7165C268.151 75.7676 268.162 75.8224 268.161 75.8777C268.161 75.933 268.15 75.9877 268.129 76.0387L266.442 80.1098C266.59 80.4991 266.599 80.9284 266.468 81.3238C266.277 81.8359 265.783 81.6819 265.384 81.5211C265.19 81.4707 265.02 81.3536 264.902 81.1898C264.784 81.0261 264.727 80.826 264.74 80.6241C264.822 80.1539 265.257 79.9423 265.66 79.8175Z" fill="#BDBDBD"/>
</g>
</g>
<g style="mix-blend-mode:multiply">
<path d="M262.131 69.8154C261.999 68.2114 262.34 66.6036 263.111 65.1953C263.882 63.7871 265.049 62.6417 266.465 61.9039C267.88 61.1662 269.48 60.8692 271.062 61.0506C272.645 61.232 274.138 61.8836 275.354 62.9231C276.57 63.9625 277.454 65.343 277.893 66.8901C278.333 68.4372 278.309 70.0813 277.824 71.6146C277.34 73.1478 276.416 74.5014 275.17 75.504C273.924 76.5067 272.412 77.1134 270.826 77.2475C268.698 77.4273 266.586 76.7453 264.956 75.3515C263.325 73.9577 262.309 71.9663 262.131 69.8154Z" fill="#BDBDBD"/>
</g>
<g style="mix-blend-mode:multiply">
<path d="M262.899 69.0133C262.789 67.6864 263.072 66.3564 263.71 65.1915C264.348 64.0267 265.313 63.0792 266.484 62.469C267.655 61.8588 268.978 61.6133 270.287 61.7634C271.596 61.9135 272.832 62.4526 273.837 63.3124C274.843 64.1723 275.574 65.3143 275.938 66.5941C276.301 67.8738 276.282 69.2338 275.881 70.5022C275.48 71.7705 274.716 72.8902 273.685 73.7196C272.655 74.549 271.404 75.0509 270.091 75.1618C269.22 75.2354 268.342 75.1348 267.509 74.8657C266.676 74.5966 265.903 74.1642 265.235 73.5932C264.567 73.0223 264.017 72.3239 263.617 71.5381C263.216 70.7523 262.972 69.8943 262.899 69.0133Z" fill="#EEEEEE"/>
</g>
<g style="mix-blend-mode:multiply">
<path d="M271.778 66.5778C271.806 66.9127 272.199 67.1527 272.656 67.1146C273.114 67.0765 273.462 66.773 273.435 66.4418C273.407 66.1106 273.014 65.8662 272.556 65.9043C272.098 65.9424 271.75 66.2422 271.778 66.5778Z" fill="#E0E0E0"/>
</g>
<g style="mix-blend-mode:multiply">
<path d="M270.103 67.6064C270.124 67.6906 270.176 67.7634 270.249 67.8095C270.322 67.8556 270.409 67.8715 270.494 67.8539C270.697 67.8367 270.852 67.6984 270.839 67.5444C270.818 67.4599 270.766 67.3868 270.693 67.3405C270.62 67.2942 270.532 67.2784 270.448 67.2962C270.245 67.3134 270.09 67.4524 270.103 67.6064Z" fill="#E0E0E0"/>
</g>
<g style="mix-blend-mode:multiply">
<path d="M270.822 64.6649C270.837 64.8398 271.055 64.9639 271.309 64.9422C271.564 64.9205 271.758 64.7621 271.743 64.5879C271.728 64.4137 271.511 64.2889 271.257 64.3106C271.003 64.3322 270.808 64.487 270.822 64.6649Z" fill="#E0E0E0"/>
</g>
<g style="mix-blend-mode:multiply">
<path d="M264.792 65.5275C265.025 65.9267 265.691 65.9671 266.28 65.6172C266.87 65.2674 267.159 64.6596 266.925 64.2597C266.692 63.8598 266.026 63.8194 265.438 64.1692C264.849 64.5191 264.559 65.1276 264.792 65.5275Z" fill="#E0E0E0"/>
</g>
</g>
</g>
<g style="mix-blend-mode:multiply">
<g style="mix-blend-mode:multiply">
<g style="mix-blend-mode:multiply">
<g style="mix-blend-mode:multiply">
<path d="M152.055 189.268C151.937 189.213 151.845 189.114 151.798 188.991C151.752 188.869 151.755 188.733 151.806 188.612C151.858 188.492 151.954 188.396 152.074 188.347C152.195 188.297 152.329 188.297 152.45 188.346L157.374 190.504C157.993 190.382 158.635 190.475 159.195 190.767C159.409 190.929 159.556 191.167 159.605 191.433C159.655 191.699 159.604 191.975 159.462 192.204C158.796 193.487 157.64 192.279 157.035 191.449L152.055 189.268Z" fill="#BDBDBD"/>
</g>
<g style="mix-blend-mode:multiply">
<path d="M150.107 192.553C150.208 192.467 150.338 192.425 150.469 192.436C150.6 192.447 150.722 192.51 150.807 192.611L155.193 197.836C155.687 198.01 156.273 197.978 156.598 198.472C156.738 198.718 156.786 199.007 156.733 199.285C156.681 199.564 156.531 199.814 156.311 199.991C156.101 200.188 155.838 200.318 155.554 200.363C155.271 200.408 154.981 200.367 154.721 200.244C154.245 199.882 154.371 199.066 154.462 198.513L150.053 193.261C149.967 193.159 149.925 193.028 149.935 192.896C149.945 192.763 150.007 192.64 150.107 192.553Z" fill="#BDBDBD"/>
</g>
<g style="mix-blend-mode:multiply">
<path d="M147.702 193.894C147.762 193.868 147.826 193.855 147.891 193.854C147.957 193.853 148.022 193.865 148.082 193.89C148.143 193.914 148.198 193.951 148.245 193.997C148.291 194.043 148.329 194.098 148.354 194.158C148.404 194.273 148.981 195.962 149.337 197.006C149.515 197.058 149.675 197.159 149.801 197.296C149.926 197.434 150.013 197.604 150.05 197.787C150.059 198 150 198.21 149.882 198.386C149.765 198.563 149.594 198.697 149.396 198.769C149.219 198.879 149.007 198.916 148.804 198.87C148.585 198.786 148.404 198.624 148.294 198.415C148.189 198.246 148.141 198.046 148.158 197.847C148.176 197.648 148.258 197.46 148.391 197.312C148.003 196.173 147.492 194.683 147.44 194.546C147.39 194.425 147.39 194.288 147.439 194.166C147.488 194.044 147.582 193.947 147.702 193.894Z" fill="#BDBDBD"/>
</g>
<g style="mix-blend-mode:multiply">
<path d="M140.671 178.11C140.743 178.221 140.769 178.356 140.743 178.487C140.717 178.617 140.641 178.732 140.531 178.805C140.462 178.853 140.381 178.881 140.298 178.888C140.209 178.895 140.12 178.878 140.04 178.839C139.96 178.799 139.892 178.739 139.842 178.663L137.483 175.069C136.901 174.899 136.388 174.546 136.018 174.062C135.887 173.852 135.837 173.603 135.875 173.359C135.913 173.114 136.037 172.893 136.225 172.734C136.413 172.576 136.651 172.492 136.896 172.498C137.14 172.504 137.374 172.599 137.554 172.766C138.029 173.183 138.065 173.851 138.276 174.411C138.286 174.437 138.292 174.464 138.295 174.492L140.671 178.11Z" fill="#BDBDBD"/>
</g>
<g style="mix-blend-mode:multiply">
<path d="M154.926 174.988L150.874 180.071C150.833 180.122 150.783 180.165 150.726 180.197C150.668 180.228 150.606 180.248 150.541 180.255C150.476 180.262 150.41 180.256 150.348 180.238C150.285 180.219 150.227 180.189 150.176 180.147C150.125 180.106 150.083 180.055 150.052 179.997C150.021 179.939 150.001 179.876 149.994 179.81C149.987 179.745 149.993 179.678 150.011 179.615C150.029 179.552 150.06 179.493 150.101 179.442L153.902 174.673C153.931 173.871 154.154 173.088 154.55 172.393C155.009 171.762 155.807 172.158 156.259 172.591C156.49 172.777 156.644 173.043 156.69 173.338C156.737 173.633 156.673 173.935 156.51 174.184C156.101 174.643 155.535 174.93 154.926 174.988Z" fill="#BDBDBD"/>
</g>
<g style="mix-blend-mode:multiply">
<path d="M158.02 183.019C157.807 183.073 157.585 183.081 157.369 183.044C157.152 183.007 156.946 182.924 156.763 182.802C155.572 183.361 154.341 183.826 153.08 184.192C153.035 184.196 152.99 184.192 152.947 184.18C152.834 184.151 152.734 184.083 152.666 183.988C152.597 183.893 152.563 183.777 152.571 183.659C152.579 183.541 152.627 183.43 152.708 183.345C152.788 183.26 152.896 183.206 153.012 183.193C153.281 183.118 154.63 182.585 156.064 182.003C156.391 181.573 156.902 180.849 157.457 180.719C158.049 180.58 158.442 181.277 158.576 181.766C158.662 182.007 158.652 182.272 158.548 182.506C158.444 182.739 158.255 182.923 158.02 183.019Z" fill="#BDBDBD"/>
</g>
<g style="mix-blend-mode:multiply">
<path d="M149.477 174.03L148.333 178.935C148.308 179.039 148.252 179.132 148.173 179.201C148.093 179.27 147.994 179.312 147.889 179.32C147.837 179.325 147.784 179.321 147.734 179.308C147.67 179.293 147.61 179.266 147.557 179.227C147.504 179.189 147.459 179.14 147.425 179.084C147.391 179.028 147.368 178.966 147.357 178.901C147.347 178.836 147.349 178.769 147.364 178.705L148.47 173.964C148.461 173.297 148.214 172.581 148.601 171.972C148.746 171.745 148.97 171.583 149.229 171.517C149.488 171.452 149.762 171.488 149.995 171.619C150.224 171.758 150.396 171.974 150.482 172.229C150.567 172.485 150.56 172.762 150.462 173.013C150.266 173.461 149.916 173.823 149.477 174.03Z" fill="#BDBDBD"/>
</g>
<g style="mix-blend-mode:multiply">
<path d="M143.678 172.668C143.718 172.457 143.827 172.265 143.989 172.125C144.15 171.985 144.354 171.904 144.566 171.896C144.781 171.91 144.985 171.995 145.147 172.139C145.309 172.282 145.419 172.475 145.46 172.689C145.495 172.933 145.48 173.182 145.415 173.42C145.35 173.658 145.238 173.88 145.085 174.073L145.183 176.879C145.188 177.008 145.143 177.133 145.058 177.23C144.974 177.326 144.856 177.386 144.728 177.397H144.705C144.573 177.402 144.445 177.353 144.349 177.263C144.252 177.172 144.195 177.046 144.19 176.913L144.09 174.037C143.928 173.853 143.807 173.635 143.736 173.398C143.665 173.162 143.645 172.913 143.678 172.668Z" fill="#BDBDBD"/>
</g>
<g style="mix-blend-mode:multiply">
<path d="M139.848 170.014C139.842 169.712 139.927 169.416 140.091 169.164C140.255 168.912 140.49 168.715 140.766 168.601C141.014 168.508 141.288 168.515 141.531 168.619C141.775 168.724 141.97 168.918 142.077 169.162C142.262 169.926 142.184 170.731 141.855 171.444C141.845 171.471 141.832 171.496 141.815 171.519L143.062 176.96C143.092 177.089 143.07 177.225 143.001 177.338C142.931 177.451 142.821 177.532 142.693 177.562C142.668 177.568 142.643 177.571 142.619 177.573C142.5 177.583 142.381 177.549 142.285 177.478C142.189 177.407 142.121 177.304 142.094 177.186L140.786 171.481C140.422 170.955 139.839 170.763 139.848 170.014Z" fill="#BDBDBD"/>
</g>
<g style="mix-blend-mode:multiply">
<path d="M128.891 179.062C128.925 178.807 129.056 178.577 129.257 178.419C129.458 178.262 129.711 178.19 129.964 178.22C130.487 178.36 130.934 178.704 131.208 179.176L138.871 182.391C138.932 182.416 138.986 182.453 139.032 182.499C139.079 182.546 139.115 182.601 139.14 182.662C139.165 182.723 139.178 182.788 139.178 182.854C139.178 182.92 139.165 182.985 139.14 183.046C139.115 183.107 139.078 183.162 139.032 183.209C138.986 183.255 138.931 183.292 138.871 183.318C138.811 183.343 138.746 183.356 138.681 183.356C138.616 183.356 138.552 183.343 138.491 183.317L131.189 180.253C130.67 180.407 130.12 180.421 129.594 180.294C129.343 180.219 129.13 180.049 128.999 179.82C128.868 179.59 128.829 179.319 128.891 179.062Z" fill="#BDBDBD"/>
</g>
<g style="mix-blend-mode:multiply">
<path d="M132.313 187.629C132.778 187.468 133.286 187.488 133.738 187.685C134.9 187.265 137.134 186.459 137.264 186.414C137.326 186.393 137.391 186.384 137.456 186.388C137.521 186.392 137.585 186.41 137.643 186.439C137.702 186.468 137.754 186.508 137.797 186.558C137.84 186.607 137.873 186.665 137.894 186.727C137.915 186.79 137.924 186.856 137.92 186.921C137.916 186.987 137.899 187.051 137.87 187.111C137.841 187.17 137.801 187.223 137.752 187.266C137.703 187.31 137.646 187.343 137.585 187.364C137.477 187.402 135.687 188.047 134.273 188.56C134.167 188.809 134.002 189.027 133.793 189.197C133.584 189.366 133.338 189.481 133.075 189.532C132.82 189.576 132.557 189.53 132.332 189.402C132.106 189.274 131.931 189.071 131.836 188.828C131.754 188.604 131.757 188.357 131.845 188.135C131.933 187.913 132.1 187.733 132.313 187.629Z" fill="#BDBDBD"/>
</g>
<g style="mix-blend-mode:multiply">
<path d="M135.657 197.204L139.704 192.107C139.745 192.056 139.795 192.013 139.853 191.981C139.91 191.95 139.973 191.93 140.037 191.922C140.102 191.915 140.168 191.921 140.23 191.94C140.293 191.958 140.351 191.989 140.402 192.03C140.453 192.071 140.495 192.122 140.527 192.18C140.558 192.238 140.578 192.301 140.585 192.367C140.592 192.432 140.586 192.499 140.568 192.562C140.55 192.625 140.519 192.684 140.478 192.736L136.664 197.539C136.674 197.579 136.676 197.621 136.671 197.661C136.626 198.267 136.398 198.845 136.016 199.315C135.585 199.74 135.041 199.458 134.632 199.157C134.42 199.039 134.263 198.843 134.192 198.61C134.121 198.377 134.142 198.125 134.251 197.908C134.619 197.507 135.119 197.257 135.657 197.204Z" fill="#BDBDBD"/>
</g>
<g style="mix-blend-mode:multiply">
<path d="M140.016 198.484L142.043 193.59C142.097 193.472 142.194 193.379 142.314 193.331C142.435 193.284 142.568 193.285 142.687 193.336C142.806 193.386 142.901 193.481 142.952 193.601C143.003 193.721 143.006 193.856 142.96 193.978L140.948 198.832C141.124 199.296 141.135 199.808 140.979 200.28C140.751 200.89 140.161 200.706 139.687 200.515C139.455 200.455 139.252 200.315 139.111 200.119C138.971 199.924 138.902 199.685 138.917 199.443C139.012 198.884 139.532 198.632 140.016 198.484Z" fill="#BDBDBD"/>
</g>
</g>
<g style="mix-blend-mode:multiply">
<path d="M154.734 187.898C155.909 182.671 152.669 177.472 147.498 176.285C142.327 175.098 137.184 178.373 136.009 183.6C134.835 188.826 138.075 194.025 143.246 195.212C148.416 196.399 153.56 193.125 154.734 187.898Z" fill="#BDBDBD"/>
</g>
<g style="mix-blend-mode:multiply">
<path d="M136.719 185.601C136.588 184.019 136.925 182.433 137.685 181.044C138.446 179.655 139.597 178.525 140.993 177.797C142.389 177.07 143.967 176.777 145.528 176.955C147.089 177.134 148.562 177.777 149.761 178.802C150.961 179.827 151.833 181.188 152.267 182.714C152.701 184.24 152.677 185.861 152.199 187.374C151.722 188.886 150.811 190.221 149.583 191.211C148.354 192.2 146.863 192.799 145.298 192.932C144.259 193.02 143.212 192.9 142.218 192.58C141.224 192.259 140.303 191.743 139.506 191.063C138.71 190.382 138.053 189.549 137.575 188.612C137.097 187.675 136.806 186.652 136.719 185.601Z" fill="#EEEEEE"/>
</g>
<g style="mix-blend-mode:multiply">
<path d="M147.307 182.696C147.339 183.096 147.808 183.383 148.354 183.336C148.899 183.29 149.316 182.929 149.282 182.53C149.249 182.13 148.78 181.843 148.235 181.889C147.689 181.935 147.274 182.296 147.307 182.696Z" fill="#E0E0E0"/>
</g>
<g style="mix-blend-mode:multiply">
<path d="M145.309 183.923C145.334 184.024 145.397 184.11 145.484 184.165C145.571 184.22 145.675 184.239 145.775 184.218C146.018 184.198 146.202 184.032 146.188 183.848C146.162 183.748 146.1 183.661 146.013 183.606C145.926 183.551 145.821 183.532 145.721 183.553C145.478 183.573 145.294 183.739 145.309 183.923Z" fill="#E0E0E0"/>
</g>
<g style="mix-blend-mode:multiply">
<path d="M146.168 180.411C146.185 180.62 146.445 180.768 146.748 180.742C147.051 180.717 147.282 180.527 147.266 180.318C147.25 180.11 146.989 179.963 146.686 179.988C146.383 180.013 146.149 180.203 146.168 180.411Z" fill="#E0E0E0"/>
</g>
<g style="mix-blend-mode:multiply">
<path d="M138.975 181.444C139.253 181.92 140.047 181.967 140.751 181.551C141.455 181.136 141.799 180.409 141.521 179.933C141.244 179.457 140.449 179.409 139.745 179.825C139.042 180.241 138.699 180.967 138.975 181.444Z" fill="#E0E0E0"/>
</g>
</g>
</g>
<g style="mix-blend-mode:multiply">
<g style="mix-blend-mode:multiply">
<g style="mix-blend-mode:multiply">
<g style="mix-blend-mode:multiply">
<path d="M199.629 51.141C199.54 51.1024 199.461 51.0465 199.394 50.9766C199.327 50.9067 199.274 50.8241 199.239 50.7336C199.203 50.6432 199.186 50.5465 199.187 50.4492C199.189 50.3519 199.209 50.2559 199.248 50.1666C199.286 50.0773 199.341 49.9965 199.41 49.9289C199.479 49.8612 199.561 49.8079 199.651 49.7721C199.74 49.7364 199.836 49.7187 199.932 49.7203C200.028 49.7219 200.123 49.7426 200.212 49.7813L207.484 52.9658C208.397 52.9531 209.388 52.7625 210.172 53.3545C210.488 53.5944 210.704 53.9455 210.777 54.3385C210.85 54.7316 210.775 55.138 210.566 55.4775C209.58 57.3718 207.875 55.5927 206.981 54.3615L199.629 51.141Z" fill="#BDBDBD"/>
</g>
<g style="mix-blend-mode:multiply">
<path d="M196.753 55.9933C196.826 55.9301 196.911 55.8822 197.003 55.8523C197.095 55.8224 197.192 55.8112 197.288 55.8191C197.384 55.8271 197.478 55.8542 197.564 55.8988C197.649 55.9435 197.726 56.0048 197.788 56.0793L204.264 63.7939C204.993 64.0518 205.858 64.0032 206.334 64.7328C206.54 65.0962 206.611 65.5221 206.533 65.9334C206.455 66.3447 206.234 66.7143 205.911 66.9754C205.353 67.4516 204.214 67.8478 203.561 67.3492C202.859 66.8147 203.043 65.6089 203.179 64.7934L196.668 57.0399C196.606 56.9656 196.558 56.8796 196.529 56.7868C196.499 56.6939 196.488 56.5961 196.496 56.4989C196.504 56.4017 196.53 56.307 196.574 56.2202C196.618 56.1335 196.679 56.0564 196.753 55.9933Z" fill="#BDBDBD"/>
</g>
<g style="mix-blend-mode:multiply">
<path d="M193.197 57.9728C193.376 57.896 193.577 57.8938 193.757 57.9668C193.938 58.0398 194.082 58.182 194.158 58.3623C194.232 58.5328 195.083 61.0258 195.609 62.5665C195.871 62.6441 196.108 62.7926 196.293 62.996C196.478 63.1993 196.605 63.4499 196.66 63.7207C196.673 64.0342 196.587 64.3438 196.414 64.6044C196.241 64.865 195.991 65.0632 195.699 65.1702C195.437 65.333 195.123 65.3867 194.823 65.3197C194.5 65.195 194.233 64.9559 194.072 64.6469C193.916 64.3974 193.845 64.1029 193.871 63.8088C193.897 63.5147 194.018 63.2374 194.215 63.0195C193.641 61.3368 192.883 59.1375 192.81 58.9387C192.736 58.7585 192.735 58.5562 192.807 58.3755C192.88 58.1947 193.02 58.0501 193.197 57.9728Z" fill="#BDBDBD"/>
</g>
<g style="mix-blend-mode:multiply">
<path d="M182.82 34.6667C182.927 34.8306 182.966 35.031 182.928 35.224C182.89 35.417 182.777 35.5867 182.615 35.6957C182.453 35.8047 182.255 35.8442 182.064 35.8055C181.873 35.7667 181.705 35.6529 181.597 35.489L178.114 30.1815C177.254 29.9298 176.497 29.4083 175.95 28.6924C175.756 28.3837 175.68 28.0143 175.735 27.653C175.791 27.2917 175.975 26.9632 176.253 26.7289C176.531 26.4947 176.883 26.3706 177.245 26.3799C177.606 26.3892 177.952 26.5312 178.218 26.7794C178.919 27.3954 178.973 28.3806 179.284 29.2044C179.298 29.2429 179.307 29.2831 179.311 29.324L182.82 34.6667Z" fill="#BDBDBD"/>
</g>
<g style="mix-blend-mode:multiply">
<path d="M203.869 30.0537L197.886 37.559C197.764 37.7121 197.587 37.8099 197.393 37.831C197.2 37.8521 197.007 37.7948 196.855 37.6715C196.704 37.5483 196.607 37.3694 196.586 37.174C196.565 36.9786 196.622 36.7829 196.744 36.6298L202.355 29.5895C202.4 28.4063 202.728 27.2517 203.312 26.2256C203.991 25.2941 205.174 25.8787 205.837 26.5186C206.177 26.7933 206.404 27.1867 206.472 27.6216C206.541 28.0566 206.446 28.5017 206.206 28.8696C205.658 29.6665 204.743 29.8362 203.869 30.0537Z" fill="#BDBDBD"/>
</g>
<g style="mix-blend-mode:multiply">
<path d="M208.436 41.9149C208.122 41.9942 207.795 42.0067 207.476 41.9515C207.157 41.8963 206.852 41.7746 206.582 41.5942C202.435 43.2904 201.491 43.6171 201.144 43.647C201.078 43.6534 201.012 43.647 200.949 43.6283C200.781 43.5874 200.633 43.4879 200.53 43.3472C200.428 43.2065 200.378 43.0338 200.389 42.8595C200.4 42.6852 200.472 42.5206 200.592 42.3947C200.712 42.2688 200.872 42.1897 201.044 42.1713C201.441 42.0607 203.433 41.2743 205.55 40.4154C206.034 39.7792 206.788 38.711 207.608 38.5189C208.484 38.3133 209.062 39.3412 209.26 40.0618C209.387 40.4184 209.372 40.811 209.219 41.1567C209.065 41.5025 208.784 41.7744 208.436 41.9149Z" fill="#BDBDBD"/>
</g>
<g style="mix-blend-mode:multiply">
<path d="M195.819 28.6394L194.13 35.8846C194.095 36.0367 194.012 36.1736 193.895 36.2757C193.778 36.3777 193.632 36.4397 193.478 36.4527C193.401 36.4596 193.323 36.4538 193.248 36.4355C193.154 36.4133 193.066 36.3726 192.988 36.3157C192.909 36.2589 192.843 36.187 192.793 36.1043C192.742 36.0215 192.708 35.9294 192.693 35.8334C192.677 35.7373 192.681 35.6392 192.703 35.5445L194.336 28.543C194.324 27.5585 193.958 26.5014 194.53 25.6029C194.744 25.268 195.075 25.0276 195.457 24.9305C195.839 24.8333 196.244 24.8866 196.588 25.0796C196.926 25.2843 197.181 25.6038 197.307 25.981C197.433 26.3582 197.423 26.7684 197.277 27.1384C196.987 27.8006 196.469 28.334 195.819 28.6394Z" fill="#BDBDBD"/>
</g>
<g style="mix-blend-mode:multiply">
<path d="M187.262 26.6314C187.32 26.3202 187.481 26.0381 187.718 25.8313C187.956 25.6245 188.256 25.5052 188.569 25.4929C188.886 25.5128 189.188 25.6384 189.427 25.8502C189.666 26.0619 189.828 26.3477 189.889 26.6628C189.941 27.0236 189.919 27.3913 189.825 27.7432C189.73 28.095 189.565 28.4235 189.339 28.7081L189.487 32.8525C189.494 33.0426 189.428 33.228 189.303 33.3703C189.178 33.5126 189.004 33.601 188.816 33.6172H188.78C188.684 33.6207 188.588 33.605 188.498 33.571C188.407 33.537 188.325 33.4854 188.254 33.4191C188.184 33.3528 188.127 33.2731 188.087 33.1846C188.047 33.0961 188.025 33.0005 188.021 32.9033L187.873 28.6573C187.633 28.3843 187.453 28.0619 187.348 27.7121C187.242 27.3624 187.213 26.9937 187.262 26.6314Z" fill="#BDBDBD"/>
</g>
<g style="mix-blend-mode:multiply">
<path d="M181.605 22.7121C181.597 22.2669 181.723 21.8298 181.965 21.4577C182.207 21.0855 182.554 20.7956 182.961 20.6257C183.327 20.4892 183.731 20.4991 184.091 20.6533C184.45 20.8074 184.738 21.0943 184.896 21.4554C185.317 22.4818 184.909 23.8349 184.567 24.8254C184.552 24.8655 184.533 24.9035 184.508 24.9382L186.35 32.9691C186.394 33.1605 186.361 33.3617 186.258 33.5285C186.156 33.6953 185.992 33.814 185.802 33.8586C185.768 33.8667 185.732 33.8722 185.697 33.8751C185.521 33.8899 185.346 33.8403 185.204 33.7354C185.062 33.6305 184.962 33.4774 184.922 33.304L182.99 24.8799C182.454 24.1032 181.592 23.8184 181.605 22.7121Z" fill="#BDBDBD"/>
</g>
<g style="mix-blend-mode:multiply">
<path d="M165.426 36.072C165.477 35.6964 165.671 35.3558 165.967 35.1235C166.263 34.8912 166.638 34.7856 167.01 34.8296C167.783 35.0364 168.443 35.5438 168.847 36.241L180.162 40.9841C180.337 41.0627 180.475 41.2072 180.546 41.3869C180.617 41.5666 180.616 41.7672 180.542 41.946C180.469 42.1247 180.329 42.2673 180.153 42.3435C179.977 42.4197 179.779 42.4233 179.6 42.3536L168.819 37.834C168.052 38.0613 167.24 38.0824 166.463 37.8953C166.092 37.7832 165.778 37.5317 165.585 37.1925C165.392 36.8533 165.335 36.4523 165.426 36.072Z" fill="#BDBDBD"/>
</g>
<g style="mix-blend-mode:multiply">
<path d="M170.48 48.7213C171.167 48.4841 171.917 48.5137 172.584 48.8043C174.3 48.1846 177.598 46.9938 177.791 46.9272C177.975 46.8639 178.176 46.8771 178.351 46.9638C178.525 47.0506 178.658 47.2039 178.721 47.39C178.784 47.576 178.771 47.7796 178.685 47.956C178.599 48.1324 178.447 48.267 178.263 48.3304C178.104 48.3849 175.461 49.3388 173.374 50.0931C173.218 50.4609 172.975 50.7845 172.667 51.0354C172.358 51.2862 171.993 51.4568 171.604 51.5321C171.228 51.5975 170.84 51.5299 170.507 51.3405C170.174 51.1511 169.916 50.8516 169.776 50.4923C169.654 50.1614 169.659 49.7968 169.789 49.4695C169.92 49.1421 170.166 48.8754 170.48 48.7213Z" fill="#BDBDBD"/>
</g>
<g style="mix-blend-mode:multiply">
<path d="M175.417 62.8638L181.393 55.3383C181.518 55.1949 181.692 55.1057 181.881 55.0892C182.069 55.0727 182.256 55.1303 182.403 55.25C182.55 55.3696 182.646 55.5421 182.671 55.7314C182.695 55.9207 182.646 56.1122 182.534 56.266L176.901 63.3595C176.916 63.4183 176.919 63.4795 176.911 63.5396C176.846 64.4346 176.509 65.2874 175.945 65.9803C175.309 66.6083 174.504 66.1926 173.9 65.7471C173.589 65.5729 173.356 65.2833 173.252 64.9394C173.147 64.5954 173.179 64.2239 173.339 63.9029C173.882 63.3106 174.622 62.9407 175.417 62.8638Z" fill="#BDBDBD"/>
</g>
<g style="mix-blend-mode:multiply">
<path d="M181.852 64.7484L184.847 57.5235C184.922 57.3421 185.065 57.1984 185.245 57.1239C185.425 57.0494 185.627 57.0502 185.806 57.1261C185.986 57.2021 186.128 57.3469 186.202 57.5288C186.275 57.7107 186.275 57.9148 186.199 58.0961L183.229 65.2628C183.489 65.9486 183.505 66.7043 183.275 67.4007C182.939 68.3015 182.068 68.0302 181.367 67.7483C181.025 67.659 180.725 67.4522 180.517 67.1634C180.31 66.8746 180.209 66.5218 180.231 66.1658C180.371 65.3375 181.138 64.9682 181.852 64.7484Z" fill="#BDBDBD"/>
</g>
</g>
<g style="mix-blend-mode:multiply">
<path d="M202.997 51.0783C205.802 43.6895 202.15 35.4014 194.84 32.5661C187.531 29.7309 179.331 33.4222 176.526 40.811C173.721 48.1997 177.373 56.4879 184.683 59.3231C191.993 62.1583 200.192 58.467 202.997 51.0783Z" fill="#BDBDBD"/>
</g>
<g style="mix-blend-mode:multiply">
<path d="M200.22 46.7918C201.341 40.3445 197.079 34.199 190.701 33.0657C184.323 31.9323 178.243 36.2402 177.122 42.6875C176 49.1349 180.262 55.2803 186.641 56.4137C193.019 57.5471 199.099 53.2392 200.22 46.7918Z" fill="#EEEEEE"/>
</g>
<g style="mix-blend-mode:multiply">
<path d="M192.618 41.438C192.667 42.0286 193.358 42.4517 194.164 42.3836C194.97 42.3156 195.582 41.7819 195.533 41.1921C195.485 40.6023 194.794 40.1791 193.987 40.2472C193.18 40.3152 192.569 40.8482 192.618 41.438Z" fill="#E0E0E0"/>
</g>
<g style="mix-blend-mode:multiply">
<path d="M189.669 43.2493C189.705 43.3979 189.798 43.5263 189.926 43.6077C190.054 43.6891 190.209 43.7171 190.357 43.6859C190.716 43.656 190.987 43.4115 190.965 43.1402C190.928 42.9916 190.836 42.8632 190.707 42.7818C190.579 42.7004 190.424 42.6724 190.276 42.7036C189.918 42.7335 189.646 42.978 189.669 43.2493Z" fill="#E0E0E0"/>
</g>
<g style="mix-blend-mode:multiply">
<path d="M190.936 38.0651C190.961 38.3723 191.345 38.5884 191.792 38.5532C192.239 38.5181 192.582 38.2355 192.557 37.9283C192.531 37.621 192.148 37.405 191.701 37.4394C191.253 37.4738 190.911 37.7571 190.936 38.0651Z" fill="#E0E0E0"/>
</g>
<g style="mix-blend-mode:multiply">
<path d="M180.316 39.5892C180.725 40.2926 181.897 40.3637 182.934 39.7477C183.971 39.1317 184.479 38.0612 184.07 37.3556C183.661 36.6499 182.488 36.5804 181.452 37.1963C180.415 37.8123 179.909 38.885 180.316 39.5892Z" fill="#E0E0E0"/>
</g>
</g>
</g>
<g style="mix-blend-mode:multiply">
<g style="mix-blend-mode:multiply">
<g style="mix-blend-mode:multiply">
<g style="mix-blend-mode:multiply">
<path d="M417.915 81.5384C417.827 81.4997 417.747 81.4438 417.68 81.3738C417.613 81.3039 417.56 81.2213 417.525 81.1307C417.489 81.0402 417.472 80.9436 417.474 80.8463C417.475 80.7489 417.496 80.6529 417.534 80.5636C417.572 80.4743 417.628 80.3936 417.697 80.3259C417.766 80.2582 417.848 80.205 417.937 80.1692C418.027 80.1335 418.123 80.1159 418.219 80.1175C418.315 80.1191 418.41 80.1399 418.498 80.1786L425.77 83.3632C426.684 83.3505 427.675 83.1598 428.458 83.7519C428.775 83.9914 428.991 84.3424 429.064 84.7354C429.137 85.1284 429.061 85.5348 428.852 85.8742C427.866 87.7684 426.162 85.99 425.268 84.7581L417.915 81.5384Z" fill="#BDBDBD"/>
</g>
<g style="mix-blend-mode:multiply">
<path d="M415.04 86.3899C415.113 86.3266 415.198 86.2785 415.29 86.2485C415.382 86.2185 415.479 86.2072 415.575 86.2151C415.671 86.223 415.765 86.2501 415.85 86.2947C415.936 86.3393 416.013 86.4006 416.075 86.4751L422.551 94.1905C423.281 94.4477 424.146 94.3991 424.622 95.1294C424.828 95.4927 424.899 95.9185 424.821 96.3299C424.744 96.7413 424.523 97.111 424.199 97.3721C423.641 97.8483 422.502 98.2445 421.849 97.7458C421.147 97.2113 421.331 96.0056 421.467 95.1892L414.959 87.4342C414.833 87.2849 414.77 87.091 414.785 86.8952C414.8 86.6994 414.892 86.5176 415.04 86.3899Z" fill="#BDBDBD"/>
</g>
<g style="mix-blend-mode:multiply">
<path d="M411.484 88.3702C411.572 88.3319 411.667 88.3115 411.763 88.3104C411.86 88.3092 411.955 88.3271 412.044 88.3632C412.134 88.3993 412.215 88.4528 412.284 88.5207C412.353 88.5886 412.407 88.6695 412.445 88.7589C412.519 88.9301 413.37 91.4224 413.896 92.963C414.158 93.0408 414.395 93.1893 414.58 93.3926C414.766 93.5959 414.893 93.8464 414.948 94.1173C414.961 94.4307 414.875 94.7402 414.702 95.0008C414.529 95.2615 414.278 95.4597 413.987 95.5667C413.725 95.7302 413.411 95.7839 413.111 95.7162C412.788 95.5918 412.521 95.3526 412.359 95.0435C412.204 94.7939 412.133 94.4995 412.159 94.2056C412.185 93.9117 412.306 93.6345 412.503 93.4168C411.929 91.7341 411.172 89.5341 411.098 89.336C411.023 89.156 411.022 88.9537 411.095 88.7729C411.167 88.5921 411.307 88.4474 411.484 88.3702Z" fill="#BDBDBD"/>
</g>
<g style="mix-blend-mode:multiply">
<path d="M401.106 65.0634C401.159 65.1445 401.196 65.2354 401.214 65.3309C401.233 65.4264 401.232 65.5247 401.213 65.6201C401.194 65.7154 401.157 65.8061 401.103 65.8868C401.049 65.9675 400.98 66.0368 400.9 66.0906C400.798 66.1598 400.68 66.2015 400.557 66.2117C400.426 66.223 400.294 66.1984 400.176 66.1406C400.057 66.0827 399.956 65.9936 399.884 65.8827L396.401 60.5752C395.541 60.3241 394.783 59.8028 394.236 59.0868C394.043 58.7781 393.968 58.4089 394.024 58.0481C394.08 57.6873 394.264 57.3594 394.541 57.1254C394.819 56.8915 395.171 56.7674 395.532 56.7763C395.893 56.7852 396.239 56.9265 396.505 57.1739C397.206 57.7898 397.26 58.7751 397.57 59.5981C397.584 59.6365 397.594 59.6768 397.597 59.7178L401.106 65.0634Z" fill="#BDBDBD"/>
</g>
<g style="mix-blend-mode:multiply">
<path d="M422.156 60.4534L416.173 67.9594C416.112 68.0352 416.038 68.0983 415.953 68.1449C415.869 68.1916 415.776 68.2209 415.68 68.2313C415.584 68.2417 415.488 68.233 415.395 68.2056C415.303 68.1782 415.217 68.1326 415.142 68.0716C415.067 68.0105 415.004 67.9351 414.958 67.8497C414.912 67.7643 414.883 67.6705 414.873 67.5738C414.862 67.477 414.871 67.3791 414.898 67.2857C414.925 67.1924 414.97 67.1053 415.031 67.0295L420.642 59.9892C420.687 58.806 421.015 57.6514 421.599 56.6252C422.278 55.6938 423.46 56.2784 424.123 56.9183C424.464 57.1929 424.69 57.5865 424.759 58.0216C424.827 58.4568 424.732 58.9021 424.492 59.27C423.944 60.0632 423.03 60.2329 422.156 60.4534Z" fill="#BDBDBD"/>
</g>
<g style="mix-blend-mode:multiply">
<path d="M426.723 72.3121C426.409 72.3912 426.082 72.4035 425.762 72.3481C425.443 72.2928 425.139 72.1711 424.869 71.9907C420.721 73.6869 419.777 74.0143 419.43 74.0435C419.365 74.0496 419.299 74.0436 419.236 74.0255C419.068 73.9846 418.919 73.8851 418.817 73.7444C418.714 73.6037 418.664 73.431 418.676 73.2567C418.687 73.0825 418.759 72.9178 418.879 72.7919C418.998 72.666 419.158 72.5869 419.33 72.5686C419.728 72.4572 421.72 71.6715 423.836 70.8118C424.32 70.1764 425.074 69.1082 425.894 68.9161C426.771 68.7105 427.348 69.7384 427.546 70.4582C427.674 70.8148 427.659 71.2076 427.506 71.5536C427.352 71.8996 427.071 72.1716 426.723 72.3121Z" fill="#BDBDBD"/>
</g>
<g style="mix-blend-mode:multiply">
<path d="M414.106 59.0368L412.416 66.2789C412.381 66.4312 412.299 66.5682 412.182 66.6704C412.064 66.7725 411.918 66.8346 411.764 66.8478C411.687 66.8539 411.61 66.8481 411.535 66.8306C411.346 66.7853 411.182 66.666 411.08 66.4988C410.977 66.3315 410.945 66.1301 410.99 65.9388L412.623 58.9381C412.611 57.9536 412.245 56.8965 412.816 55.9973C413.03 55.6622 413.361 55.4217 413.744 55.3245C414.126 55.2273 414.531 55.2808 414.875 55.474C415.213 55.6787 415.467 55.9979 415.593 56.3748C415.72 56.7516 415.709 57.1615 415.564 57.5312C415.275 58.1952 414.757 58.7303 414.106 59.0368Z" fill="#BDBDBD"/>
</g>
<g style="mix-blend-mode:multiply">
<path d="M405.547 57.0289C405.606 56.7177 405.767 56.4358 406.005 56.2289C406.242 56.0221 406.542 55.9025 406.855 55.8896C407.172 55.9097 407.474 56.0355 407.713 56.2471C407.952 56.4588 408.114 56.7445 408.176 57.0596C408.227 57.4203 408.204 57.7878 408.109 58.1393C408.013 58.4907 407.848 58.8186 407.621 59.1026L407.769 63.2462C407.776 63.4364 407.71 63.6218 407.585 63.7641C407.46 63.9064 407.285 63.9948 407.098 64.0109H407.062C406.868 64.0178 406.678 63.9464 406.536 63.8124C406.394 63.6784 406.31 63.4927 406.303 63.2963L406.155 59.051C405.916 58.778 405.737 58.456 405.632 58.107C405.528 57.758 405.499 57.3903 405.547 57.0289Z" fill="#BDBDBD"/>
</g>
<g style="mix-blend-mode:multiply">
<path d="M399.891 53.1087C399.884 52.6635 400.009 52.2264 400.251 51.8544C400.493 51.4823 400.84 51.1926 401.248 51.023C401.614 50.8867 402.018 50.8966 402.377 51.0506C402.737 51.2046 403.025 51.4912 403.182 51.8521C403.604 52.8784 403.196 54.2322 402.853 55.222C402.839 55.2623 402.819 55.3004 402.794 55.3349L404.637 63.3679C404.659 63.4627 404.662 63.5609 404.646 63.6569C404.63 63.7529 404.596 63.8448 404.545 63.9274C404.494 64.01 404.427 64.0816 404.349 64.1381C404.271 64.1946 404.182 64.2349 404.088 64.2568C403.994 64.2793 403.897 64.2828 403.802 64.2671C403.707 64.2514 403.616 64.2167 403.534 64.1651C403.452 64.1135 403.381 64.046 403.326 63.9665C403.27 63.8871 403.23 63.7972 403.209 63.7021L401.277 55.278C400.74 54.4984 399.878 54.215 399.891 53.1087Z" fill="#BDBDBD"/>
</g>
<g style="mix-blend-mode:multiply">
<path d="M383.712 66.4686C383.763 66.0931 383.958 65.7527 384.254 65.5205C384.55 65.2882 384.925 65.1826 385.297 65.2262C386.07 65.4331 386.73 65.9405 387.133 66.6375L398.449 71.3814C398.537 71.4187 398.618 71.4733 398.686 71.5421C398.754 71.6109 398.808 71.6926 398.845 71.7825C398.882 71.8724 398.901 71.9687 398.901 72.066C398.901 72.1633 398.882 72.2596 398.845 72.3495C398.808 72.4394 398.754 72.521 398.686 72.5898C398.618 72.6586 398.537 72.7131 398.448 72.7503C398.359 72.7875 398.264 72.8067 398.168 72.8066C398.071 72.8066 397.976 72.7874 397.887 72.7502L387.105 68.2305C386.338 68.4582 385.527 68.4793 384.75 68.2918C384.379 68.1799 384.065 67.9285 383.872 67.5893C383.679 67.2501 383.622 66.849 383.712 66.4686Z" fill="#BDBDBD"/>
</g>
<g style="mix-blend-mode:multiply">
<path d="M388.766 79.1187C389.454 78.8812 390.203 78.9106 390.87 79.201C392.586 78.5812 395.885 77.3904 396.078 77.3246C396.169 77.2918 396.266 77.2777 396.363 77.2831C396.46 77.2885 396.555 77.3133 396.642 77.356C396.729 77.3987 396.807 77.4586 396.872 77.532C396.936 77.6055 396.985 77.6911 397.016 77.7839C397.048 77.8768 397.06 77.975 397.054 78.0728C397.047 78.1707 397.022 78.2662 396.978 78.3539C396.935 78.4417 396.875 78.5198 396.801 78.5839C396.728 78.6479 396.642 78.6966 396.55 78.727C396.39 78.7823 393.748 79.7362 391.66 80.4897C391.504 80.8575 391.261 81.1811 390.953 81.4321C390.645 81.6831 390.28 81.8539 389.891 81.9295C389.515 81.9947 389.127 81.9269 388.794 81.7376C388.461 81.5483 388.202 81.2489 388.062 80.8897C387.941 80.5587 387.946 80.194 388.076 79.8667C388.206 79.5393 388.452 79.2727 388.766 79.1187Z" fill="#BDBDBD"/>
</g>
<g style="mix-blend-mode:multiply">
<path d="M393.703 93.2614L399.679 85.7359C399.739 85.66 399.814 85.5969 399.898 85.5501C399.983 85.5033 400.075 85.4737 400.171 85.4631C400.267 85.4526 400.363 85.4611 400.456 85.4884C400.548 85.5156 400.635 85.561 400.71 85.6219C400.785 85.6828 400.847 85.7581 400.893 85.8434C400.94 85.9287 400.969 86.0224 400.979 86.1191C400.99 86.2159 400.981 86.3137 400.954 86.4071C400.928 86.5006 400.883 86.5877 400.822 86.6636L395.19 93.757C395.205 93.8156 395.208 93.8765 395.2 93.9364C395.135 94.8314 394.797 95.684 394.233 96.3771C393.597 97.0051 392.793 96.5902 392.189 96.1447C391.877 95.9707 391.644 95.6812 391.54 95.3372C391.435 94.9931 391.467 94.6215 391.628 94.3005C392.17 93.7084 392.909 93.3386 393.703 93.2614Z" fill="#BDBDBD"/>
</g>
<g style="mix-blend-mode:multiply">
<path d="M400.139 95.1459L403.133 87.9209C403.17 87.8311 403.224 87.7497 403.293 87.6811C403.361 87.6126 403.442 87.5583 403.531 87.5214C403.62 87.4845 403.716 87.4657 403.812 87.4661C403.908 87.4665 404.004 87.486 404.092 87.5236C404.181 87.5612 404.262 87.6161 404.33 87.6852C404.398 87.7543 404.451 87.8362 404.488 87.9263C404.524 88.0163 404.543 88.1128 404.542 88.2101C404.542 88.3075 404.523 88.4038 404.486 88.4935L401.515 95.6602C401.775 96.3463 401.791 97.1022 401.561 97.7989C401.225 98.6997 400.354 98.4276 399.653 98.1458C399.311 98.0565 399.011 97.8496 398.804 97.5608C398.597 97.272 398.496 96.9192 398.518 96.5633C398.658 95.738 399.425 95.3649 400.139 95.1459Z" fill="#BDBDBD"/>
</g>
</g>
<g style="mix-blend-mode:multiply">
<path d="M393.921 77.5354C393.687 74.7112 394.288 71.8804 395.646 69.4009C397.004 66.9215 399.059 64.9049 401.551 63.606C404.043 62.3071 406.86 61.7843 409.646 62.1038C412.432 62.4232 415.061 63.5705 417.202 65.4006C419.343 67.2307 420.899 69.6614 421.673 72.3853C422.447 75.1092 422.405 78.004 421.552 80.7036C420.698 83.4032 419.072 85.7864 416.879 87.5519C414.686 89.3173 412.024 90.3857 409.23 90.6219C407.374 90.7788 405.507 90.5648 403.733 89.9921C401.96 89.4193 400.315 88.499 398.894 87.2838C397.472 86.0686 396.301 84.5822 395.448 82.9096C394.595 81.2369 394.076 79.4108 393.921 77.5354Z" fill="#BDBDBD"/>
</g>
<g style="mix-blend-mode:multiply">
<path d="M416.1 82.5584C420.155 77.4543 419.349 69.9938 414.3 65.8947C409.25 61.7957 401.869 62.6104 397.814 67.7144C393.759 72.8184 394.565 80.279 399.614 84.378C404.664 88.4771 412.045 87.6624 416.1 82.5584Z" fill="#EEEEEE"/>
</g>
<g style="mix-blend-mode:multiply">
<path d="M410.907 71.8353C410.956 72.4251 411.646 72.8482 412.453 72.7802C413.26 72.7122 413.871 72.1822 413.822 71.5886C413.773 70.9951 413.083 70.5757 412.276 70.6437C411.47 70.7117 410.856 71.2432 410.907 71.8353Z" fill="#E0E0E0"/>
</g>
<g style="mix-blend-mode:multiply">
<path d="M407.955 73.6467C407.992 73.7951 408.085 73.9234 408.213 74.0046C408.342 74.0858 408.496 74.1137 408.644 74.0825C409.002 74.0526 409.274 73.8081 409.252 73.5368C409.215 73.3883 409.123 73.26 408.994 73.1786C408.866 73.0973 408.711 73.0692 408.563 73.1002C408.205 73.1309 407.933 73.3753 407.955 73.6467Z" fill="#E0E0E0"/>
</g>
<g style="mix-blend-mode:multiply">
<path d="M409.223 68.4617C409.248 68.7689 409.631 68.985 410.079 68.9498C410.527 68.9147 410.868 68.6321 410.843 68.3249C410.818 68.0177 410.434 67.8016 409.987 67.8368C409.54 67.8719 409.197 68.1545 409.223 68.4617Z" fill="#E0E0E0"/>
</g>
<g style="mix-blend-mode:multiply">
<path d="M398.605 69.9858C399.014 70.69 400.187 70.761 401.223 70.145C402.26 69.5291 402.769 68.4586 402.36 67.7529C401.951 67.0472 400.778 66.9777 399.741 67.5944C398.703 68.2111 398.196 69.2816 398.605 69.9858Z" fill="#E0E0E0"/>
</g>
</g>
</g>
</g>
</svg>
