<svg width="554" height="320" viewBox="0 0 554 320" fill="none" xmlns="http://www.w3.org/2000/svg">
<g clip-path="url(#clip0)">
<path opacity="0.54" d="M417.185 3H330V61.9251H417.185V3Z" fill="#EEEEEE"/>
<path opacity="0.54" d="M513.958 3H426.773V61.9251H513.958V3Z" fill="#EEEEEE"/>
<path opacity="0.54" d="M417.185 70.5848H330V129.51H417.185V70.5848Z" fill="#EEEEEE"/>
<path opacity="0.54" d="M513.958 70.5848H426.773V129.51H513.958V70.5848Z" fill="#EEEEEE"/>
<g opacity="0.54">
<g opacity="0.54">
<g opacity="0.54">
<g opacity="0.54">
<path opacity="0.54" d="M258.139 8.05408H213.65C212.642 8.05674 211.676 8.45828 210.963 9.17095C210.251 9.88361 209.849 10.8494 209.846 11.8573V53.7042C209.849 54.7119 210.251 55.6776 210.964 56.3902C211.676 57.1028 212.642 57.5045 213.65 57.5073H258.139C259.146 57.5042 260.112 57.1026 260.825 56.39C261.537 55.6774 261.939 54.7119 261.942 53.7042V11.8573C261.939 10.8495 261.537 9.8838 260.825 9.17119C260.112 8.45858 259.147 8.05696 258.139 8.05408ZM256.657 51.8446H216.64V14.0943H256.656L256.657 51.8446Z" fill="#EEEEEE"/>
</g>
</g>
<g opacity="0.75">
<path opacity="0.75" d="M247.974 21.6443H225.324V44.2945H247.974V21.6443Z" fill="#EEEEEE"/>
</g>
</g>
</g>
<g opacity="0.54">
<g opacity="0.54">
<g opacity="0.54">
<g opacity="0.54">
<path opacity="0.54" d="M294.738 68.879H261.633C260.883 68.8812 260.164 69.1801 259.634 69.7103C259.104 70.2405 258.805 70.9589 258.803 71.7087V102.845C258.805 103.594 259.104 104.313 259.634 104.843C260.164 105.373 260.883 105.672 261.633 105.674H294.738C295.488 105.672 296.206 105.373 296.737 104.843C297.267 104.313 297.566 103.594 297.568 102.845V71.7062C297.565 70.9568 297.266 70.239 296.736 69.7094C296.206 69.1797 295.488 68.8812 294.738 68.879ZM293.635 101.461H263.859V73.3733H293.632L293.635 101.461Z" fill="#EEEEEE"/>
</g>
</g>
<g opacity="0.75">
<path opacity="0.75" d="M287.172 78.9906H270.319V95.8435H287.172V78.9906Z" fill="#EEEEEE"/>
</g>
</g>
</g>
<g opacity="0.54">
<g opacity="0.54">
<g opacity="0.54">
<g opacity="0.54">
<path opacity="0.54" d="M324.109 19.625H291.006C290.257 19.6272 289.538 19.9262 289.008 20.4565C288.477 20.9869 288.179 21.7056 288.177 22.4555V53.5914C288.179 54.3412 288.478 55.0597 289.008 55.5899C289.538 56.1201 290.257 56.4189 291.006 56.4211H324.109C324.858 56.4189 325.577 56.1201 326.107 55.5899C326.637 55.0597 326.936 54.3412 326.938 53.5914V22.4555C326.936 21.7057 326.637 20.9871 326.107 20.4568C325.577 19.9265 324.859 19.6274 324.109 19.625ZM323.006 52.2077H293.233V24.1192H323.006V52.2077Z" fill="#EEEEEE"/>
</g>
</g>
<g opacity="0.75">
<path opacity="0.75" d="M316.546 29.7374H299.693V46.5903H316.546V29.7374Z" fill="#EEEEEE"/>
</g>
</g>
</g>
<path opacity="0.75" d="M113.744 15.6688H102.908V50.3456H113.744V15.6688Z" fill="#EEEEEE"/>
<path opacity="0.39" d="M122.413 24.3378H113.744V50.3456H122.413V24.3378Z" fill="#EEEEEE"/>
<path d="M92.4008 18.1161L81.9166 14.1304L69.4842 46.8331L79.9684 50.8188L92.4008 18.1161Z" fill="#EEEEEE"/>
<path opacity="0.39" d="M102.907 6.27771H92.0711V50.3465H102.907V6.27771Z" fill="#EEEEEE"/>
<path opacity="0.75" d="M78.7196 100.494H87.0523V73.8298H78.7196V100.494Z" fill="#EEEEEE"/>
<path opacity="0.39" d="M72.0539 100.494H78.7195V80.4963H72.0539V100.494Z" fill="#EEEEEE"/>
<path opacity="0.39" d="M87.0514 100.494H95.3842V66.6084H87.0514V100.494Z" fill="#EEEEEE"/>
<path opacity="0.54" d="M134.949 50.3717H39.6755C39.0111 50.3717 38.4725 50.9103 38.4725 51.5747V54.5952C38.4725 55.2596 39.0111 55.7982 39.6755 55.7982H134.949C135.614 55.7982 136.152 55.2596 136.152 54.5952V51.5747C136.152 50.9103 135.614 50.3717 134.949 50.3717Z" fill="#EEEEEE"/>
<path opacity="0.54" d="M106.869 105.971L11.5929 105.971C11.2738 105.971 10.9679 105.844 10.7422 105.619C10.5166 105.393 10.3899 105.087 10.3899 104.768V101.748C10.3899 101.428 10.5166 101.123 10.7422 100.897C10.9679 100.671 11.2738 100.545 11.5929 100.545L106.869 100.545C107.027 100.545 107.183 100.576 107.329 100.636C107.475 100.697 107.607 100.785 107.719 100.897C107.831 101.009 107.919 101.141 107.979 101.287C108.04 101.433 108.071 101.59 108.071 101.748V104.769C108.071 105.088 107.944 105.394 107.719 105.619C107.493 105.844 107.187 105.971 106.869 105.971V105.971Z" fill="#EEEEEE"/>
<path opacity="0.75" d="M17.3281 87.8993L17.2918 100.901L58.8981 101.017L58.9344 88.0154L17.3281 87.8993Z" fill="#EEEEEE"/>
<path opacity="0.39" d="M17.3572 77.4976L17.3279 87.8992L48.5327 87.9869L48.5619 77.5853L17.3572 77.4976Z" fill="#EEEEEE"/>
<path d="M319.474 311.896H352.774C353.478 311.896 354.049 311.325 354.049 310.621V309.912C354.049 309.208 353.478 308.637 352.774 308.637H319.474C318.77 308.637 318.199 309.208 318.199 309.912V310.621C318.199 311.325 318.77 311.896 319.474 311.896Z" fill="#006430"/>
<path d="M361.597 311.896H337.925V296.67C337.925 296.068 338.164 295.491 338.59 295.065C339.016 294.639 339.593 294.4 340.195 294.4H347.902C351.534 294.4 355.017 295.843 357.586 298.411C360.154 300.979 361.597 304.463 361.597 308.095V311.896Z" fill="#16A75C"/>
<path d="M273.275 320.496H306.575C307.279 320.496 307.85 319.925 307.85 319.221V318.512C307.85 317.808 307.279 317.237 306.575 317.237H273.275C272.571 317.237 272 317.808 272 318.512V319.221C272 319.925 272.571 320.496 273.275 320.496Z" fill="#006430"/>
<path d="M315.398 320.496H291.726V305.27C291.726 304.668 291.965 304.091 292.391 303.665C292.817 303.239 293.394 303 293.996 303H301.703C305.335 303 308.819 304.443 311.387 307.011C313.955 309.579 315.398 313.063 315.398 316.695V320.496Z" fill="#16A75C"/>
<path d="M110.315 183.119L110.339 186.167H110.414L110.398 185.624H119.919V186.053L120.339 186.048L134.318 178.878L134.439 167.249L114.803 176.112C113.457 176.72 112.316 177.706 111.519 178.95C110.723 180.194 110.304 181.642 110.315 183.119Z" fill="#212121"/>
<path d="M450.409 183.119C450.42 181.642 450.002 180.193 449.206 178.949C448.409 177.705 447.268 176.719 445.922 176.111L426.285 167.248L426.406 178.877L440.385 186.047L440.805 186.052V185.337H450.325L450.302 186.169H450.386L450.409 183.119Z" fill="#212121"/>
<path d="M110.398 185.624L110.414 186.167L113.472 291.129H119.919V185.624L110.398 185.624Z" fill="#424242"/>
<path d="M440.806 185.337V291.129H447.253L450.303 186.167L450.327 185.333L440.806 185.337Z" fill="#424242"/>
<path d="M406.852 126.758H343.441C340.16 126.755 336.918 127.467 333.941 128.845C332.816 124.782 330.389 121.199 327.034 118.646C323.679 116.092 319.579 114.709 315.362 114.708H245.2C240.943 114.708 236.806 116.117 233.434 118.714C230.062 121.311 227.643 124.951 226.556 129.066C223.454 127.544 220.043 126.754 216.588 126.758H153.176C147.167 126.758 141.405 129.145 137.156 133.393C132.908 137.642 130.521 143.405 130.521 149.413V207.738H429.508V149.413C429.508 146.438 428.922 143.492 427.783 140.743C426.645 137.995 424.976 135.497 422.872 133.393C420.768 131.29 418.271 129.621 415.522 128.482C412.774 127.344 409.828 126.758 406.852 126.758Z" fill="#424242"/>
<path d="M440.89 220.271H119.379V252.084H440.89V220.271Z" fill="#212121"/>
<path d="M130.521 207.738L119.248 220.285L440.167 220.271L429.509 207.738H130.521Z" fill="#616161"/>
<path d="M441.372 252.084H119.379V267.991H441.372V252.084Z" fill="#424242"/>
<path d="M172.795 203.003L165.921 139.581C165.603 136.657 164.138 133.98 161.847 132.137C159.556 130.294 156.626 129.437 153.703 129.753L132.584 132.038C130.801 132.231 129.093 132.855 127.605 133.856C126.644 132.891 125.413 132.239 124.075 131.987C120.952 131.362 118.027 132.828 117.542 135.254C117.057 137.68 119.193 140.157 122.315 140.781C122.515 140.82 122.713 140.852 122.91 140.875C122.686 141.988 122.635 143.128 122.758 144.256L129.632 207.677C129.701 208.274 129.818 208.864 129.982 209.442C128.788 209.902 127.748 210.689 126.98 211.712C125.041 214.238 125.061 217.513 127.026 219.016C128.991 220.52 132.154 219.699 134.094 217.174C134.388 216.783 134.641 216.363 134.85 215.921C136.941 217.216 139.404 217.775 141.848 217.509L162.968 215.22C165.891 214.903 168.569 213.437 170.411 211.146C172.254 208.855 173.112 205.926 172.795 203.003Z" fill="white"/>
<path opacity="0.15" d="M150.788 171.789C152.898 190.681 150.122 206.498 144.589 207.116C139.055 207.734 132.859 192.919 130.749 174.026C128.64 155.132 131.415 139.316 136.949 138.698C142.484 138.08 148.679 152.895 150.788 171.789Z" fill="#4DC27E"/>
<path d="M221.565 116.25L205.14 78.1428L192.722 84.352L194.748 90.3889C190.615 88.552 185.626 88.119 179.855 88.8202C173.987 89.217 168.085 90.9714 162.301 91.8802C154.64 93.084 146.844 93.8541 140.436 98.7014C134.346 103.309 131.473 110.387 130.971 117.838C130.808 121.357 130.864 124.884 131.139 128.396C131.139 131.978 131.56 135.61 131.767 139.186C131.973 142.761 132.231 146.324 132.523 149.891C132.851 153.694 133.213 157.494 133.61 161.29L133.756 162.697L134.123 163.757C134.306 164.283 134.527 164.795 134.783 165.29C135.069 165.833 135.4 166.352 135.772 166.841C136.154 167.342 136.579 167.809 137.042 168.237C137.48 168.641 137.951 169.009 138.45 169.336C139.856 170.257 141.453 170.847 143.12 171.06C143.381 171.093 143.644 171.118 143.908 171.137C144.187 171.155 144.348 171.155 144.574 171.159C145.03 171.163 145.342 171.143 145.686 171.117C146.029 171.091 146.265 171.056 146.558 171.016L147.269 170.891C147.95 170.75 148.622 170.566 149.279 170.341C149.427 170.29 149.558 170.241 149.695 170.191L150.557 188.66C150.741 190.562 155.45 192.165 157.331 191.829L209.055 182.606C209.203 182.58 209.344 182.523 209.47 182.44C209.596 182.357 209.704 182.25 209.787 182.124C209.87 181.998 209.926 181.857 209.953 181.709C209.98 181.56 209.976 181.408 209.942 181.261L202.299 148.541L213.432 141.761C217.635 139.203 220.772 135.213 222.266 130.526C223.761 125.838 223.511 120.769 221.565 116.25Z" fill="#16A75C"/>
<path opacity="0.67" d="M149.738 170.575L185.787 144.503L149.738 173.246V170.575Z" fill="#006430"/>
<path opacity="0.67" d="M149.515 117.848L156.265 140.905L175.996 130.223L153.595 147.136L149.515 117.848Z" fill="#006430"/>
<path d="M179.949 116.813C180.614 116.03 181.494 115.459 182.48 115.17C183.466 114.881 184.515 114.887 185.497 115.186C186.543 115.504 187.508 116.042 188.328 116.764C189.148 117.486 189.804 118.376 190.251 119.373L201.826 145.195L196.623 145.984C194.206 146.351 192.015 147.608 190.48 149.51C189.495 150.728 188.168 151.623 186.669 152.078C185.17 152.532 183.569 152.526 182.073 152.06L179.104 151.136L178.547 120.75C178.519 119.31 179.018 117.91 179.949 116.813Z" fill="white"/>
<path d="M186.273 118.832L197.237 145.89C194.635 146.285 192.248 147.563 190.476 149.51L186.273 118.832Z" fill="#E8E8E8"/>
<path d="M171.588 138.666C171.481 137.62 171.623 136.564 172.003 135.584C172.688 134.224 173.63 133.01 174.777 132.008C175.806 130.919 176.987 129.985 178.283 129.234C178.556 129.076 178.815 128.93 179.053 128.797C181.699 127.435 184.139 125.706 186.301 123.662L188.367 121.579C188.718 121.228 189.194 121.029 189.691 121.027C190.187 121.025 190.665 121.22 191.019 121.568L191.144 121.692C191.432 121.981 191.618 122.357 191.674 122.762C191.729 123.167 191.651 123.579 191.451 123.935C191.51 123.91 191.57 123.884 191.632 123.861L191.857 123.634C192.208 123.283 192.683 123.084 193.18 123.083C193.676 123.081 194.153 123.276 194.507 123.625L194.631 123.749C194.983 124.1 195.181 124.576 195.183 125.073C195.184 125.57 194.989 126.048 194.639 126.401L194.61 126.431C195.045 126.453 195.458 126.629 195.777 126.926L195.906 127.046C196.266 127.388 196.477 127.858 196.491 128.355C196.506 128.851 196.324 129.333 195.985 129.696L195.321 130.4C195.309 130.448 195.304 130.489 195.29 130.538L195.311 130.636C195.583 130.54 195.875 130.517 196.158 130.568C196.442 130.619 196.707 130.744 196.928 130.928L197.047 131.029C197.384 131.314 197.594 131.721 197.631 132.161C197.668 132.601 197.529 133.037 197.246 133.375L195.322 135.654C195.291 135.776 189.236 142.233 184.387 147.171C183.894 147.739 183.292 148.202 182.617 148.532C181.941 148.862 181.206 149.052 180.456 149.092C178.833 148.969 177.304 148.283 176.133 147.153C173.609 144.993 171.987 141.964 171.588 138.666Z" fill="#F4A386"/>
<path d="M185.451 130.142C185.389 130.142 185.328 130.123 185.276 130.089C185.224 130.054 185.184 130.005 185.16 129.947C185.136 129.89 185.13 129.827 185.142 129.766C185.154 129.705 185.184 129.649 185.227 129.604L191.218 123.568C191.277 123.509 191.357 123.475 191.441 123.475C191.525 123.475 191.605 123.508 191.664 123.567C191.724 123.626 191.757 123.706 191.758 123.79C191.758 123.873 191.725 123.954 191.666 124.013L185.675 130.048C185.646 130.078 185.611 130.101 185.573 130.117C185.534 130.133 185.493 130.142 185.451 130.142Z" fill="#FF8E77"/>
<path d="M187.889 133.262C187.848 133.262 187.807 133.254 187.769 133.238C187.731 133.223 187.696 133.2 187.667 133.17C187.608 133.111 187.575 133.031 187.575 132.948C187.575 132.864 187.608 132.784 187.667 132.725L193.657 126.69C193.716 126.63 193.796 126.596 193.879 126.596C193.963 126.595 194.044 126.628 194.103 126.687C194.163 126.746 194.196 126.826 194.197 126.91C194.197 126.994 194.164 127.074 194.106 127.134L188.116 133.169C188.086 133.199 188.051 133.222 188.012 133.238C187.973 133.254 187.931 133.262 187.889 133.262Z" fill="#FF8E77"/>
<path d="M189.37 137.175C189.29 137.176 189.213 137.146 189.155 137.091C189.094 137.034 189.058 136.955 189.055 136.872C189.052 136.788 189.082 136.707 189.139 136.646L194.945 130.432C195.002 130.372 195.081 130.337 195.164 130.335C195.247 130.332 195.327 130.363 195.388 130.419C195.449 130.476 195.485 130.554 195.488 130.638C195.491 130.721 195.461 130.801 195.405 130.863L189.605 137.076C189.575 137.108 189.538 137.133 189.498 137.15C189.458 137.168 189.414 137.176 189.37 137.175Z" fill="#FF8E77"/>
<path d="M271.473 199.947L277.926 187.926C277.961 187.866 278 187.808 278.042 187.753C278.294 187.386 278.672 187.125 279.103 187.016C279.534 186.908 279.991 186.961 280.386 187.164L289.966 192.105L301.987 179.708C302.338 179.346 302.764 179.066 303.236 178.887C303.707 178.708 304.212 178.634 304.714 178.672C305.217 178.709 305.705 178.857 306.145 179.104C306.584 179.351 306.964 179.692 307.257 180.102C307.649 180.65 307.9 181.286 307.987 181.955C308.074 182.623 307.995 183.302 307.757 183.933L299.042 206.949C298.703 207.846 298.032 208.577 297.168 208.993C296.305 209.409 295.314 209.476 294.402 209.182L292.795 208.56L272.93 203.302C272.591 203.21 272.276 203.044 272.01 202.814C271.744 202.585 271.533 202.298 271.393 201.976C271.253 201.653 271.188 201.304 271.202 200.952C271.216 200.601 271.308 200.258 271.473 199.947Z" fill="#FFB900"/>
<path d="M281.279 184.328L256.583 173.625L226.938 191.316L277.856 205.977L283.48 189.27C283.799 188.32 283.749 187.286 283.342 186.37C282.934 185.455 282.198 184.726 281.279 184.328Z" fill="#EEEEEE"/>
<path d="M300.014 214.668L302.856 201.324C302.874 201.256 302.896 201.19 302.92 201.125C303.06 200.703 303.349 200.346 303.733 200.121C304.117 199.896 304.57 199.819 305.007 199.904L315.584 201.976L323.67 186.719C323.906 186.274 324.237 185.886 324.639 185.582C325.042 185.279 325.506 185.067 325.999 184.963C326.492 184.859 327.002 184.864 327.493 184.979C327.984 185.094 328.444 185.315 328.84 185.627C329.369 186.044 329.788 186.585 330.058 187.203C330.328 187.82 330.441 188.495 330.388 189.167L328.441 213.702C328.366 214.658 327.926 215.548 327.212 216.188C326.498 216.828 325.566 217.169 324.608 217.141L322.891 216.992L302.349 217.483C301.997 217.49 301.649 217.417 301.329 217.271C301.01 217.125 300.727 216.908 300.503 216.638C300.279 216.367 300.118 216.05 300.034 215.708C299.949 215.367 299.942 215.012 300.014 214.668V214.668Z" fill="#FFB900"/>
<path d="M320.531 210.059C319.861 211.095 319.488 212.295 319.451 213.528C319.414 214.761 319.716 215.98 320.323 217.054L322.891 216.993L324.608 217.142C325.566 217.17 326.498 216.829 327.212 216.189C327.926 215.549 328.366 214.659 328.441 213.703L328.93 207.546C327.46 206.898 325.807 206.795 324.268 207.256C322.728 207.716 321.404 208.71 320.531 210.059Z" fill="#FFE483"/>
<path d="M178.321 219.131L304.506 218.687C305.326 218.684 306.115 218.368 306.71 217.803C307.305 217.238 307.662 216.467 307.707 215.648L308.615 199.311C308.644 198.794 308.472 198.286 308.134 197.892C307.797 197.499 307.321 197.251 306.806 197.201L244.939 191.123L167.697 192.552L167.829 209.225C167.839 210.573 168.122 211.905 168.661 213.141C169.199 214.376 169.982 215.49 170.962 216.416C171.942 217.341 173.1 218.059 174.364 218.526C175.629 218.992 176.975 219.198 178.321 219.131Z" fill="#F5F5F5"/>
<path d="M196.049 48.6505C196.219 47.4389 195.95 46.2065 195.291 45.1758C194.632 44.1451 193.627 43.3839 192.456 43.0298C191.439 40.8634 189.859 39.0097 187.881 37.6623C185.904 36.3148 183.601 35.523 181.212 35.3696L171.05 34.8475C169.388 34.7607 167.726 35.0372 166.181 35.6579C164.636 36.2785 163.245 37.2284 162.104 38.4414C161.264 38.4881 160.445 38.7266 159.712 39.1385C158.978 39.5504 158.348 40.1248 157.871 40.8178C157.393 41.5107 157.081 42.3038 156.957 43.1362C156.834 43.9685 156.903 44.8181 157.158 45.6199C156.254 45.9836 155.458 46.5724 154.846 47.3303C154.233 48.0882 153.825 48.99 153.659 49.9502C153.493 50.9104 153.576 51.8971 153.898 52.8165C154.221 53.7359 154.773 54.5576 155.503 55.2035C154.705 56.2038 154.268 57.4446 154.263 58.7245C154.259 60.0043 154.687 61.2482 155.478 62.2542C155.512 63.4769 155.842 64.6731 156.439 65.7409C157.035 66.8087 157.881 67.7165 158.904 68.3869L160.552 75.5141L162.541 70.9392C162.721 70.5192 162.851 70.0792 162.927 69.6286C164.564 69.6591 166.167 69.1576 167.495 68.1994C169.111 69.3635 171.052 69.991 173.044 69.9934H179.904C182.318 69.9851 184.641 69.0688 186.411 67.4265C188.18 65.7842 189.267 63.5362 189.455 61.1294C190.454 61.0803 191.42 60.7602 192.25 60.2034C193.081 59.6466 193.744 58.8741 194.169 57.969C194.593 57.0638 194.763 56.0602 194.66 55.0657C194.558 54.0712 194.186 53.1234 193.585 52.3242C194.246 51.9363 194.81 51.4045 195.237 50.7685C195.663 50.1325 195.941 49.4086 196.049 48.6505Z" fill="#441B14"/>
<path d="M188.562 56.9285C185.456 59.0605 181.051 56.2182 178.311 53.929C177.877 54.9458 177.132 55.7985 176.182 56.3645C175.233 56.9306 174.128 57.1806 173.027 57.0788C171.926 56.9769 170.886 56.5283 170.057 55.7976C169.227 55.0669 168.651 54.0918 168.411 53.0127C167.537 53.777 166.863 54.742 166.445 55.8247C165.668 57.8869 165.765 60.2206 165.547 62.382C165.446 63.3807 165.379 64.3836 165.272 65.3815C165.235 65.7329 165.281 66.4937 165.056 66.7938C164.038 68.149 164.087 67.3478 163.879 66.1398C163.634 64.6616 162.935 63.2963 161.879 62.2332C158.931 59.3177 154.025 61.5682 153.958 65.6076L153.945 66.3642C153.928 66.9964 154.036 67.6258 154.263 68.216C154.49 68.8063 154.832 69.3459 155.268 69.8036C155.705 70.2614 156.227 70.6284 156.806 70.8834C157.385 71.1385 158.008 71.2765 158.64 71.2897L160.238 71.309L160.196 73.7865C160.196 73.7865 158.61 82.975 157.569 90.1981C156.846 95.2051 179.041 93.8768 179.041 93.8768L179.293 87.7862C182.309 87.3013 185.059 85.772 187.063 83.4656C189.066 81.1591 190.195 78.2222 190.253 75.1677L190.49 60.9696L190.59 54.937C190.037 55.7156 189.35 56.39 188.562 56.9285Z" fill="#F4A386"/>
<path d="M157.42 68.4228C157.324 68.4228 157.231 68.3898 157.156 68.3293C157.081 68.2689 157.03 68.1846 157.009 68.0906C156.989 67.9966 157.002 67.8985 157.045 67.8127C157.089 67.7269 157.16 67.6586 157.248 67.6191L158.6 67.0122L157.526 64.591C157.481 64.4891 157.478 64.3734 157.518 64.2694C157.558 64.1653 157.638 64.0815 157.74 64.0362C157.842 63.9909 157.957 63.988 158.061 64.0281C158.165 64.0681 158.249 64.1478 158.295 64.2497L159.709 67.435L157.593 68.3858C157.538 68.4102 157.48 68.4228 157.42 68.4228Z" fill="#F07F57"/>
<path opacity="0.46" d="M162.022 74.5625C161.995 76.124 162.277 77.6753 162.853 79.1271C163.428 80.5789 164.285 81.9026 165.374 83.0219C166.463 84.1413 167.763 85.0341 169.199 85.649C170.634 86.264 172.177 86.5889 173.739 86.6051L178.135 86.658C181.298 86.695 184.347 85.4795 186.616 83.277C188.886 81.0744 190.192 78.0635 190.25 74.9013L190.406 65.5841L190.246 75.1678C190.187 78.2708 189.022 81.2507 186.961 83.5712C184.9 85.8917 182.078 87.4004 179.004 87.8257L171.918 87.8501C168.673 87.5644 165.658 86.0598 163.478 83.6395C161.299 81.2191 160.117 78.0628 160.172 74.8063L160.231 71.3091L162.075 71.3309L162.022 74.5625Z" fill="#F07F57"/>
<path d="M174.502 108.331L157.441 102.468C150.734 100.163 147.052 93.1875 149.217 86.8867C151.036 81.5905 155.649 77.0088 162.924 84.1024C164.552 85.7011 166.538 86.8873 168.717 87.5621C170.896 88.2369 173.205 88.3806 175.45 87.9812L181.011 86.938C186.539 86.489 191.645 90.721 191.543 96.0172C191.483 97.7512 191.155 99.4655 190.571 101.099C188.401 107.392 181.209 110.631 174.502 108.331Z" fill="#4DC27E"/>
<path opacity="0.45" d="M180.659 98.0752C186.95 95.8205 188.73 91.2178 188.803 91.0228C188.862 90.8379 188.849 90.6376 188.767 90.4617C188.685 90.2857 188.54 90.147 188.361 90.0728C188.278 90.0312 188.187 90.0073 188.094 90.0025C188.001 89.9976 187.909 90.0121 187.822 90.0448C187.735 90.0776 187.656 90.128 187.589 90.1929C187.523 90.2577 187.471 90.3357 187.436 90.4217C187.42 90.4654 185.795 94.6688 180.056 96.7267C176.49 97.8678 172.706 98.1523 169.01 97.5573C160.328 90.9774 159.595 82.7288 159.563 82.2243C159.546 82.0029 159.442 81.7972 159.274 81.6514C159.106 81.5055 158.888 81.4312 158.666 81.4442C158.444 81.4595 158.237 81.5623 158.091 81.73C157.945 81.8977 157.871 82.1166 157.885 82.3387C157.894 82.4614 158.544 90.1939 165.906 97.0294C160.633 95.8467 155.517 94.047 150.664 91.6676C150.582 91.6229 150.492 91.5957 150.399 91.5877C150.306 91.5797 150.213 91.5911 150.125 91.6211C150.037 91.6511 149.956 91.6992 149.887 91.7622C149.818 91.8252 149.763 91.9017 149.726 91.987C149.671 92.1335 149.664 92.2935 149.705 92.4444C149.746 92.5953 149.834 92.7294 149.955 92.8277C150.011 92.8755 150.072 92.9154 150.139 92.9463C156.841 96.1206 162.831 98.101 168.109 98.8873C172.366 102.135 178.385 104.976 186.896 106.394C186.942 106.402 186.988 106.406 187.034 106.406C187.245 106.407 187.449 106.328 187.605 106.185C187.761 106.042 187.857 105.845 187.875 105.635C187.892 105.424 187.829 105.214 187.699 105.048C187.569 104.881 187.381 104.77 187.172 104.736C181.636 103.936 176.307 102.069 171.482 99.2395C174.588 99.4668 177.708 99.0709 180.659 98.0752Z" fill="#16A75C"/>
<path opacity="0.46" d="M183.861 80.5572L188.672 74.8121C189.072 74.3328 189.585 73.9598 190.165 73.7262C190.745 73.4926 191.373 73.4056 191.994 73.4729L199.093 74.2396C199.95 74.509 200.789 74.8305 201.606 75.2022C200.408 74.5516 199.143 74.0327 197.833 73.6545L190.94 73.0307C190.337 72.9764 189.73 73.0715 189.173 73.3076C188.616 73.5437 188.125 73.9135 187.745 74.3842L183.18 80.0327C182.962 80.3029 182.801 80.6148 182.707 80.9493C182.613 81.2838 182.588 81.634 182.633 81.9784C182.679 82.3229 182.794 82.6545 182.972 82.953C183.15 83.2515 183.387 83.5107 183.668 83.7148L183.743 83.7694C183.405 83.2961 183.234 82.7242 183.255 82.1431C183.276 81.5621 183.49 81.0044 183.861 80.5572Z" fill="#F07F57"/>
<path d="M201.606 75.2022C200.789 74.8305 199.95 74.509 199.093 74.2396L191.994 73.4729C191.373 73.4056 190.745 73.4926 190.165 73.7262C189.585 73.9598 189.073 74.3328 188.672 74.8121L183.861 80.5572C183.638 80.8349 183.471 81.1542 183.372 81.4968C183.273 81.8393 183.242 82.1981 183.283 82.5524C183.324 82.9067 183.435 83.2494 183.609 83.5605C183.783 83.8716 184.018 84.1449 184.298 84.3646L184.835 84.7673L185.554 85.3095L187.458 80.7371L184.742 87.2616C184.655 87.4716 184.634 87.7026 184.68 87.9249C184.727 88.1746 184.854 88.4018 185.044 88.5714C185.233 88.7409 185.473 88.8431 185.726 88.8622C186.053 88.8842 186.38 88.8268 186.679 88.6951C186.979 88.5633 187.242 88.3611 187.447 88.1056C187.471 88.0753 187.502 88.0535 187.526 88.0215L191.871 82.0183L187.857 89.4498C187.842 89.4825 187.83 89.5162 187.821 89.5507C187.779 89.6682 187.77 89.795 187.795 89.9173C187.82 90.0396 187.878 90.1527 187.963 90.2443C188.047 90.3359 188.156 90.4025 188.276 90.4369C188.396 90.4713 188.523 90.4721 188.643 90.4393C190.865 89.8321 192.811 88.4788 194.154 86.6067L195.32 84.98C196.561 86.1125 198.039 86.9551 199.646 87.447C201.253 87.9388 202.95 88.0676 204.612 87.824C204.975 87.7698 205.32 87.6297 205.617 87.4153C205.915 87.2009 206.157 86.9185 206.323 86.5915C207.477 84.3209 209.288 78.7204 201.606 75.2022Z" fill="#F4A386"/>
<path d="M185.174 85.0388C185.138 84.9944 185.115 84.9405 185.107 84.8834C185.1 84.8263 185.109 84.7683 185.133 84.716L187.301 80.0478C187.336 79.9741 187.398 79.917 187.474 79.8891C187.55 79.8612 187.635 79.8648 187.708 79.899C187.782 79.9332 187.839 79.9953 187.867 80.0716C187.895 80.1479 187.891 80.2322 187.857 80.3059L185.688 84.975C185.654 85.0484 185.592 85.1051 185.516 85.1329C185.44 85.1606 185.356 85.157 185.282 85.1229C185.24 85.1036 185.203 85.0748 185.174 85.0388Z" fill="#F29270"/>
<path d="M190.644 82.2251C190.598 82.1686 190.574 82.0976 190.576 82.0249C190.578 81.9522 190.605 81.8825 190.654 81.8283C190.703 81.7742 190.769 81.7391 190.841 81.7294C190.913 81.7197 190.986 81.736 191.047 81.7754C191.047 81.7754 191.57 82.1116 192.146 82.5042C192.205 82.5526 192.244 82.6214 192.255 82.697C192.266 82.7725 192.248 82.8495 192.205 82.9127C192.163 82.9759 192.098 83.0208 192.023 83.0385C191.949 83.0563 191.871 83.0456 191.804 83.0086C191.232 82.6228 190.711 82.2865 190.711 82.2857C190.686 82.2691 190.663 82.2486 190.644 82.2251Z" fill="#F29270"/>
<path d="M186.989 79.8705C186.944 79.8137 186.92 79.7427 186.922 79.6701C186.924 79.5974 186.952 79.5278 187.001 79.4737C187.049 79.4196 187.115 79.3845 187.187 79.3747C187.259 79.3648 187.333 79.3808 187.394 79.4199C187.394 79.4199 187.916 79.7561 188.492 80.1487C188.551 80.1971 188.59 80.2659 188.601 80.3414C188.612 80.417 188.594 80.494 188.551 80.5572C188.508 80.6204 188.443 80.6653 188.369 80.683C188.295 80.7008 188.216 80.6901 188.15 80.6531C187.578 80.2673 187.061 79.9318 187.057 79.931C187.032 79.9141 187.009 79.8937 186.989 79.8705Z" fill="#F29270"/>
<path d="M194.746 85.3374C194.702 85.2845 194.678 85.2187 194.677 85.1504C194.675 85.0821 194.697 85.0153 194.738 84.9608C194.946 84.6525 195.116 84.3196 195.242 83.9696C195.254 83.9301 195.274 83.8935 195.301 83.8619C195.327 83.8302 195.36 83.8043 195.396 83.7855C195.433 83.7668 195.473 83.7557 195.514 83.7529C195.556 83.7501 195.597 83.7556 195.636 83.7692C195.675 83.7827 195.711 83.804 195.741 83.8318C195.772 83.8595 195.796 83.8931 195.813 83.9306C195.831 83.9681 195.84 84.0087 195.841 84.0499C195.842 84.0911 195.835 84.1322 195.82 84.1705C195.675 84.5798 195.477 84.9684 195.231 85.3265C195.207 85.3588 195.177 85.3861 195.143 85.4068C195.108 85.4274 195.07 85.4411 195.03 85.4468C194.99 85.4526 194.95 85.4505 194.911 85.4405C194.871 85.4305 194.835 85.4129 194.803 85.3887C194.782 85.3737 194.763 85.3566 194.746 85.3374Z" fill="#F29270"/>
<path opacity="0.67" d="M201.003 110.468L192.315 89.5002L194.726 90.2787" fill="#006430"/>
<path d="M274.444 182.373C274.444 182.373 237.513 182.072 228.659 202.24C219.805 222.409 218.79 246.131 212.778 247.204C206.765 248.278 135.525 255.588 130.285 239.134C125.044 222.679 144.854 179.16 157.65 167.826C162.257 163.745 180.844 147.65 204.084 141.892C230.516 135.344 257.887 148.617 269.88 173.068L274.444 182.373Z" fill="#FFB900"/>
<path d="M172.944 250.126C153.013 250.126 132.63 247.882 129.884 239.265C124.583 222.628 144.394 179.011 157.373 167.515C165.851 160.007 183.182 146.642 203.984 141.488C230.269 134.977 258.14 148.183 270.259 172.886L275.123 182.799L274.442 182.794C274.064 182.794 237.685 182.727 229.046 202.409C225.05 211.511 222.622 221.484 220.67 229.498C218.198 239.648 216.413 246.984 212.852 247.618C209.746 248.172 191.542 250.126 172.944 250.126ZM217.539 140.677C213.038 140.676 208.553 141.222 204.184 142.304C183.554 147.416 166.349 160.688 157.928 168.144C145.086 179.519 125.458 222.608 130.685 239.013C135.822 255.136 206.336 247.93 212.705 246.792C215.724 246.253 217.545 238.771 219.85 229.3C221.809 221.255 224.247 211.242 228.272 202.072C236.47 183.4 268.685 182.056 273.771 181.961L269.501 173.26C264.726 163.535 257.333 155.333 248.154 149.578C238.975 143.822 228.373 140.74 217.539 140.677Z" fill="#FFB900"/>
<path d="M212.778 247.204C218.79 246.131 219.805 222.404 228.659 202.24C237.513 182.076 274.444 182.373 274.444 182.373L269.88 173.072C269.035 171.348 268.104 169.685 267.106 168.074C258.385 166.032 249.304 166.09 240.609 168.243C217.37 174 198.783 190.096 194.176 194.176C184.467 202.777 170.729 229.905 166.951 249.678C187.49 250.153 209.548 247.781 212.778 247.204Z" fill="#FFD026"/>
<path d="M89.2021 187.073H15.9301C14.1412 187.073 12.691 188.523 12.691 190.312V224.707C12.691 226.496 14.1412 227.946 15.9301 227.946H89.2021C90.991 227.946 92.4412 226.496 92.4412 224.707V190.312C92.4412 188.523 90.991 187.073 89.2021 187.073Z" fill="#424242"/>
<path opacity="0.42" d="M72.7754 196.61H31.8322C31.5406 196.61 31.3043 196.846 31.3043 197.138V218.701C31.3043 218.993 31.5406 219.229 31.8322 219.229H72.7754C73.0669 219.229 73.3033 218.993 73.3033 218.701V197.138C73.3033 196.846 73.0669 196.61 72.7754 196.61Z" fill="#212121"/>
<path d="M55.3954 207.92C55.3954 208.531 55.214 209.129 54.8741 209.638C54.5343 210.146 54.0513 210.543 53.4861 210.777C52.921 211.011 52.2991 211.072 51.6992 210.953C51.0992 210.834 50.5481 210.539 50.1156 210.106C49.683 209.674 49.3885 209.123 49.2691 208.523C49.1498 207.923 49.2111 207.301 49.4451 206.736C49.6792 206.171 50.0756 205.688 50.5843 205.348C51.0929 205.008 51.6908 204.827 52.3025 204.827C52.7087 204.827 53.1109 204.907 53.4861 205.062C53.8614 205.218 54.2023 205.445 54.4895 205.733C54.7767 206.02 55.0045 206.361 55.1599 206.736C55.3154 207.111 55.3954 207.513 55.3954 207.92Z" fill="#212121"/>
<path d="M90.5186 184.394H13.709C11.6606 184.394 10 186.055 10 188.103V188.126C10 190.174 11.6606 191.835 13.709 191.835H90.5186C92.567 191.835 94.2276 190.174 94.2276 188.126V188.103C94.2276 186.055 92.567 184.394 90.5186 184.394Z" fill="#212121"/>
<path d="M18.7119 264.213L14.9885 287.856C14.4715 289.891 16.3118 291.891 18.1394 291.282H18.6757C19.6626 291.275 20.6302 291.008 21.4805 290.507C22.3308 290.006 23.0337 289.289 23.518 288.429L23.534 288.403L38.4685 263.413L18.7119 264.213Z" fill="#212121"/>
<path d="M84.1698 264.213L87.8931 287.856C88.4101 289.891 86.5699 291.891 84.7423 291.282H84.2059C83.219 291.275 82.2515 291.008 81.4012 290.507C80.5509 290.006 79.848 289.289 79.3637 288.429L79.3477 288.403L64.4132 263.413L84.1698 264.213Z" fill="#212121"/>
<path d="M88.7977 227.693H15.5266C13.7377 227.693 12.2875 229.143 12.2875 230.932V265.327C12.2875 267.116 13.7377 268.566 15.5266 268.566H88.7977C90.5866 268.566 92.0368 267.116 92.0368 265.327V230.932C92.0368 229.143 90.5866 227.693 88.7977 227.693Z" fill="#424242"/>
<path opacity="0.42" d="M72.3719 237.23H31.4287C31.1371 237.23 30.9008 237.467 30.9008 237.758V259.322C30.9008 259.613 31.1371 259.85 31.4287 259.85H72.3719C72.6634 259.85 72.8998 259.613 72.8998 259.322V237.758C72.8998 237.467 72.6634 237.23 72.3719 237.23Z" fill="#212121"/>
<path d="M54.9935 248.54C54.9932 249.152 54.8114 249.75 54.4713 250.258C54.1311 250.767 53.6479 251.163 53.0825 251.397C52.5172 251.631 51.8952 251.692 51.2952 251.572C50.6952 251.453 50.1442 251.158 49.7117 250.725C49.2792 250.292 48.9847 249.741 48.8655 249.141C48.7462 248.541 48.8076 247.919 49.0418 247.354C49.276 246.789 49.6725 246.306 50.1812 245.966C50.69 245.626 51.288 245.445 51.8998 245.445C52.3062 245.445 52.7087 245.525 53.0841 245.68C53.4596 245.836 53.8007 246.064 54.088 246.351C54.3753 246.639 54.6031 246.98 54.7585 247.356C54.9138 247.731 54.9937 248.134 54.9935 248.54Z" fill="#212121"/>
<path d="M91.9006 229.597H12.3261C11.9266 229.597 11.5434 229.438 11.2609 229.156C10.9784 228.873 10.8196 228.49 10.8196 228.091C10.8196 227.691 10.9784 227.308 11.2609 227.025C11.5434 226.743 11.9266 226.584 12.3261 226.584H91.9006C92.0985 226.584 92.2945 226.623 92.4774 226.699C92.6602 226.774 92.8264 226.885 92.9664 227.025C93.1064 227.165 93.2174 227.331 93.2932 227.514C93.3689 227.697 93.4079 227.893 93.4079 228.091C93.4079 228.289 93.3689 228.485 93.2932 228.667C93.2174 228.85 93.1064 229.016 92.9664 229.156C92.8264 229.296 92.6602 229.407 92.4774 229.483C92.2945 229.558 92.0985 229.597 91.9006 229.597Z" fill="#212121"/>
<path d="M64.0543 175.081L62.784 164.687C62.7304 164.252 62.8008 163.811 62.9872 163.414C63.1736 163.017 63.4683 162.681 63.8374 162.445C64.2065 162.208 64.6349 162.081 65.0733 162.078C65.5116 162.074 65.942 162.195 66.3148 162.425L67.1143 162.918C67.4951 163.153 67.9356 163.273 68.3829 163.264C68.8302 163.255 69.2654 163.117 69.6363 162.867L72.7838 160.746C73.0609 160.559 73.3749 160.434 73.7046 160.38C74.0342 160.326 74.3716 160.343 74.694 160.431C75.0163 160.518 75.316 160.674 75.5726 160.888C75.8291 161.102 76.0366 161.369 76.1809 161.67L76.8577 163.083C77.0582 163.501 77.379 163.85 77.7789 164.084C78.1788 164.319 78.6396 164.428 79.1023 164.399C79.4877 164.375 79.8731 164.447 80.2237 164.608C80.5744 164.77 80.8793 165.017 81.1108 165.326C81.3424 165.635 81.4934 165.997 81.5501 166.379C81.6069 166.761 81.5677 167.151 81.436 167.514L78.6887 175.08L64.0543 175.081Z" fill="white"/>
<path opacity="0.38" d="M66.1854 162.392L67.6986 175.086H70.7948L70.3391 162.392C70.3391 162.392 69.2816 163.764 66.1854 162.392Z" fill="#E9E9F4"/>
<path opacity="0.38" d="M78.803 164.398L76.3196 175.08H73.2234L76.7131 162.789C76.7131 162.789 77.4167 164.549 78.803 164.398Z" fill="#E9E9F4"/>
<path d="M85.5494 171.19H58.7875C57.9954 171.19 57.3533 171.832 57.3533 172.624V182.945C57.3533 183.737 57.9954 184.379 58.7875 184.379H85.5494C86.3414 184.379 86.9835 183.737 86.9835 182.945V172.624C86.9835 171.832 86.3414 171.19 85.5494 171.19Z" fill="#1E88E5"/>
<path d="M78.85 179.536H65.4834C65.1271 179.535 64.7857 179.393 64.5337 179.141C64.2818 178.889 64.1396 178.547 64.1383 178.191V174.738C64.1383 174.562 64.1731 174.387 64.2407 174.224C64.3083 174.06 64.4074 173.912 64.5323 173.787C64.6572 173.662 64.8054 173.563 64.9686 173.496C65.1318 173.428 65.3067 173.393 65.4834 173.393H78.85C79.0267 173.393 79.2016 173.428 79.3648 173.496C79.528 173.563 79.6762 173.662 79.8011 173.787C79.926 173.912 80.0251 174.06 80.0927 174.224C80.1603 174.387 80.1951 174.562 80.1951 174.738V178.191C80.1938 178.547 80.0516 178.889 79.7997 179.141C79.5477 179.393 79.2064 179.535 78.85 179.536ZM65.4834 174.23C65.4171 174.23 65.3515 174.243 65.2904 174.268C65.2292 174.294 65.1735 174.331 65.1267 174.378C65.0799 174.424 65.0427 174.48 65.0174 174.541C64.992 174.602 64.979 174.668 64.979 174.734V178.191C64.979 178.325 65.0321 178.453 65.1267 178.548C65.2213 178.642 65.3496 178.695 65.4834 178.695H78.85C78.9838 178.695 79.1121 178.642 79.2067 178.548C79.3013 178.453 79.3544 178.325 79.3544 178.191V174.738C79.3544 174.605 79.3013 174.476 79.2067 174.382C79.1121 174.287 78.9838 174.234 78.85 174.234L65.4834 174.23Z" fill="#0D47A1"/>
<path d="M52.3529 165.762H44.9542C44.6083 165.762 44.3279 166.043 44.3279 166.389V183.787C44.3279 184.133 44.6083 184.414 44.9542 184.414H52.3529C52.6988 184.414 52.9792 184.133 52.9792 183.787V166.389C52.9792 166.043 52.6988 165.762 52.3529 165.762Z" fill="#F44336"/>
<path d="M52.8582 184.34C52.405 183.681 50.7716 183.193 48.8229 183.193C46.7994 183.193 45.1139 183.717 44.7356 184.414H52.6682C52.7379 184.411 52.8049 184.385 52.8582 184.34Z" fill="#D32F2F"/>
<path opacity="0.6" d="M52.3529 165.762H50.6556C50.3097 165.762 50.0293 166.043 50.0293 166.389V183.787C50.0293 184.133 50.3097 184.414 50.6556 184.414H52.3529C52.6988 184.414 52.9792 184.133 52.9792 183.787V166.389C52.9792 166.043 52.6988 165.762 52.3529 165.762Z" fill="#D32F2F"/>
<path d="M51.3164 171.065H45.9907C45.7177 171.065 45.4964 171.287 45.4964 171.56V173.678C45.4964 173.951 45.7177 174.173 45.9907 174.173H51.3164C51.5894 174.173 51.8107 173.951 51.8107 173.678V171.56C51.8107 171.287 51.5894 171.065 51.3164 171.065Z" fill="white"/>
<path d="M52.516 165.385H44.7919C44.3393 165.385 43.9723 165.752 43.9723 166.205V166.354C43.9723 166.807 44.3393 167.174 44.7919 167.174H52.516C52.9687 167.174 53.3357 166.807 53.3357 166.354V166.205C53.3357 165.752 52.9687 165.385 52.516 165.385Z" fill="#E9E9F4"/>
<path d="M52.8652 166.522H44.4426C44.1159 166.521 43.803 166.391 43.572 166.16C43.3411 165.929 43.211 165.616 43.2101 165.289C43.211 164.963 43.3411 164.649 43.572 164.418C43.803 164.187 44.1159 164.057 44.4426 164.056H52.8652C53.192 164.057 53.5052 164.187 53.7363 164.418C53.9674 164.649 54.0976 164.962 54.0985 165.289C54.0976 165.616 53.9674 165.929 53.7363 166.16C53.5052 166.391 53.192 166.522 52.8652 166.522Z" fill="white"/>
<path opacity="0.38" d="M53.4029 165.447H43.9034C43.7191 165.447 43.5425 165.373 43.4122 165.243C43.282 165.113 43.2086 164.936 43.2081 164.752C43.2086 164.568 43.2819 164.391 43.4122 164.261C43.5425 164.13 43.719 164.057 43.9034 164.056H53.4029C53.5873 164.057 53.7638 164.13 53.8941 164.261C54.0244 164.391 54.0977 164.568 54.0982 164.752C54.0977 164.936 54.0243 165.113 53.8941 165.243C53.7638 165.373 53.5872 165.447 53.4029 165.447Z" fill="#E9E9F4"/>
<path d="M28.0214 165.762H20.6227C20.2768 165.762 19.9964 166.043 19.9964 166.389V183.787C19.9964 184.133 20.2768 184.414 20.6227 184.414H28.0214C28.3673 184.414 28.6477 184.133 28.6477 183.787V166.389C28.6477 166.043 28.3673 165.762 28.0214 165.762Z" fill="#F44336"/>
<path d="M28.5267 184.34C28.0727 183.681 26.4393 183.193 24.4914 183.193C22.4671 183.193 20.7816 183.717 20.4033 184.414H28.3358C28.4059 184.411 28.4731 184.386 28.5267 184.34Z" fill="#D32F2F"/>
<path opacity="0.6" d="M28.0214 165.762H26.3241C25.9782 165.762 25.6978 166.043 25.6978 166.389V183.787C25.6978 184.133 25.9782 184.414 26.3241 184.414H28.0214C28.3673 184.414 28.6477 184.133 28.6477 183.787V166.389C28.6477 166.043 28.3673 165.762 28.0214 165.762Z" fill="#D32F2F"/>
<path d="M26.9849 171.065H21.6592C21.3862 171.065 21.1649 171.287 21.1649 171.56V173.678C21.1649 173.951 21.3862 174.173 21.6592 174.173H26.9849C27.2579 174.173 27.4792 173.951 27.4792 173.678V171.56C27.4792 171.287 27.2579 171.065 26.9849 171.065Z" fill="white"/>
<path d="M28.1837 165.385H20.4596C20.0069 165.385 19.64 165.752 19.64 166.205V166.354C19.64 166.807 20.0069 167.174 20.4596 167.174H28.1837C28.6364 167.174 29.0033 166.807 29.0033 166.354V166.205C29.0033 165.752 28.6364 165.385 28.1837 165.385Z" fill="#E9E9F4"/>
<path d="M28.5337 166.522H20.1111C19.7843 166.522 19.4711 166.391 19.24 166.16C19.0089 165.929 18.8787 165.616 18.8778 165.289C18.8787 164.962 19.0089 164.649 19.24 164.418C19.4711 164.187 19.7843 164.057 20.1111 164.056H28.5337C28.8606 164.057 29.1737 164.187 29.4048 164.418C29.6359 164.649 29.7661 164.962 29.767 165.289C29.7661 165.616 29.6359 165.929 29.4048 166.16C29.1737 166.391 28.8606 166.522 28.5337 166.522Z" fill="white"/>
<path opacity="0.38" d="M29.0706 165.447H19.571C19.3868 165.447 19.2102 165.373 19.0799 165.243C18.9496 165.113 18.8762 164.936 18.8758 164.752C18.8762 164.568 18.9496 164.391 19.0799 164.261C19.2101 164.13 19.3867 164.057 19.571 164.056H29.0706C29.255 164.057 29.4317 164.13 29.5621 164.261C29.6925 164.391 29.766 164.568 29.7667 164.752C29.766 164.936 29.6924 165.113 29.562 165.243C29.4316 165.373 29.2549 165.447 29.0706 165.447Z" fill="#E9E9F4"/>
<path d="M31.2799 165.01H41.9858C42.7918 165.01 43.5648 165.33 44.1347 165.9C44.7046 166.47 45.0248 167.243 45.0248 168.049V182.437C45.0248 182.965 44.8155 183.471 44.4428 183.845C44.07 184.218 43.5643 184.429 43.0366 184.43H30.0323C29.7971 184.43 29.5641 184.383 29.3467 184.293C29.1294 184.203 28.9319 184.071 28.7656 183.905C28.5992 183.739 28.4672 183.541 28.3772 183.324C28.2872 183.106 28.2408 182.874 28.2408 182.638V168.049C28.2408 167.243 28.561 166.47 29.131 165.9C29.7009 165.33 30.4739 165.01 31.2799 165.01V165.01Z" fill="#EF5350"/>
<path opacity="0.6" d="M40.8299 165.01H41.9858C42.385 165.01 42.7803 165.089 43.1491 165.241C43.5179 165.394 43.853 165.618 44.1353 165.9C44.4176 166.182 44.6415 166.517 44.7943 166.886C44.9471 167.255 45.0257 167.65 45.0257 168.049V182.462C45.0257 182.983 44.8184 183.484 44.4495 183.853C44.0806 184.222 43.5803 184.429 43.0585 184.429H40.8299C40.0239 184.429 39.2509 184.109 38.681 183.539C38.1111 182.969 37.7909 182.196 37.7909 181.39V168.049C37.7909 167.243 38.1111 166.47 38.681 165.9C39.2509 165.33 40.0239 165.01 40.8299 165.01Z" fill="#F44336"/>
<path d="M45.1384 169.382H28.1282V178.352H45.1384V169.382Z" fill="white"/>
<path d="M42.6945 163.494H30.5712V165.19H42.6945V163.494Z" fill="white"/>
<path d="M42.6945 163.494H30.5712V165.19H42.6945V163.494Z" fill="#F44336"/>
<path d="M41.8539 163.143H31.4119C31.0413 163.143 30.686 162.996 30.4239 162.734C30.1619 162.472 30.0147 162.116 30.0147 161.746C30.0147 161.562 30.0508 161.381 30.1211 161.211C30.1913 161.042 30.2942 160.888 30.4239 160.758C30.5537 160.628 30.7077 160.525 30.8772 160.455C31.0467 160.385 31.2284 160.349 31.4119 160.349H41.8539C42.2244 160.349 42.5798 160.496 42.8418 160.758C43.1039 161.02 43.2511 161.375 43.2511 161.746C43.2511 162.116 43.1039 162.472 42.8418 162.734C42.5798 162.996 42.2244 163.143 41.8539 163.143Z" fill="white"/>
<path d="M38.9081 172.709H37.7909V171.592C37.7909 171.466 37.7409 171.345 37.652 171.257C37.5631 171.168 37.4425 171.118 37.3167 171.118H35.9498C35.8875 171.118 35.8258 171.13 35.7682 171.154C35.7106 171.177 35.6583 171.212 35.6143 171.256C35.5702 171.3 35.5353 171.353 35.5115 171.41C35.4877 171.468 35.4756 171.53 35.4757 171.592V172.709H34.3576C34.232 172.709 34.1116 172.759 34.0228 172.848C33.9341 172.937 33.8843 173.058 33.8843 173.183V174.55C33.8842 174.612 33.8963 174.674 33.9201 174.732C33.9438 174.789 33.9786 174.841 34.0226 174.885C34.0666 174.929 34.1188 174.964 34.1763 174.988C34.2337 175.012 34.2953 175.024 34.3576 175.024H35.4757V176.142C35.4756 176.204 35.4877 176.266 35.5115 176.323C35.5353 176.381 35.5702 176.433 35.6143 176.477C35.6583 176.521 35.7106 176.556 35.7682 176.58C35.8258 176.604 35.8875 176.616 35.9498 176.616H37.3209C37.4467 176.616 37.5673 176.566 37.6562 176.477C37.7451 176.388 37.7951 176.267 37.7951 176.142V175.024H38.9123C38.9746 175.024 39.0362 175.012 39.0938 174.988C39.1513 174.964 39.2036 174.929 39.2476 174.885C39.2916 174.841 39.3265 174.789 39.3504 174.732C39.3742 174.674 39.3865 174.612 39.3865 174.55V173.183C39.3864 173.121 39.3739 173.059 39.3497 173.001C39.3256 172.943 39.2903 172.891 39.2459 172.847C39.2014 172.803 39.1487 172.768 39.0907 172.744C39.0328 172.721 38.9707 172.709 38.9081 172.709Z" fill="#F44336"/>
<path d="M41.8539 163.847H31.4119C31.2284 163.847 31.0467 163.81 30.8772 163.74C30.7077 163.67 30.5537 163.567 30.4239 163.437C30.2942 163.308 30.1913 163.154 30.1211 162.984C30.0508 162.815 30.0147 162.633 30.0147 162.449C30.0147 162.079 30.1619 161.723 30.4239 161.461C30.686 161.199 31.0413 161.052 31.4119 161.052H41.8539C42.2244 161.052 42.5798 161.199 42.8418 161.461C43.1039 161.723 43.2511 162.079 43.2511 162.449C43.2511 162.82 43.1039 163.175 42.8418 163.437C42.5798 163.699 42.2244 163.847 41.8539 163.847Z" fill="#E9E9F4"/>
<path d="M32.1904 161.052H31.8373V163.847H32.1904V161.052Z" fill="white"/>
<path d="M35.0049 161.052H34.6519V163.847H35.0049V161.052Z" fill="white"/>
<path d="M38.3205 161.052H37.9674V163.847H38.3205V161.052Z" fill="white"/>
<path d="M41.4881 161.052H41.1351V163.847H41.4881V161.052Z" fill="white"/>
<path d="M505.876 176.773C505.876 176.773 495.269 158.805 500.562 154.218C506.679 148.922 514.146 152.171 514.462 162.301C514.778 172.431 505.876 176.773 505.876 176.773Z" fill="#16A75C"/>
<path d="M505.57 186.038C505.57 186.038 511.296 170.57 516.751 171.528C523.052 172.634 524.783 178.836 518.729 184.083C512.676 189.331 505.57 186.038 505.57 186.038Z" fill="#069550"/>
<path d="M506.489 158.743C507.158 162.66 507.386 166.64 507.168 170.608C507.062 172.6 506.809 174.581 506.412 176.536C506.071 178.451 505.869 180.388 505.807 182.332C505.674 186.244 505.819 190.176 506.052 194.101C506.298 198.022 506.646 201.95 507.092 205.843V205.853C507.117 206.075 507.054 206.297 506.915 206.472C506.776 206.646 506.574 206.759 506.353 206.784C506.131 206.81 505.909 206.746 505.734 206.607C505.559 206.469 505.447 206.266 505.422 206.045V206.023C505.07 202.072 504.823 198.127 504.676 194.169C504.542 190.213 504.495 186.25 504.73 182.28C504.845 180.282 505.105 178.296 505.508 176.336C505.945 174.434 506.242 172.503 506.396 170.558C506.71 166.647 506.585 162.714 506.023 158.832V158.821C506.017 158.76 506.035 158.7 506.072 158.652C506.109 158.603 506.163 158.571 506.224 158.562C506.284 158.552 506.345 158.566 506.396 158.6C506.446 158.634 506.481 158.687 506.494 158.746L506.489 158.743Z" fill="#616161"/>
<path d="M514.232 179.389C512.899 180.754 511.526 182.073 510.09 183.34C509.373 183.973 508.637 184.587 507.87 185.17C507.101 185.778 506.277 186.312 505.409 186.768C505.293 186.825 505.16 186.834 505.037 186.793C504.915 186.752 504.814 186.664 504.756 186.549C504.699 186.433 504.689 186.299 504.73 186.177C504.771 186.054 504.86 185.953 504.975 185.896L505.001 185.883C505.835 185.493 506.632 185.027 507.38 184.491C508.152 183.961 508.905 183.393 509.642 182.804C511.12 181.627 512.552 180.38 513.937 179.092C513.978 179.054 514.032 179.033 514.087 179.034C514.143 179.035 514.196 179.059 514.234 179.099C514.27 179.139 514.29 179.191 514.29 179.244C514.29 179.298 514.269 179.35 514.232 179.389Z" fill="#616161"/>
<path d="M504.898 181.399C504.898 181.399 499.172 165.931 493.717 166.888C487.416 167.994 485.685 174.196 491.739 179.444C497.792 184.691 504.898 181.399 504.898 181.399Z" fill="#069550"/>
<path d="M496.531 174.451C497.917 175.739 499.348 176.986 500.826 178.162C501.563 178.751 502.316 179.32 503.088 179.85C503.837 180.386 504.633 180.852 505.468 181.242C505.586 181.293 505.678 181.389 505.726 181.509C505.774 181.628 505.772 181.762 505.721 181.88C505.671 181.998 505.576 182.092 505.457 182.14C505.337 182.189 505.204 182.188 505.085 182.139L505.059 182.126C504.191 181.671 503.367 181.136 502.599 180.529C501.831 179.945 501.095 179.332 500.378 178.7C498.942 177.439 497.57 176.117 496.236 174.748C496.196 174.709 496.174 174.656 496.174 174.6C496.174 174.544 496.196 174.491 496.236 174.452C496.275 174.414 496.328 174.392 496.383 174.392C496.438 174.392 496.491 174.413 496.531 174.451Z" fill="#616161"/>
<path d="M504.562 194.017C504.562 194.017 500.741 183.696 497.102 184.335C492.899 185.073 491.742 189.211 495.782 192.713C499.823 196.215 504.562 194.017 504.562 194.017Z" fill="#16A75C"/>
<path d="M499.028 189.332C499.961 190.178 500.926 190.999 501.918 191.77C502.414 192.157 502.92 192.527 503.436 192.873C503.932 193.219 504.458 193.519 505.01 193.768C505.069 193.792 505.122 193.828 505.168 193.873C505.213 193.918 505.249 193.972 505.273 194.031C505.298 194.09 505.311 194.154 505.311 194.218C505.311 194.282 505.298 194.345 505.274 194.404C505.249 194.463 505.213 194.517 505.168 194.562C505.123 194.607 505.069 194.643 505.01 194.668C504.951 194.692 504.888 194.705 504.824 194.705C504.76 194.705 504.696 194.693 504.637 194.668L504.602 194.652C504.017 194.337 503.462 193.968 502.946 193.55C502.435 193.152 501.947 192.735 501.472 192.305C500.52 191.447 499.614 190.556 498.732 189.632C498.694 189.591 498.673 189.537 498.675 189.482C498.676 189.426 498.7 189.373 498.74 189.335C498.779 189.299 498.83 189.278 498.884 189.278C498.937 189.277 498.989 189.297 499.028 189.332Z" fill="#616161"/>
<path d="M507.879 226.561H504.87C493.853 226.561 494.194 221.417 493.554 214.624L492.157 199.735H520.593L519.196 214.624C518.558 221.417 518.969 226.561 507.879 226.561Z" fill="#424242"/>
<path d="M520.165 197.316H492.617C491.839 197.316 491.208 197.947 491.208 198.725V200.607C491.208 201.385 491.839 202.016 492.617 202.016H520.165C520.943 202.016 521.574 201.385 521.574 200.607V198.725C521.574 197.947 520.943 197.316 520.165 197.316Z" fill="#212121"/>
<path d="M471.891 264.213L468.169 287.855C467.652 289.891 469.492 291.891 471.32 291.282H471.855C472.842 291.275 473.81 291.008 474.66 290.507C475.511 290.006 476.214 289.289 476.698 288.429L476.713 288.403L491.649 263.413L471.891 264.213Z" fill="#212121"/>
<path d="M537.35 264.213L541.073 287.855C541.591 289.891 539.749 291.891 537.923 291.282H537.386C536.399 291.275 535.432 291.008 534.581 290.507C533.731 290.006 533.028 289.289 532.544 288.429L532.528 288.403L517.593 263.413L537.35 264.213Z" fill="#212121"/>
<path d="M541.979 227.693H468.707C466.918 227.693 465.468 229.143 465.468 230.932V265.327C465.468 267.116 466.918 268.566 468.707 268.566H541.979C543.768 268.566 545.218 267.116 545.218 265.327V230.932C545.218 229.143 543.768 227.693 541.979 227.693Z" fill="#212121"/>
<path opacity="0.42" d="M525.551 237.23H484.608C484.317 237.23 484.08 237.467 484.08 237.758V259.321C484.08 259.613 484.317 259.849 484.608 259.849H525.551C525.843 259.849 526.079 259.613 526.079 259.321V237.758C526.079 237.467 525.843 237.23 525.551 237.23Z" fill="#212121"/>
<path d="M508.17 248.54C508.171 249.152 507.989 249.75 507.65 250.259C507.31 250.768 506.827 251.164 506.261 251.399C505.696 251.633 505.074 251.694 504.474 251.575C503.874 251.456 503.322 251.161 502.89 250.729C502.457 250.296 502.162 249.745 502.043 249.145C501.923 248.544 501.984 247.922 502.219 247.357C502.453 246.792 502.849 246.308 503.358 245.968C503.867 245.628 504.465 245.447 505.077 245.447C505.897 245.447 506.684 245.773 507.264 246.353C507.844 246.933 508.17 247.72 508.17 248.54Z" fill="#424242"/>
<path d="M545.081 229.597H465.506C465.107 229.597 464.724 229.438 464.441 229.156C464.159 228.873 464 228.49 464 228.09C464 227.691 464.159 227.308 464.441 227.025C464.724 226.743 465.107 226.584 465.506 226.584H545.081C545.279 226.584 545.475 226.623 545.658 226.698C545.841 226.774 546.007 226.885 546.147 227.025C546.287 227.165 546.398 227.331 546.474 227.514C546.55 227.696 546.589 227.892 546.589 228.09C546.589 228.288 546.55 228.484 546.474 228.667C546.398 228.85 546.287 229.016 546.147 229.156C546.007 229.296 545.841 229.407 545.658 229.483C545.475 229.558 545.279 229.597 545.081 229.597Z" fill="#212121"/>
</g>
<defs>
<clipPath id="clip0">
<rect width="554" height="320" fill="white"/>
</clipPath>
</defs>
</svg>
