<svg width="165" height="38" viewBox="0 0 165 38" fill="none" xmlns="http://www.w3.org/2000/svg">
<path d="M4.74706 21.527C2.7507 22.333 1.3541 24.5975 1.06534 25.5972C0.541412 23.8697 -0.415504 19.3848 0.199032 15.9572C0.42986 14.6698 0.774332 13.1394 1.49849 11.4586C3.23103 7.43705 7.9956 0.961708 17.0916 0.104815C29.4362 -1.05811 35.067 7.8168 35.5002 8.8879C35.8415 9.73171 36.3665 11.6728 35.9333 13.1723C35.4207 14.9471 33.7676 16.1714 32.4682 16.5999C31.8185 16.8141 30.5191 16.8141 30.5191 16.8141C30.9522 16.1714 30.6908 15.0323 30.7356 13.815C30.773 12.7979 31.1254 12.427 30.7356 11.4586C30.2664 10.2927 29.9661 9.49059 29.0031 8.67368C28.0552 7.86958 26.9095 7.45976 26.4042 7.38835C25.1048 5.03192 21.8562 4.38925 21.8562 4.38925C21.8562 4.38925 18.3282 4.62186 14.7093 8.03102C10.1613 12.3154 9.65597 18.3851 9.72816 21.7412C9.07845 21.3842 6.46975 20.8314 4.74706 21.527Z" fill="#16A75C"/>
<path d="M11.4608 25.5973C12.1105 26.8826 14.8243 30.9787 18.8242 32.4524C25.1048 35.4515 30.2626 33.2175 34.2008 30.7386C29.8693 36.7368 20.5568 39.5217 13.6265 37.1653C10.2298 36.1867 7.37985 34.2971 5.39675 32.2382C2.58132 29.6675 2.36475 28.0756 2.36475 26.9469C2.36475 24.6547 4.41065 22.4268 6.93441 22.4268C9.45816 22.4268 10.811 24.312 11.4608 25.5973Z" fill="#FFD026"/>
<path fill-rule="evenodd" clip-rule="evenodd" d="M35.0195 8.04482C35.2815 8.44332 35.4404 8.74 35.5002 8.8879C35.8414 9.73171 36.3664 11.6728 35.9333 13.1723C35.4206 14.9471 33.7676 16.1714 32.4681 16.5999C31.8184 16.8141 30.519 16.8141 30.519 16.8141C30.8157 16.3739 30.7866 15.7008 30.7531 14.9292C30.7377 14.5742 30.7215 14.1985 30.7356 13.815C30.7482 13.4727 30.7964 13.2036 30.8401 12.9603C30.9261 12.4806 30.9942 12.1011 30.7356 11.4586C30.7198 11.4194 30.7043 11.3807 30.6889 11.3424C30.2454 10.2388 29.9337 9.46317 29.003 8.67368C28.0551 7.86958 26.9095 7.45976 26.4041 7.38835C25.1047 5.03191 21.8561 4.38925 21.8561 4.38925C21.8561 4.38925 21.6988 4.39962 21.4164 4.44811C21.2824 4.4091 21.2064 4.38932 21.2064 4.38932C26.4041 3.74666 32.0611 4.81546 34.6339 7.60265C34.7708 7.75106 34.8993 7.89847 35.0195 8.04482Z" fill="#008444"/>
<ellipse cx="24.8883" cy="13.6007" rx="6.49715" ry="6.42665" fill="#1E88E5"/>
<path d="M23.1236 15.7431V12.564L22.3898 12.8699L22.0988 12.2041L23.3176 11.6403H23.918V15.7431H23.1236Z" fill="white"/>
<path d="M25.918 14.2735C25.7604 14.2735 25.6068 14.2415 25.4572 14.1775C25.3076 14.1136 25.1742 14.0236 25.057 13.9076C24.9397 13.7877 24.8447 13.6477 24.7719 13.4877C24.7032 13.3238 24.6689 13.1438 24.6689 12.9479C24.6689 12.744 24.7093 12.556 24.7901 12.3841C24.871 12.2081 24.9781 12.0582 25.1115 11.9342C25.249 11.8102 25.4046 11.7143 25.5785 11.6463C25.7563 11.5743 25.9423 11.5383 26.1363 11.5383C26.3587 11.5383 26.5608 11.5783 26.7427 11.6583C26.9287 11.7343 27.0864 11.8382 27.2157 11.9702C27.3491 12.0982 27.4502 12.2501 27.5189 12.4261C27.5917 12.598 27.6281 12.78 27.6281 12.9719C27.6281 13.2478 27.5715 13.5017 27.4583 13.7337C27.3491 13.9616 27.2097 14.1955 27.0399 14.4355L26.0333 15.857L25.4208 15.4432L26.2698 14.2495L26.2394 14.2135C26.1465 14.2535 26.0393 14.2735 25.918 14.2735ZM26.1485 12.2641C26.0555 12.2641 25.9666 12.2801 25.8817 12.3121C25.8008 12.3441 25.728 12.3901 25.6634 12.4501C25.5987 12.51 25.5461 12.582 25.5057 12.666C25.4693 12.746 25.4511 12.8359 25.4511 12.9359C25.4511 13.0399 25.4693 13.1339 25.5057 13.2178C25.5461 13.2978 25.5987 13.3678 25.6634 13.4278C25.728 13.4877 25.8008 13.5337 25.8817 13.5657C25.9666 13.5977 26.0555 13.6137 26.1485 13.6137C26.2374 13.6137 26.3243 13.5977 26.4092 13.5657C26.4941 13.5337 26.5689 13.4877 26.6336 13.4278C26.7023 13.3678 26.7549 13.2978 26.7913 13.2178C26.8317 13.1339 26.8519 13.0399 26.8519 12.9359C26.8519 12.8359 26.8317 12.746 26.7913 12.666C26.7549 12.582 26.7023 12.51 26.6336 12.4501C26.5689 12.3901 26.4941 12.3441 26.4092 12.3121C26.3243 12.2801 26.2374 12.2641 26.1485 12.2641Z" fill="white"/>
<path d="M37.8392 23.6905C37.666 27.5251 34.2008 29.8815 30.5191 31.3811C25.3214 33.0949 22.506 32.4522 22.506 32.4522C22.506 32.4522 24.236 31.6861 25.538 29.4531C26.5017 27.8002 26.7286 25.7067 27.1406 23.6691C27.4871 21.9553 29.0031 18.3136 32.5332 18.4421C35.4636 18.4421 37.97 20.7948 37.8392 23.6905Z" fill="#FFB900"/>
<path d="M53.6665 14.1804V10.2258H56.6195C59.7906 10.2258 61.5545 7.88907 61.5545 5.29267C61.5545 2.65632 59.8501 0.199723 56.6195 0.199723C54.6376 0.199723 52.6755 0.179751 50.6936 0.199723V14.1804H53.6665ZM53.607 7.66938V2.8161C54.6178 2.8161 55.6088 2.79613 56.6195 2.8161C57.9276 2.8161 58.7204 3.91458 58.7204 5.21278C58.7204 6.55093 57.888 7.66938 56.6195 7.66938H53.607Z" fill="#424242"/>
<path d="M67.7468 11.8236V2.53649H69.5503V0.219695H62.9704V2.53649H64.7739V11.8236H62.8118V14.2003H69.7089V11.8236H67.7468Z" fill="#424242"/>
<path d="M75.1686 0.219695H72.2155V14.2003H75.1686V8.5881C75.783 8.5881 76.8136 8.5881 77.3487 8.4483L80.8369 14.2003H84.1863V13.7609L79.945 7.2899C80.7972 6.43109 81.2729 5.17283 81.6891 3.57505C81.9864 2.51651 82.581 2.17698 83.6909 2.27685V0.239667C80.6387 -0.399446 79.4297 0.958672 78.9541 2.69627C78.5775 4.27408 78.3 5.33261 77.5667 5.73206C77.0118 6.01167 76.0208 5.9917 75.1686 5.9917V0.219695Z" fill="#424242"/>
<path d="M99.0261 7.21001C99.0261 2.51651 95.5974 0 91.9705 0C88.2841 0 84.8554 2.49654 84.8554 7.21001C84.8554 11.9235 88.2048 14.44 91.911 14.44C96.1127 14.44 99.0261 11.4641 99.0261 7.21001ZM87.8481 7.21001C87.8481 4.25411 89.7904 2.75618 91.9705 2.75618C94.1308 2.75618 96.073 4.23414 96.073 7.21001C96.073 10.2658 94.1109 11.7038 91.9507 11.7038C89.7309 11.7038 87.8481 10.2658 87.8481 7.21001Z" fill="#424242"/>
<path d="M111.727 4.37394C111.727 1.75757 109.903 0.239667 107.367 0.239667H101.48V14.2003H107.922C110.696 14.2003 112.321 12.5227 112.321 10.0661C112.321 8.62805 111.628 7.48963 110.339 6.95037C111.211 6.41112 111.727 5.39253 111.727 4.37394ZM107.149 2.79613C108.179 2.79613 108.833 3.45521 108.813 4.4738C108.794 5.4125 108.159 5.97173 107.149 5.97173H104.433V2.79613H107.149ZM107.585 8.40835C108.04 8.40835 108.437 8.4483 108.774 8.68797C109.19 8.98755 109.408 9.50683 109.388 10.0661C109.329 11.0048 108.734 11.6039 107.723 11.6039H104.433V8.40835H107.585Z" fill="#424242"/>
<path d="M122.807 11.8835L123.897 14.2003H126.969V13.8009L120.627 0.0998616H119.26L112.878 13.8009V14.2003H115.97L117.04 11.8835H122.807ZM119.934 4.75342L121.856 9.36703H118.011L119.934 4.75342Z" fill="#424242"/>
<path d="M136.843 9.10739C138.429 8.32846 139.321 6.77062 139.321 4.99308C139.321 2.51651 137.596 0.199723 134.425 0.199723C132.443 0.179751 130.481 0.199723 128.499 0.199723V14.1804H131.472V9.56675H133.95L136.804 14.1804H139.975V13.7609L136.843 9.10739ZM131.433 7.11015V2.8161H134.406C135.674 2.8161 136.447 3.7548 136.447 4.93317C136.467 6.13151 135.654 7.11015 134.406 7.11015H131.433Z" fill="#424242"/>
<path d="M51.9305 29.5666V27.949H53.1591C54.4784 27.949 55.2122 26.9931 55.2122 25.931C55.2122 24.8525 54.5031 23.8476 53.1591 23.8476C52.3345 23.8476 51.5182 23.8394 50.6936 23.8476V29.5666H51.9305ZM51.9057 26.9032V24.9179C52.3263 24.9179 52.7385 24.9097 53.1591 24.9179C53.7033 24.9179 54.0331 25.3672 54.0331 25.8983C54.0331 26.4457 53.6868 26.9032 53.1591 26.9032H51.9057Z" fill="#757575"/>
<path d="M58.5787 25.6368V27.8673C58.5787 28.3983 58.2242 28.7415 57.7624 28.7333C57.3584 28.7333 57.0533 28.4473 57.078 27.8918V25.6368H55.9154V27.8918C55.9154 28.8722 56.2452 29.632 57.3914 29.632C57.8861 29.632 58.4386 29.4604 58.6612 29.0029C58.6612 29.7627 59.5517 29.7055 60.1124 29.5748L60.1042 28.864C59.7496 28.8885 59.7331 28.7578 59.7331 28.3901V25.6368H58.5787Z" fill="#757575"/>
<path d="M60.7017 28.3738C60.743 29.4196 61.6582 29.681 62.557 29.681C63.4558 29.681 64.3216 29.3297 64.3463 28.3901C64.3711 27.3362 63.3569 27.2627 62.4663 27.1565C62.2107 27.132 61.8974 27.0911 61.8974 26.797C61.8974 26.5355 62.1777 26.3885 62.5076 26.3885C62.8374 26.3885 63.1177 26.5029 63.126 26.7888H64.2144C64.2556 25.9555 63.4393 25.5306 62.4911 25.5306C61.5181 25.5306 60.7842 25.9473 60.7842 26.8297C60.7842 27.7856 61.8232 27.8918 62.623 27.998C62.9033 28.0388 63.1919 28.0715 63.1919 28.3901C63.1837 28.7415 62.8456 28.8395 62.5076 28.8395C62.1777 28.8477 61.8644 28.7006 61.8561 28.3738H60.7017Z" fill="#757575"/>
<path d="M67.7085 28.9702C67.7085 29.6728 68.3681 29.7055 68.97 29.5748L68.9618 28.9375C68.5825 28.962 68.5907 28.766 68.5907 28.431V27.0094C68.5907 25.8738 67.7167 25.5388 66.6942 25.5388C66.1583 25.5388 65.6223 25.6368 65.2018 25.8329L65.3502 26.6499C65.6883 26.462 66.0758 26.413 66.4963 26.413C66.8921 26.413 67.4858 26.4947 67.4858 26.9767V27.2463C67.189 27.0584 66.7849 26.9931 66.4304 26.9931C65.5481 26.9931 64.8472 27.4506 64.8884 28.4147C64.9132 29.1745 65.5893 29.6483 66.3314 29.6483C66.8427 29.6483 67.4693 29.4604 67.7085 28.9702ZM67.4611 28.1614C67.4199 28.5781 66.9416 28.766 66.5623 28.766C66.2984 28.766 66.0428 28.6271 66.0181 28.3411C65.9769 27.9571 66.2737 27.7529 66.6365 27.7284C66.9251 27.7284 67.2302 27.8019 67.4611 27.9571V28.1614Z" fill="#757575"/>
<path d="M71.1871 24.4195H70.2636L70.1399 25.645H69.3071V26.4293L70.0574 26.5029V28.0552C70.0574 29.6728 71.2696 29.8934 72.6383 29.5176L72.5312 28.6516C71.8715 28.8885 71.1871 28.8477 71.1871 28.0307V26.5029H72.4817V25.645H71.1871V24.4195Z" fill="#757575"/>
<path d="M77.2915 28.6026V24.8035H78.0419V23.8558H75.3043V24.8035H76.0546V28.6026H75.2383V29.5748H78.1078V28.6026H77.2915Z" fill="#757575"/>
<path d="M82.9303 29.5748V27.2954C82.9303 26.315 82.4851 25.547 81.3636 25.547C80.9019 25.547 80.3164 25.7022 80.0938 26.1597C80.0938 25.4489 79.1703 25.5388 78.6426 25.6287V26.3395C79.0219 26.3395 79.0219 26.462 79.0219 26.8542V29.5748H80.1763V27.3199C80.1763 26.7643 80.5803 26.4538 81.0173 26.4538C81.4296 26.4538 81.7924 26.7561 81.7677 27.2954V29.5748H82.9303Z" fill="#757575"/>
<path d="M84.326 29.5748H85.4474V26.4538H86.7007V25.645H85.4474V25.1711C85.4474 24.3296 86.1977 24.3623 86.7914 24.5829L86.9069 23.7332C85.6041 23.3411 84.3507 23.5371 84.3507 25.1466L84.3425 25.645H83.5921V26.4538H84.326V29.5748Z" fill="#757575"/>
<path d="M91.255 27.5895C91.255 26.2006 90.1913 25.5143 89.1276 25.5225C88.0804 25.5306 87.0414 26.2251 87.0414 27.5895C87.0414 28.9702 88.1051 29.6565 89.1606 29.6565C90.2078 29.6565 91.255 28.9702 91.255 27.5895ZM88.1876 27.5895C88.1876 26.8787 88.6741 26.5274 89.1606 26.5274C89.6471 26.5274 90.1088 26.8869 90.1088 27.5895C90.1088 28.3084 89.6223 28.6679 89.1358 28.6598C88.6576 28.6598 88.1876 28.3003 88.1876 27.5895Z" fill="#757575"/>
<path d="M93.333 26.1842C93.267 25.4816 92.4177 25.4816 91.8405 25.6123V26.315C92.2033 26.2578 92.2363 26.4702 92.2363 26.797V29.5748H93.366V27.4424C93.366 26.8378 93.7947 26.511 94.2977 26.511C94.5533 26.5029 94.8007 26.5682 95.0398 26.7235L95.2954 25.7676C95.0646 25.596 94.7512 25.5061 94.4461 25.5143C93.9596 25.5143 93.4979 25.7349 93.333 26.1842Z" fill="#757575"/>
<path d="M102.328 29.5748V27.2954C102.353 26.3395 102.089 25.547 100.959 25.547C100.407 25.547 99.8214 25.7839 99.5823 26.2659C99.3927 25.7839 99.0628 25.547 98.3702 25.547C97.8754 25.547 97.3065 25.7267 97.0921 26.1761C97.0921 25.3917 96.1768 25.4816 95.6574 25.6287V26.3231C96.0202 26.3231 96.0367 26.4538 96.0367 26.8378V29.5748H97.1828V27.328C97.1828 26.797 97.5456 26.4702 97.9661 26.462C98.3867 26.4538 98.6588 26.7725 98.6505 27.3035V29.5748H99.7884V27.3035C99.7967 26.7806 100.118 26.4702 100.522 26.462C100.918 26.4538 101.19 26.7725 101.165 27.2954V29.5748H102.328Z" fill="#757575"/>
<path d="M105.909 28.9702C105.909 29.6728 106.569 29.7055 107.171 29.5748L107.163 28.9375C106.783 28.962 106.791 28.766 106.791 28.431V27.0094C106.791 25.8738 105.917 25.5388 104.895 25.5388C104.359 25.5388 103.823 25.6368 103.403 25.8329L103.551 26.6499C103.889 26.462 104.277 26.413 104.697 26.413C105.093 26.413 105.687 26.4947 105.687 26.9767V27.2463C105.39 27.0584 104.986 26.9931 104.631 26.9931C103.749 26.9931 103.048 27.4506 103.089 28.4147C103.114 29.1745 103.79 29.6483 104.532 29.6483C105.043 29.6483 105.67 29.4604 105.909 28.9702ZM105.662 28.1614C105.621 28.5781 105.142 28.766 104.763 28.766C104.499 28.766 104.244 28.6271 104.219 28.3411C104.178 27.9571 104.474 27.7529 104.837 27.7284C105.126 27.7284 105.431 27.8019 105.662 27.9571V28.1614Z" fill="#757575"/>
<path d="M107.68 28.3738C107.721 29.4196 108.636 29.681 109.535 29.681C110.434 29.681 111.299 29.3297 111.324 28.3901C111.349 27.3362 110.335 27.2627 109.444 27.1565C109.189 27.132 108.875 27.0911 108.875 26.797C108.875 26.5355 109.156 26.3885 109.485 26.3885C109.815 26.3885 110.096 26.5029 110.104 26.7888H111.192C111.234 25.9555 110.417 25.5306 109.469 25.5306C108.496 25.5306 107.762 25.9473 107.762 26.8297C107.762 27.7856 108.801 27.8918 109.601 27.998C109.881 28.0388 110.17 28.0715 110.17 28.3901C110.162 28.7415 109.824 28.8395 109.485 28.8395C109.156 28.8477 108.842 28.7006 108.834 28.3738H107.68Z" fill="#757575"/>
<path d="M112.048 24.5012C112.048 24.9506 112.402 25.1711 112.749 25.163C113.078 25.1548 113.4 24.9342 113.4 24.5012C113.4 24.0764 113.07 23.8558 112.74 23.8476C112.394 23.8394 112.048 24.0519 112.048 24.5012ZM113.301 25.6859H112.147V29.5748H113.301V25.6859Z" fill="#757575"/>
<path d="M120.24 25.2447C120.24 24.2643 119.449 23.7659 118.459 23.7659C117.503 23.7659 116.555 24.3133 116.621 25.3345C116.645 25.7349 116.835 26.1107 117.19 26.3313C116.604 26.6172 116.266 27.1565 116.266 27.8182C116.241 28.766 116.959 29.6647 118.435 29.6647C119.663 29.6647 120.389 28.9212 120.389 27.7202V26.8378H120.95V25.9146H119.391V27.7284C119.366 28.3166 118.995 28.6516 118.435 28.6516C117.841 28.6516 117.47 28.2594 117.47 27.7774C117.47 27.279 117.841 26.9114 118.41 26.8869H118.682V25.9555C118.097 25.9555 117.759 25.7921 117.759 25.3345C117.759 24.9424 118.121 24.7626 118.492 24.7626C118.913 24.7626 119.226 24.9506 119.226 25.2447H120.24Z" fill="#757575"/>
<path d="M125.151 23.8558H123.922V29.5748H125.151V27.279C125.406 27.279 125.835 27.279 126.058 27.2218L127.509 29.5748H128.903V29.3951L127.138 26.748C127.493 26.3967 127.691 25.8819 127.864 25.2283C127.987 24.7953 128.235 24.6564 128.696 24.6973V23.8639C127.427 23.6025 126.924 24.1581 126.726 24.8689C126.569 25.5143 126.454 25.9473 126.149 26.1107C125.918 26.2251 125.505 26.2169 125.151 26.2169V23.8558Z" fill="#757575"/>
<path d="M133.313 27.5895C133.313 26.2006 132.249 25.5143 131.185 25.5225C130.138 25.5306 129.099 26.2251 129.099 27.5895C129.099 28.9702 130.163 29.6565 131.218 29.6565C132.266 29.6565 133.313 28.9702 133.313 27.5895ZM130.245 27.5895C130.245 26.8787 130.732 26.5274 131.218 26.5274C131.705 26.5274 132.167 26.8869 132.167 27.5895C132.167 28.3084 131.68 28.6679 131.194 28.6598C130.715 28.6598 130.245 28.3003 130.245 27.5895Z" fill="#757575"/>
<path d="M138.12 27.5895C138.12 26.2006 137.056 25.5143 135.993 25.5225C134.946 25.5306 133.907 26.2251 133.907 27.5895C133.907 28.9702 134.97 29.6565 136.026 29.6565C137.073 29.6565 138.12 28.9702 138.12 27.5895ZM135.053 27.5895C135.053 26.8787 135.539 26.5274 136.026 26.5274C136.512 26.5274 136.974 26.8869 136.974 27.5895C136.974 28.3084 136.488 28.6679 136.001 28.6598C135.523 28.6598 135.053 28.3003 135.053 27.5895Z" fill="#757575"/>
<path d="M140.198 26.1842C140.132 25.4816 139.283 25.4816 138.706 25.6123V26.315C139.068 26.2578 139.101 26.4702 139.101 26.797V29.5748H140.231V27.4424C140.231 26.8378 140.66 26.511 141.163 26.511C141.418 26.5029 141.666 26.5682 141.905 26.7235L142.161 25.7676C141.93 25.596 141.616 25.5061 141.311 25.5143C140.825 25.5143 140.363 25.7349 140.198 26.1842Z" fill="#757575"/>
<path d="M145.477 29.0192C145.502 29.7055 146.211 29.7137 146.788 29.583L146.78 28.8395C146.359 28.864 146.409 28.6516 146.409 28.2676V23.6025H145.254V25.7839C143.869 25.1058 142.442 26.0535 142.442 27.6058C142.442 28.7088 143.077 29.6973 144.281 29.6728C144.801 29.6647 145.254 29.4032 145.477 28.913V29.0192ZM145.287 27.761C145.287 28.2431 144.966 28.6598 144.463 28.6598C143.844 28.6598 143.589 28.1695 143.589 27.6058C143.589 26.6172 144.463 26.2741 145.287 26.748V27.761Z" fill="#757575"/>
<path d="M147.559 24.5012C147.559 24.9506 147.914 25.1711 148.26 25.163C148.59 25.1548 148.911 24.9342 148.911 24.5012C148.911 24.0764 148.581 23.8558 148.252 23.8476C147.905 23.8394 147.559 24.0519 147.559 24.5012ZM148.812 25.6859H147.658V29.5748H148.812V25.6859Z" fill="#757575"/>
<path d="M153.937 29.5748V27.2954C153.937 26.315 153.491 25.547 152.37 25.547C151.908 25.547 151.323 25.7022 151.1 26.1597C151.1 25.4489 150.177 25.5388 149.649 25.6287V26.3395C150.028 26.3395 150.028 26.462 150.028 26.8542V29.5748H151.183V27.3199C151.183 26.7643 151.587 26.4538 152.024 26.4538C152.436 26.4538 152.799 26.7561 152.774 27.2954V29.5748H153.937Z" fill="#757575"/>
<path d="M157.509 28.9702C157.509 29.6728 158.169 29.7055 158.771 29.5748L158.763 28.9375C158.383 28.962 158.391 28.766 158.391 28.431V27.0094C158.391 25.8738 157.517 25.5388 156.495 25.5388C155.959 25.5388 155.423 25.6368 155.002 25.8329L155.151 26.6499C155.489 26.462 155.877 26.413 156.297 26.413C156.693 26.413 157.287 26.4947 157.287 26.9767V27.2463C156.99 27.0584 156.586 26.9931 156.231 26.9931C155.349 26.9931 154.648 27.4506 154.689 28.4147C154.714 29.1745 155.39 29.6483 156.132 29.6483C156.643 29.6483 157.27 29.4604 157.509 28.9702ZM157.262 28.1614C157.221 28.5781 156.742 28.766 156.363 28.766C156.099 28.766 155.844 28.6271 155.819 28.3411C155.778 27.9571 156.074 27.7529 156.437 27.7284C156.726 27.7284 157.031 27.8019 157.262 27.9571V28.1614Z" fill="#757575"/>
<path d="M159.28 28.3738C159.321 29.4196 160.236 29.681 161.135 29.681C162.034 29.681 162.899 29.3297 162.924 28.3901C162.949 27.3362 161.935 27.2627 161.044 27.1565C160.789 27.132 160.475 27.0911 160.475 26.797C160.475 26.5355 160.756 26.3885 161.085 26.3885C161.415 26.3885 161.696 26.5029 161.704 26.7888H162.792C162.834 25.9555 162.017 25.5306 161.069 25.5306C160.096 25.5306 159.362 25.9473 159.362 26.8297C159.362 27.7856 160.401 27.8918 161.201 27.998C161.481 28.0388 161.77 28.0715 161.77 28.3901C161.762 28.7415 161.424 28.8395 161.085 28.8395C160.756 28.8477 160.442 28.7006 160.434 28.3738H159.28Z" fill="#757575"/>
<path d="M163.648 24.5012C163.648 24.9506 164.002 25.1711 164.349 25.163C164.678 25.1548 165 24.9342 165 24.5012C165 24.0764 164.67 23.8558 164.34 23.8476C163.994 23.8394 163.648 24.0519 163.648 24.5012ZM164.901 25.6859H163.747V29.5748H164.901V25.6859Z" fill="#757575"/>
<path d="M51.9305 37.7367V36.119H53.1591C54.4784 36.119 55.2122 35.1631 55.2122 34.101C55.2122 33.0225 54.5031 32.0176 53.1591 32.0176C52.3345 32.0176 51.5182 32.0095 50.6936 32.0176V37.7367H51.9305ZM51.9057 35.0732V33.0879C52.3263 33.0879 52.7385 33.0797 53.1591 33.0879C53.7033 33.0879 54.0331 33.5373 54.0331 34.0683C54.0331 34.6157 53.6868 35.0732 53.1591 35.0732H51.9057Z" fill="#757575"/>
<path d="M57.2017 34.3543C57.1357 33.6516 56.2864 33.6516 55.7092 33.7824V34.485C56.072 34.4278 56.105 34.6402 56.105 34.967V37.7448H57.2347V35.6124C57.2347 35.0079 57.6635 34.6811 58.1665 34.6811C58.4221 34.6729 58.6694 34.7383 58.9086 34.8935L59.1642 33.9376C58.9333 33.766 58.62 33.6761 58.3149 33.6843C57.8284 33.6843 57.3666 33.9049 57.2017 34.3543Z" fill="#757575"/>
<path d="M63.6593 35.7595C63.6593 34.3706 62.5956 33.6843 61.5319 33.6925C60.4847 33.7007 59.4458 34.3951 59.4458 35.7595C59.4458 37.1402 60.5095 37.8265 61.5649 37.8265C62.6121 37.8265 63.6593 37.1402 63.6593 35.7595ZM60.5919 35.7595C60.5919 35.0487 61.0784 34.6974 61.5649 34.6974C62.0514 34.6974 62.5132 35.0569 62.5132 35.7595C62.5132 36.4785 62.0267 36.838 61.5402 36.8298C61.0619 36.8298 60.5919 36.4703 60.5919 35.7595Z" fill="#757575"/>
<path d="M66.3339 37.802L68.2881 33.9376V33.8069H67.0595L66.5895 34.8771L66.103 36.1353H66.0865L65.6083 34.8771L65.1382 33.8069H63.9014V33.9376L65.8556 37.802H66.3339Z" fill="#757575"/>
<path d="M68.7981 32.6712C68.7981 33.1206 69.1527 33.3412 69.499 33.333C69.8288 33.3248 70.1504 33.1042 70.1504 32.6712C70.1504 32.2464 69.8206 32.0258 69.4907 32.0176C69.1444 32.0095 68.7981 32.2219 68.7981 32.6712ZM70.0515 33.8559H68.8971V37.7448H70.0515V33.8559Z" fill="#757575"/>
<path d="M75.1758 37.7448V35.4654C75.1758 34.485 74.7306 33.717 73.6091 33.717C73.1474 33.717 72.5619 33.8722 72.3393 34.3298C72.3393 33.619 71.4158 33.7088 70.8881 33.7987V34.5095C71.2674 34.5095 71.2674 34.632 71.2674 35.0242V37.7448H72.4218V35.4899C72.4218 34.9343 72.8258 34.6239 73.2628 34.6239C73.6751 34.6239 74.0379 34.9262 74.0132 35.4654V37.7448H75.1758Z" fill="#757575"/>
<path d="M75.9531 36.5438C75.9943 37.5896 76.9096 37.851 77.8083 37.851C78.7071 37.851 79.5729 37.4997 79.5976 36.5602C79.6224 35.5062 78.6082 35.4327 77.7176 35.3265C77.462 35.302 77.1487 35.2611 77.1487 34.967C77.1487 34.7056 77.429 34.5585 77.7589 34.5585C78.0887 34.5585 78.369 34.6729 78.3773 34.9588H79.4657C79.5069 34.1255 78.6906 33.7007 77.7424 33.7007C76.7694 33.7007 76.0355 34.1173 76.0355 34.9997C76.0355 35.9556 77.0745 36.0618 77.8743 36.168C78.1547 36.2089 78.4432 36.2415 78.4432 36.5602C78.435 36.9115 78.0969 37.0095 77.7589 37.0095C77.429 37.0177 77.1157 36.8706 77.1074 36.5438H75.9531Z" fill="#757575"/>
<path d="M80.3211 32.6712C80.3211 33.1206 80.6757 33.3412 81.022 33.333C81.3519 33.3248 81.6734 33.1042 81.6734 32.6712C81.6734 32.2464 81.3436 32.0258 81.0138 32.0176C80.6675 32.0095 80.3211 32.2219 80.3211 32.6712ZM81.5745 33.8559H80.4201V37.7448H81.5745V33.8559Z" fill="#757575"/>
<path d="M88.5107 32.0258H86.2431V33.0797H87.2738V35.8249C87.2738 36.4213 86.8863 36.7399 86.3008 36.7399C85.7154 36.7399 85.2948 36.4376 85.2948 35.8249V35.1549H84.1487V35.8494C84.1487 37.0912 85.1052 37.8265 86.3008 37.8265C87.4964 37.8265 88.5107 37.0912 88.5107 35.8494V32.0258Z" fill="#757575"/>
<path d="M92.1315 37.1402C92.1315 37.8429 92.7911 37.8755 93.3931 37.7448L93.3848 37.1076C93.0055 37.1321 93.0138 36.936 93.0138 36.601V35.1794C93.0138 34.0438 92.1397 33.7088 91.1173 33.7088C90.5813 33.7088 90.0453 33.8069 89.6248 34.003L89.7732 34.82C90.1113 34.632 90.4988 34.583 90.9194 34.583C91.3152 34.583 91.9089 34.6647 91.9089 35.1468V35.4164C91.612 35.2285 91.208 35.1631 90.8534 35.1631C89.9711 35.1631 89.2702 35.6206 89.3115 36.5847C89.3362 37.3445 90.0123 37.8184 90.7545 37.8184C91.2657 37.8184 91.8924 37.6304 92.1315 37.1402ZM91.8841 36.3314C91.8429 36.7481 91.3646 36.936 90.9853 36.936C90.7215 36.936 90.4659 36.7971 90.4411 36.5112C90.3999 36.1272 90.6967 35.9229 91.0595 35.8984C91.3481 35.8984 91.6532 35.9719 91.8841 36.1272V36.3314Z" fill="#757575"/>
<path d="M95.7354 37.802L96.1889 36.8706L96.6671 35.8004L97.1619 36.838L97.6566 37.802H98.0936L99.7428 33.9376V33.8069H98.4977L98.1101 34.9588L97.8133 35.8575H97.7885L96.8898 33.8967H96.4527L95.5622 35.8575H95.5457L95.2406 34.9588L94.8201 33.8069H93.5915V33.9376L95.2241 37.802H95.7354Z" fill="#757575"/>
<path d="M102.849 37.1402C102.849 37.8429 103.509 37.8755 104.111 37.7448L104.103 37.1076C103.723 37.1321 103.732 36.936 103.732 36.601V35.1794C103.732 34.0438 102.858 33.7088 101.835 33.7088C101.299 33.7088 100.763 33.8069 100.343 34.003L100.491 34.82C100.829 34.632 101.217 34.583 101.637 34.583C102.033 34.583 102.627 34.6647 102.627 35.1468V35.4164C102.33 35.2285 101.926 35.1631 101.571 35.1631C100.689 35.1631 99.988 35.6206 100.029 36.5847C100.054 37.3445 100.73 37.8184 101.472 37.8184C101.983 37.8184 102.61 37.6304 102.849 37.1402ZM102.602 36.3314C102.561 36.7481 102.082 36.936 101.703 36.936C101.439 36.936 101.184 36.7971 101.159 36.5112C101.118 36.1272 101.415 35.9229 101.777 35.8984C102.066 35.8984 102.371 35.9719 102.602 36.1272V36.3314Z" fill="#757575"/>
<path d="M111.291 33.7252C111.291 32.6549 110.533 32.034 109.477 32.034H107.028V37.7448H109.708C110.863 37.7448 111.539 37.0585 111.539 36.0536C111.539 35.4654 111.25 34.9997 110.714 34.7791C111.077 34.5585 111.291 34.1418 111.291 33.7252ZM109.387 33.0797C109.815 33.0797 110.088 33.3493 110.079 33.766C110.071 34.15 109.807 34.3788 109.387 34.3788H108.257V33.0797H109.387ZM109.568 35.3755C109.758 35.3755 109.923 35.3919 110.063 35.4899C110.236 35.6124 110.327 35.8249 110.318 36.0536C110.294 36.4376 110.046 36.6827 109.626 36.6827H108.257V35.3755H109.568Z" fill="#757575"/>
<path d="M114.976 37.1402C114.976 37.8429 115.636 37.8755 116.238 37.7448L116.23 37.1076C115.85 37.1321 115.859 36.936 115.859 36.601V35.1794C115.859 34.0438 114.984 33.7088 113.962 33.7088C113.426 33.7088 112.89 33.8069 112.47 34.003L112.618 34.82C112.956 34.632 113.344 34.583 113.764 34.583C114.16 34.583 114.754 34.6647 114.754 35.1468V35.4164C114.457 35.2285 114.053 35.1631 113.698 35.1631C112.816 35.1631 112.115 35.6206 112.156 36.5847C112.181 37.3445 112.857 37.8184 113.599 37.8184C114.11 37.8184 114.737 37.6304 114.976 37.1402ZM114.729 36.3314C114.688 36.7481 114.209 36.936 113.83 36.936C113.566 36.936 113.311 36.7971 113.286 36.5112C113.245 36.1272 113.541 35.9229 113.904 35.8984C114.193 35.8984 114.498 35.9719 114.729 36.1272V36.3314Z" fill="#757575"/>
<path d="M118.239 34.3543C118.173 33.6516 117.324 33.6516 116.747 33.7824V34.485C117.109 34.4278 117.142 34.6402 117.142 34.967V37.7448H118.272V35.6124C118.272 35.0079 118.701 34.6811 119.204 34.6811C119.46 34.6729 119.707 34.7383 119.946 34.8935L120.202 33.9376C119.971 33.766 119.657 33.6761 119.352 33.6843C118.866 33.6843 118.404 33.9049 118.239 34.3543Z" fill="#757575"/>
<path d="M123.286 37.1402C123.286 37.8429 123.946 37.8755 124.548 37.7448L124.54 37.1076C124.16 37.1321 124.169 36.936 124.169 36.601V35.1794C124.169 34.0438 123.295 33.7088 122.272 33.7088C121.736 33.7088 121.2 33.8069 120.78 34.003L120.928 34.82C121.266 34.632 121.654 34.583 122.074 34.583C122.47 34.583 123.064 34.6647 123.064 35.1468V35.4164C122.767 35.2285 122.363 35.1631 122.008 35.1631C121.126 35.1631 120.425 35.6206 120.466 36.5847C120.491 37.3445 121.167 37.8184 121.909 37.8184C122.421 37.8184 123.047 37.6304 123.286 37.1402ZM123.039 36.3314C122.998 36.7481 122.519 36.936 122.14 36.936C121.876 36.936 121.621 36.7971 121.596 36.5112C121.555 36.1272 121.852 35.9229 122.214 35.8984C122.503 35.8984 122.808 35.9719 123.039 36.1272V36.3314Z" fill="#757575"/>
<path d="M126.765 32.5895H125.841L125.718 33.815H124.885V34.5994L125.635 34.6729V36.2252C125.635 37.8429 126.847 38.0635 128.216 37.6876L128.109 36.8216C127.449 37.0585 126.765 37.0177 126.765 36.2007V34.6729H128.06V33.815H126.765V32.5895Z" fill="#757575"/>
</svg>
